<svg xmlns="http://www.w3.org/2000/svg" xmlns:xlink="http://www.w3.org/1999/xlink" xmlns:lucid="lucid" width="1112" height="239"><g transform="translate(-2234 -2891)" lucid:page-tab-id="0_0"><path d="M0 1259.2h3676.8v7619.2H0z" fill="#fff"/><path d="M2436 3054.18c24.3 0 44 10.7 44 23.87 0 13.2-19.7 23.87-44 23.87h-132c-24.3 0-44-10.68-44-23.87 0-13.18 19.7-23.87 44-23.87z" stroke="#5e5e5e" stroke-width="3" fill="#fff"/><use xlink:href="#a" transform="matrix(1,0,0,1,2265,3059.180147936051) translate(32.691089409722245 29.176215277777768)"/><path d="M2371.5 3051.18h-3v-2.24h3zm0-23.07h-3v-5.98h3z" fill="#5e5e5e"/><path d="M2371.5 3052.68h-3v-1.54h3z" fill="#5e5e5e"/><path d="M2374.64 3020.62h-9.28l4.64-14.27z" fill="#fff"/><path d="M2376.7 3022.12h-13.4l6.7-20.62zm-9.27-3h5.14l-2.57-7.9z" fill="#5e5e5e"/><use xlink:href="#b" transform="matrix(1,0,0,1,2343.6458333333335,3028.1062472462527) translate(0 16.493055555555557)"/><path d="M2560 2926c0-3.3 2.7-6 6-6h148c3.3 0 6 2.7 6 6v74c-26.72-13.36-43.36-13.36-53.44-13.36-16 0-37.28 13.36-53.28 13.36-9.92 0-26.72 0-53.28-13.36z" stroke="#5e5e5e" stroke-width="3" fill="#fff"/><use xlink:href="#c" transform="matrix(1,0,0,1,2565,2925.0000000000014) translate(33.39463975694446 37.48871527777777)"/><path d="M2279.8 2925.8c.84-3.2 4.22-5.8 7.53-5.8H2474c3.3 0 5.3 2.6 4.45 5.8l-18.24 68.4c-.84 3.2-4.22 5.8-7.53 5.8H2266c-3.3 0-5.3-2.6-4.45-5.8z" stroke="#5e5e5e" stroke-width="3" fill="#fff"/><use xlink:href="#d" transform="matrix(1,0,0,1,2265,2925.0000000000014) translate(50.231236979166674 26.801215277777768)"/><use xlink:href="#e" transform="matrix(1,0,0,1,2265,2925.0000000000014) translate(57.60819010416668 60.65538194444443)"/><path d="M2482.97 2961.5h-10.58v-3h10.57zm54.9 0h-12.72v-3h12.73z" fill="#5e5e5e"/><path d="M2472.42 2961.5h-1.93l.8-3h1.12z" fill="#5e5e5e"/><path d="M2553.65 2960l-14.27 4.64v-9.28z" fill="#fff"/><path d="M2558.5 2960l-20.62 6.7v-13.4zm-17.62 2.57l7.9-2.57-7.9-2.57z" fill="#5e5e5e"/><use xlink:href="#f" transform="matrix(1,0,0,1,2482.9697936661487,2949.583333333335) translate(0 16.493055555555557)"/><path d="M2641.5 3072.25l-.98 3.6-2.7 2.73-3.62.97H2483v-3h150.8l2.45-.66 1.6-1.6.65-2.45v-56.6h3z" fill="#5e5e5e"/><path d="M2483.04 3079.55h-1.62l.08-1.5-.06-1.38-.02-.12h1.62z" fill="#5e5e5e"/><path d="M2644.64 3013.75h-9.28l4.64-14.27z" fill="#fff"/><path d="M2646.7 3015.25h-13.4l6.7-20.62zm-9.27-3h5.14l-2.57-7.9zM2797.88 2958.7v3h-9.5v-3zm-74.88 3v-3h8.37v3z" fill="#5e5e5e"/><path d="M2723.04 2961.7h-1.54v-3h1.54z" fill="#5e5e5e"/><path d="M2813.65 2960.2l-14.27 4.65v-9.27z" fill="#fff"/><path d="M2818.5 2960.2l-20.62 6.7v-13.4zm-17.62 2.58l7.9-2.57-7.9-2.56z" fill="#5e5e5e"/><use xlink:href="#g" transform="matrix(1,0,0,1,2731.374332332229,2949.795263167176) translate(0 16.493055555555557)"/><path d="M2820 2926c0-3.3 2.7-6 6-6h128c3.3 0 6 2.7 6 6v68c0 3.3-2.7 6-6 6h-128c-3.3 0-6-2.7-6-6z" stroke="#5e5e5e" stroke-width="3" fill="#fff"/><use xlink:href="#h" transform="matrix(1,0,0,1,2832,2932.0000000000014) translate(-2.133463541666643 37.87413194444444)"/><path d="M2318.4 2786c0-3.3 2.7-6 6-6h1028c3.3 0 6 2.7 6 6v47.55c0 3.3-2.7 6-6 6h-1028c-3.3 0-6-2.7-6-6z" stroke="#000" stroke-opacity="0" stroke-width="3" fill="#fff" fill-opacity="0"/><use xlink:href="#i" transform="matrix(1,0,0,1,2323.3999999999996,2785) translate(326.6098484848485 51.66666666666667)"/><use xlink:href="#j" transform="matrix(1,0,0,1,2323.3999999999996,2785) translate(541.6098484848485 51.66666666666667)"/><use xlink:href="#k" transform="matrix(1,0,0,1,2323.3999999999996,2785) translate(515 116.21212121212122)"/><path d="M2890 3003v14.88" stroke="#5e5e5e" stroke-width="3" fill="none"/><path d="M2891.5 3003.04h-3v-1.54h3z" fill="#5e5e5e"/><path d="M2890 3033.65l-4.64-14.27h9.28zM2820 3046c0-3.3 2.7-6 6-6h488c3.3 0 6 2.7 6 6v49.92c0 3.32-2.7 6-6 6h-488c-3.3 0-6-2.68-6-6z" stroke="#5e5e5e" stroke-width="3" fill="#fff"/><use xlink:href="#l" transform="matrix(1,0,0,1,2832,3052) translate(33.44325086805563 26.801215277777768)"/><use xlink:href="#m" transform="matrix(1,0,0,1,2832,3052) translate(131.52159288194446 26.801215277777768)"/><use xlink:href="#n" transform="matrix(1,0,0,1,2832,3052) translate(186.61924913194446 26.801215277777768)"/><use xlink:href="#o" transform="matrix(1,0,0,1,2832,3052) translate(250.3638237847222 26.801215277777768)"/><use xlink:href="#p" transform="matrix(1,0,0,1,2832,3052) translate(340.16200086805554 26.801215277777768)"/><path d="M3000 2920h314c3.3 0 6 2.7 6 6v68c0 3.3-2.7 6-6 6h-308c-3.3 0-6-2.7-6-6zm32 0v80m-32-48h320" stroke="#5e5e5e" stroke-width="3" fill="#fff"/><use xlink:href="#q" transform="matrix(1,0,0,1,3037,2957.0000000000014) translate(10.050889756944485 29.176215277777768)"/><use xlink:href="#r" transform="matrix(1,0,0,1,3037,2957.0000000000014) translate(125.88856336805557 29.176215277777768)"/><path d="M3160 3037v-14.88" stroke="#5e5e5e" stroke-width="3" fill="none"/><path d="M3161.5 3038.5h-3v-1.54h3z" fill="#5e5e5e"/><path d="M3160 3006.35l4.64 14.27h-9.28z" stroke="#5e5e5e" stroke-width="3" fill="#fff"/><path d="M2810.67 3017.54l-.22.3-7.88 9.58-7.5 8.38-7.2 7.4-6.98 6.57-6.78 5.88-6.64 5.3-6.54 4.77-6.5 4.34-6.48 3.95-6.5 3.6-6.6 3.3-6.72 3-6.9 2.76-7.13 2.5-7.44 2.27-7.87 2.04-8.43 1.8-9.14 1.58-10.13 1.3-11.55 1-.75.02v-3l.56-.02 11.42-1 10-1.27 9.02-1.55 8.3-1.78 7.74-2 7.34-2.24 7.02-2.45 6.77-2.7 6.6-2.96 6.48-3.25 6.4-3.54 6.38-3.87 6.4-4.27 6.43-4.7 6.54-5.22 6.68-5.8 6.87-6.48 7.12-7.3 7.42-8.3 7.8-9.48.18-.25zm-315.9 75.12l-18.3.03v-3l18.3-.04z" fill="#5e5e5e"/><path d="M2476.52 3092.7h-3.27l2.32-2.03.9-.98z" fill="#5e5e5e"/><path d="M2814.1 3018.18l-7.47-5.5 12.2-8.73z" fill="#fff"/><path d="M2814.86 3020.62l-10.78-7.96 17.64-12.6zm-5.67-7.92l4.12 3.05 2.63-7.9z" fill="#5e5e5e"/><g><use xlink:href="#s" transform="matrix(1,0,0,1,2494.7729942024685,3084.721611855751) translate(0 16.493055555555557)"/><use xlink:href="#t" transform="matrix(1,0,0,1,2494.7729942024685,3084.721611855751) translate(126.55381944444446 16.493055555555557)"/></g><defs><path fill="#333" d="M1161-1018c0 201-122 330-278 388l342 618V0h-206L703-589H361V0H168v-1456h482c310-2 511 139 511 438zm-193 0c0-187-120-280-313-280H361v552h295c179 3 313-101 312-272" id="u"/><path fill="#333" d="M599-131c141 0 220-65 285-146l113 88C906-50 770 20 589 20 281 21 93-214 93-545c0-223 93-397 233-485 74-48 154-72 240-72 300 2 449 218 445 537v77H278c0 197 129 357 321 357zm227-509c-3-180-88-310-260-310-170 0-264 140-282 310h542" id="v"/><path fill="#333" d="M538-131c121 0 232-49 232-156 0-50-20-88-56-117-73-60-334-92-420-143-92-55-162-110-162-238 0-190 192-317 400-317 223 0 414 129 413 338H759c0-108-110-186-227-186-119 0-215 53-215 159 0 45 18 78 53 101 76 52 331 90 416 139 98 57 169 115 169 251C955-92 760 20 538 20c-176 0-314-68-386-174-38-55-57-115-57-179h185c6 129 116 202 258 202" id="w"/><path fill="#333" d="M561-1102c238-4 403 126 403 351v498c0 99 13 178 38 237V0H808c-11-21-19-59-26-114C696-25 593 20 474 20c-199 0-368-130-365-320 4-251 214-359 490-356h180v-85c-1-135-86-212-229-212-115 0-232 67-233 171H131c20-205 206-316 430-320zM294-326c0 117 90 185 207 185 122 0 239-75 278-162v-222H634c-227 0-340 66-340 199" id="x"/><path fill="#333" d="M663-916c-163-27-288 18-338 148V0H140v-1082h180l3 125c61-97 147-145 258-145 36 0 63 5 82 14v172" id="y"/><path fill="#333" d="M277-555c0 244 77 420 297 424 127 2 249-93 255-210h175C980-127 805 20 574 20 258 20 81-222 92-562c11-319 164-533 481-540 237-5 426 165 431 392H829c-7-133-115-242-256-240-209 4-296 166-296 395" id="z"/><path fill="#333" d="M589-945c-131 0-219 81-264 174V0H140v-1536h185v585c82-101 189-151 320-151 229 0 346 129 346 387V0H806v-716c-2-153-65-229-217-229" id="A"/><g id="a"><use transform="matrix(0.014105902777777773,0,0,0.014105902777777773,0,0)" xlink:href="#u"/><use transform="matrix(0.014105902777777773,0,0,0.014105902777777773,17.78754340277777,0)" xlink:href="#v"/><use transform="matrix(0.014105902777777773,0,0,0.014105902777777773,33.09244791666666,0)" xlink:href="#w"/><use transform="matrix(0.014105902777777773,0,0,0.014105902777777773,47.988281249999986,0)" xlink:href="#v"/><use transform="matrix(0.014105902777777773,0,0,0.014105902777777773,63.293185763888864,0)" xlink:href="#x"/><use transform="matrix(0.014105902777777773,0,0,0.014105902777777773,79.00716145833331,0)" xlink:href="#y"/><use transform="matrix(0.014105902777777773,0,0,0.014105902777777773,88.51453993055554,0)" xlink:href="#z"/><use transform="matrix(0.014105902777777773,0,0,0.014105902777777773,103.63606770833331,0)" xlink:href="#A"/><use transform="matrix(0.014105902777777773,0,0,0.014105902777777773,119.54752604166664,0)" xlink:href="#v"/><use transform="matrix(0.014105902777777773,0,0,0.014105902777777773,134.85243055555551,0)" xlink:href="#y"/></g><path fill="#333" d="M687-225c189-1 272-84 286-260h300c-19 311-251 505-586 505C296 20 86-277 86-686c0-466 174-782 605-790 340-6 557 198 584 514H975c-15-183-92-268-284-268-100 0-173 38-225 108-63 84-76 264-76 443 0 157 24 272 72 345s122 109 225 109" id="B"/><path fill="#333" d="M719-811c-143-24-279 1-319 103V0H111v-1082h273l8 129c74-124 180-175 331-136" id="C"/><path fill="#333" d="M1031-175C952-60 797 20 609 20 287 20 60-206 72-543c12-330 180-559 505-559 309 0 482 214 477 537v118H365c15 134 115 234 263 234 111 0 198-40 261-121zM770-644c5-139-62-226-194-224-130 1-191 97-208 224h402" id="D"/><path fill="#333" d="M552-1102c254-4 435 134 435 383v469c1 103 15 180 43 233V0H738c-13-26-23-58-29-97C639-19 548 20 436 20 238 20 64-113 68-304c5-258 212-357 496-357h133c11-137-29-227-160-227-90 0-156 45-156 131H92c15-231 213-342 460-345zM357-325c0 76 61 124 142 124 88 0 168-45 198-105v-186H589c-152 2-232 51-232 167" id="E"/><path fill="#333" d="M457-330c2 83 25 111 111 112 32 0 60-2 85-7V-6c-57 17-115 26-175 26-203 0-310-102-310-307v-583H10v-212h158v-266h289v266h185v212H457v540" id="F"/><g id="b"><use transform="matrix(0.008680555555555556,0,0,0.008680555555555556,0,0)" xlink:href="#B"/><use transform="matrix(0.008680555555555556,0,0,0.008680555555555556,11.631944444444445,0)" xlink:href="#C"/><use transform="matrix(0.008680555555555556,0,0,0.008680555555555556,17.95138888888889,0)" xlink:href="#D"/><use transform="matrix(0.008680555555555556,0,0,0.008680555555555556,27.56076388888889,0)" xlink:href="#E"/><use transform="matrix(0.008680555555555556,0,0,0.008680555555555556,37.092013888888886,0)" xlink:href="#F"/><use transform="matrix(0.008680555555555556,0,0,0.008680555555555556,43.09895833333333,0)" xlink:href="#D"/></g><path fill="#333" d="M973-380H363L226 0H28l556-1456h168L1309 0h-197zM421-538h495l-248-681" id="G"/><path fill="#333" d="M456 20C285 20 205-92 206-268v-671H9v-143h197v-262h185v262h202v143H391v671c-9 125 92 149 207 118V0c-49 13-96 20-142 20" id="H"/><path fill="#333" d="M341 0H156v-1082h185V0zm-91-1264c-68 0-108-42-109-105 0-62 41-107 109-107s110 44 110 107-42 105-110 105" id="I"/><path fill="#333" d="M341 0H156v-1536h185V0" id="J"/><g id="c"><use transform="matrix(0.014105902777777773,0,0,0.014105902777777773,0,0)" xlink:href="#G"/><use transform="matrix(0.014105902777777773,0,0,0.014105902777777773,18.845486111111104,0)" xlink:href="#y"/><use transform="matrix(0.014105902777777773,0,0,0.014105902777777773,29.32617187499999,0)" xlink:href="#H"/><use transform="matrix(0.014105902777777773,0,0,0.014105902777777773,38.76302083333332,0)" xlink:href="#I"/><use transform="matrix(0.014105902777777773,0,0,0.014105902777777773,45.77365451388887,0)" xlink:href="#z"/><use transform="matrix(0.014105902777777773,0,0,0.014105902777777773,60.89518229166664,0)" xlink:href="#J"/><use transform="matrix(0.014105902777777773,0,0,0.014105902777777773,67.9058159722222,0)" xlink:href="#v"/></g><g id="d"><use transform="matrix(0.014105902777777773,0,0,0.014105902777777773,0,0)" xlink:href="#u"/><use transform="matrix(0.014105902777777773,0,0,0.014105902777777773,17.78754340277777,0)" xlink:href="#v"/><use transform="matrix(0.014105902777777773,0,0,0.014105902777777773,33.09244791666666,0)" xlink:href="#w"/><use transform="matrix(0.014105902777777773,0,0,0.014105902777777773,47.988281249999986,0)" xlink:href="#v"/><use transform="matrix(0.014105902777777773,0,0,0.014105902777777773,63.293185763888864,0)" xlink:href="#x"/><use transform="matrix(0.014105902777777773,0,0,0.014105902777777773,79.00716145833331,0)" xlink:href="#y"/><use transform="matrix(0.014105902777777773,0,0,0.014105902777777773,88.51453993055554,0)" xlink:href="#z"/><use transform="matrix(0.014105902777777773,0,0,0.014105902777777773,103.63606770833331,0)" xlink:href="#A"/></g><path fill="#333" d="M703-1476c426 0 599 333 586 795-11 408-187 701-584 701-422 0-587-333-587-793 0-282 106-507 280-617 89-56 190-86 305-86zm2 1333c312 0 393-279 393-632 0-308-116-536-395-536-269 0-394 232-394 523v107c-4 298 123 538 396 538" id="K"/><path fill="#333" d="M491 20c-241-1-355-148-355-398v-704h185v699c0 164 67 246 200 246 141 0 235-53 282-158v-787h185V0H812l-4-107C736-22 630 20 491 20" id="L"/><path fill="#333" d="M632-1102c291 0 422 251 422 573 0 297-141 548-419 549-131 0-235-42-310-125v521H140v-1498h169l9 120c75-93 180-140 314-140zm-53 971c207 0 290-180 290-419 0-218-92-395-292-395-112 0-196 50-252 149v517c55 99 140 148 254 148" id="M"/><g id="e"><use transform="matrix(0.014105902777777773,0,0,0.014105902777777773,0,0)" xlink:href="#K"/><use transform="matrix(0.014105902777777773,0,0,0.014105902777777773,19.861111111111104,0)" xlink:href="#L"/><use transform="matrix(0.014105902777777773,0,0,0.014105902777777773,35.78667534722221,0)" xlink:href="#H"/><use transform="matrix(0.014105902777777773,0,0,0.014105902777777773,45.223524305555536,0)" xlink:href="#M"/><use transform="matrix(0.014105902777777773,0,0,0.014105902777777773,61.4312065972222,0)" xlink:href="#L"/><use transform="matrix(0.014105902777777773,0,0,0.014105902777777773,77.3567708333333,0)" xlink:href="#H"/></g><path fill="#333" d="M1264-420l196-1036h299L1436 0h-302L897-974 660 0H358L35-1456h299L531-422l240-1034h254" id="N"/><path fill="#333" d="M416 0H126v-1082h290V0zM271-1212c-92 0-162-61-162-150s68-149 162-149c93 0 162 60 162 149s-70 150-162 150" id="O"/><g id="f"><use transform="matrix(0.008680555555555556,0,0,0.008680555555555556,0,0)" xlink:href="#N"/><use transform="matrix(0.008680555555555556,0,0,0.008680555555555556,15.364583333333334,0)" xlink:href="#C"/><use transform="matrix(0.008680555555555556,0,0,0.008680555555555556,21.848958333333336,0)" xlink:href="#O"/><use transform="matrix(0.008680555555555556,0,0,0.008680555555555556,26.562500000000004,0)" xlink:href="#F"/><use transform="matrix(0.008680555555555556,0,0,0.008680555555555556,32.56944444444445,0)" xlink:href="#D"/></g><path fill="#333" d="M658-217c127 0 227-49 227-165 0-57-21-98-60-130-79-64-370-142-463-196-162-95-248-210-248-361 0-280 246-403 537-407 213-3 383 84 467 216 45 69 68 147 68 234H886c0-139-96-211-240-211-129 0-232 55-232 169 0 47 24 87 72 119s117 62 210 90c171 51 295 115 373 191s117 171 117 284c-2 272-237 411-528 404C331 13 78-135 69-458h301c0 161 96 241 288 241" id="P"/><path fill="#333" d="M463 20c-241-1-359-147-359-393v-709h289v699c0 113 51 169 154 169 98 0 165-34 202-102v-766h290V0H767l-8-110C688-23 589 20 463 20" id="Q"/><path fill="#333" d="M663-1102c295 0 423 246 423 571 0 313-131 551-421 551-117 0-211-45-281-135L371 0H111v-1536h289v551c67-78 154-117 263-117zm-71 889c164 0 209-139 205-339-3-189-44-315-207-315-92 0-155 38-190 113v427c35 76 99 114 192 114" id="R"/><path fill="#333" d="M741-689c-2-124-40-177-163-178-82 0-141 34-178 102V0H111v-1082h271l9 121c77-94 180-141 311-141 139 0 235 55 287 165 76-110 184-165 325-165 249 0 348 151 348 411V0h-290v-690c-2-123-39-176-163-177-87 0-147 41-180 124l1 743H741v-689" id="S"/><g id="g"><use transform="matrix(0.008680555555555556,0,0,0.008680555555555556,0,0)" xlink:href="#P"/><use transform="matrix(0.008680555555555556,0,0,0.008680555555555556,10.928819444444445,0)" xlink:href="#Q"/><use transform="matrix(0.008680555555555556,0,0,0.008680555555555556,20.876736111111114,0)" xlink:href="#R"/><use transform="matrix(0.008680555555555556,0,0,0.008680555555555556,30.88541666666667,0)" xlink:href="#S"/><use transform="matrix(0.008680555555555556,0,0,0.008680555555555556,46.27604166666667,0)" xlink:href="#O"/><use transform="matrix(0.008680555555555556,0,0,0.008680555555555556,50.989583333333336,0)" xlink:href="#F"/></g><path fill="#333" d="M1216-1011c-1 297-202 441-512 441H361V0H169v-1456h537c297-6 510 164 510 445zm-192 2c1-178-126-288-307-289H361v571h345c196 1 318-92 318-282" id="T"/><path fill="#333" d="M634-1102c292 0 422 254 422 573 0 298-143 547-420 549-137 0-242-48-317-145L310 0H140v-1536h185v573c75-93 178-139 309-139zm-44 965c207 0 281-175 281-413 0-224-79-395-283-395-122 0-210 57-263 170v468c57 113 145 170 265 170" id="U"/><g id="h"><use transform="matrix(0.014105902777777773,0,0,0.014105902777777773,0,0)" xlink:href="#T"/><use transform="matrix(0.014105902777777773,0,0,0.014105902777777773,18.224826388888882,0)" xlink:href="#L"/><use transform="matrix(0.014105902777777773,0,0,0.014105902777777773,34.150390624999986,0)" xlink:href="#U"/><use transform="matrix(0.014105902777777773,0,0,0.014105902777777773,50.35807291666664,0)" xlink:href="#J"/><use transform="matrix(0.014105902777777773,0,0,0.014105902777777773,57.36870659722219,0)" xlink:href="#I"/><use transform="matrix(0.014105902777777773,0,0,0.014105902777777773,64.37934027777774,0)" xlink:href="#w"/><use transform="matrix(0.014105902777777773,0,0,0.014105902777777773,79.27517361111107,0)" xlink:href="#A"/><use transform="matrix(0.014105902777777773,0,0,0.014105902777777773,95.1866319444444,0)" xlink:href="#v"/><use transform="matrix(0.014105902777777773,0,0,0.014105902777777773,110.49153645833329,0)" xlink:href="#y"/></g><path fill="#333" d="M1985-1331h-438c-33-225-204-362-441-362-317 0-525 243-525 669 0 438 211 669 522 669 231 0 403-126 444-345l438 2c-47 377-364 726-889 726-548 0-954-384-954-1052 0-670 413-1052 954-1052 474 0 832 272 889 745" id="V"/><path fill="#333" d="M1155-654v-882h426V0h-409v-279h-16C1087-99 921 20 690 20c-309 0-519-219-520-578v-978h426v902c1 181 105 294 266 294 153 0 294-108 293-314" id="W"/><path fill="#333" d="M170 0v-1536h413v268h16c74-233 253-330 503-275v378c-40-13-121-23-180-23-188 0-326 130-326 319V0H170" id="X"/><path fill="#333" d="M870 30c-473 0-762-304-762-791 0-474 293-795 745-795 406 0 722 258 722 780v117c-348 1-699-1-1046 1 0 229 135 370 348 370 142 0 252-61 295-178l394 26c-60 285-316 470-696 470zM529-923h645c-1-183-129-315-314-315-189 0-322 140-331 315" id="Y"/><path fill="#333" d="M596-888V0H170v-1536h406v271h18c69-179 234-291 462-291 320 0 530 220 530 578V0h-426v-902c1-188-102-300-273-300-172 0-290 116-291 314" id="Z"/><path fill="#333" d="M987-1536v320H698v744c0 118 59 150 144 150 40 0 85-10 106-14l67 317C972-5 894 17 784 21 475 34 270-115 272-416v-800H62v-320h210v-368h426v368h289" id="aa"/><g id="i"><use transform="matrix(0.01893939393939394,0,0,0.01893939393939394,0,0)" xlink:href="#V"/><use transform="matrix(0.01893939393939394,0,0,0.01893939393939394,40.11363636363637,0)" xlink:href="#W"/><use transform="matrix(0.01893939393939394,0,0,0.01893939393939394,73.27651515151516,0)" xlink:href="#X"/><use transform="matrix(0.01893939393939394,0,0,0.01893939393939394,95.07575757575758,0)" xlink:href="#X"/><use transform="matrix(0.01893939393939394,0,0,0.01893939393939394,116.875,0)" xlink:href="#Y"/><use transform="matrix(0.01893939393939394,0,0,0.01893939393939394,148.75,0)" xlink:href="#Z"/><use transform="matrix(0.01893939393939394,0,0,0.01893939393939394,181.91287878787878,0)" xlink:href="#aa"/></g><path fill="#333" d="M178-2048h534l564 1376h24l564-1376h534V0h-420v-1333h-17L1431-10h-286L615-1338h-17V0H178v-2048" id="ab"/><path fill="#333" d="M864 30c-466 0-756-319-756-792 0-476 290-794 756-794s756 318 756 794c0 473-290 792-756 792zm2-330c211 0 321-197 321-465s-110-466-321-466c-215 0-325 198-325 466s110 465 325 465" id="ac"/><path fill="#333" d="M736 25c-350 0-623-277-623-791 0-528 285-790 622-790 257 0 380 153 437 278h13v-770h425V0h-420v-246h-18C1113-118 984 25 736 25zm135-339c205 0 323-180 323-454s-116-449-323-449c-211 0-323 183-323 449 0 268 114 454 323 454" id="ad"/><path fill="#333" d="M596-2048V0H170v-2048h426" id="ae"/><g id="j"><use transform="matrix(0.01893939393939394,0,0,0.01893939393939394,0,0)" xlink:href="#ab"/><use transform="matrix(0.01893939393939394,0,0,0.01893939393939394,48.78787878787879,0)" xlink:href="#ac"/><use transform="matrix(0.01893939393939394,0,0,0.01893939393939394,81.51515151515152,0)" xlink:href="#ad"/><use transform="matrix(0.01893939393939394,0,0,0.01893939393939394,115.39772727272728,0)" xlink:href="#Y"/><use transform="matrix(0.01893939393939394,0,0,0.01893939393939394,147.27272727272728,0)" xlink:href="#ae"/></g><path fill="#333" d="M497-251l268-831h189L566 0H425L33-1082h189" id="af"/><path fill="#333" d="M1098-255l208-827h185L1176 0h-150L763-820 507 0H357L43-1082h184l213 810 252-810h149" id="ag"/><g id="l"><use transform="matrix(0.014105902777777773,0,0,0.014105902777777773,0,0)" xlink:href="#u"/><use transform="matrix(0.014105902777777773,0,0,0.014105902777777773,17.78754340277777,0)" xlink:href="#v"/><use transform="matrix(0.014105902777777773,0,0,0.014105902777777773,32.90907118055554,0)" xlink:href="#af"/><use transform="matrix(0.014105902777777773,0,0,0.014105902777777773,46.90212673611109,0)" xlink:href="#I"/><use transform="matrix(0.014105902777777773,0,0,0.014105902777777773,53.91276041666664,0)" xlink:href="#v"/><use transform="matrix(0.014105902777777773,0,0,0.014105902777777773,69.21766493055553,0)" xlink:href="#ag"/></g><path fill="#333" d="M589-945c-131 0-219 81-264 174V0H140v-1082h175l6 136c83-104 191-156 324-156 229 0 346 129 346 387V0H806v-716c-2-153-65-229-217-229" id="ah"/><path fill="#333" d="M520 20C244 20 95-247 95-550c0-298 151-550 427-552 127 0 227 43 301 130v-564h185V0H838l-9-116C755-25 652 20 520 20zm48-965c-210 0-288 177-288 416 0 218 87 392 286 392 117 0 203-53 257-158v-497c-55-102-140-153-255-153" id="ai"/><g id="m"><use transform="matrix(0.014105902777777773,0,0,0.014105902777777773,0,0)" xlink:href="#x"/><use transform="matrix(0.014105902777777773,0,0,0.014105902777777773,15.71397569444444,0)" xlink:href="#ah"/><use transform="matrix(0.014105902777777773,0,0,0.014105902777777773,31.65364583333332,0)" xlink:href="#ai"/></g><g id="n"><use transform="matrix(0.014105902777777773,0,0,0.014105902777777773,0,0)" xlink:href="#M"/><use transform="matrix(0.014105902777777773,0,0,0.014105902777777773,16.20768229166666,0)" xlink:href="#v"/><use transform="matrix(0.014105902777777773,0,0,0.014105902777777773,31.512586805555543,0)" xlink:href="#v"/><use transform="matrix(0.014105902777777773,0,0,0.014105902777777773,46.81749131944443,0)" xlink:href="#y"/></g><g id="o"><use transform="matrix(0.014105902777777773,0,0,0.014105902777777773,0,0)" xlink:href="#y"/><use transform="matrix(0.014105902777777773,0,0,0.014105902777777773,9.507378472222218,0)" xlink:href="#v"/><use transform="matrix(0.014105902777777773,0,0,0.014105902777777773,24.628906249999993,0)" xlink:href="#af"/><use transform="matrix(0.014105902777777773,0,0,0.014105902777777773,38.62196180555554,0)" xlink:href="#I"/><use transform="matrix(0.014105902777777773,0,0,0.014105902777777773,45.63259548611109,0)" xlink:href="#v"/><use transform="matrix(0.014105902777777773,0,0,0.014105902777777773,60.93749999999998,0)" xlink:href="#ag"/></g><path fill="#333" d="M584 20C278 26 81-227 91-551c10-320 175-545 491-551 308-5 503 247 494 573-9 322-175 543-492 549zm-2-970c-208 0-305 185-305 421 0 216 106 398 307 398 211 0 307-186 307-420 0-214-109-399-309-399" id="aj"/><g id="p"><use transform="matrix(0.014105902777777773,0,0,0.014105902777777773,0,0)" xlink:href="#M"/><use transform="matrix(0.014105902777777773,0,0,0.014105902777777773,16.20768229166666,0)" xlink:href="#y"/><use transform="matrix(0.014105902777777773,0,0,0.014105902777777773,25.7009548611111,0)" xlink:href="#aj"/><use transform="matrix(0.014105902777777773,0,0,0.014105902777777773,42.17664930555554,0)" xlink:href="#z"/><use transform="matrix(0.014105902777777773,0,0,0.014105902777777773,57.298177083333314,0)" xlink:href="#v"/><use transform="matrix(0.014105902777777773,0,0,0.014105902777777773,72.6030815972222,0)" xlink:href="#w"/><use transform="matrix(0.014105902777777773,0,0,0.014105902777777773,87.49891493055553,0)" xlink:href="#w"/></g><path fill="#333" d="M512-137c164 0 267-115 267-285v-1034h193v1031c4 276-186 445-460 445C234 20 52-130 53-402h192c0 167 97 265 267 265" id="ak"/><path fill="#333" d="M177 125H18l608-1581h158" id="al"/><g id="q"><use transform="matrix(0.014105902777777773,0,0,0.014105902777777773,0,0)" xlink:href="#ak"/><use transform="matrix(0.014105902777777773,0,0,0.014105902777777773,15.939670138888884,0)" xlink:href="#aj"/><use transform="matrix(0.014105902777777773,0,0,0.014105902777777773,32.41536458333332,0)" xlink:href="#L"/><use transform="matrix(0.014105902777777773,0,0,0.014105902777777773,48.34092881944443,0)" xlink:href="#y"/><use transform="matrix(0.014105902777777773,0,0,0.014105902777777773,58.11631944444442,0)" xlink:href="#ah"/><use transform="matrix(0.014105902777777773,0,0,0.014105902777777773,74.05598958333331,0)" xlink:href="#x"/><use transform="matrix(0.014105902777777773,0,0,0.014105902777777773,89.76996527777776,0)" xlink:href="#J"/><use transform="matrix(0.014105902777777773,0,0,0.014105902777777773,96.78059895833331,0)" xlink:href="#al"/></g><g id="r"><use transform="matrix(0.014105902777777773,0,0,0.014105902777777773,0,0)" xlink:href="#M"/><use transform="matrix(0.014105902777777773,0,0,0.014105902777777773,16.20768229166666,0)" xlink:href="#L"/><use transform="matrix(0.014105902777777773,0,0,0.014105902777777773,32.133246527777764,0)" xlink:href="#U"/><use transform="matrix(0.014105902777777773,0,0,0.014105902777777773,48.34092881944443,0)" xlink:href="#J"/><use transform="matrix(0.014105902777777773,0,0,0.014105902777777773,55.35156249999998,0)" xlink:href="#I"/><use transform="matrix(0.014105902777777773,0,0,0.014105902777777773,62.362196180555536,0)" xlink:href="#z"/><use transform="matrix(0.014105902777777773,0,0,0.014105902777777773,77.4837239583333,0)" xlink:href="#x"/><use transform="matrix(0.014105902777777773,0,0,0.014105902777777773,93.19769965277774,0)" xlink:href="#H"/><use transform="matrix(0.014105902777777773,0,0,0.014105902777777773,102.63454861111107,0)" xlink:href="#I"/><use transform="matrix(0.014105902777777773,0,0,0.014105902777777773,109.64518229166663,0)" xlink:href="#aj"/><use transform="matrix(0.014105902777777773,0,0,0.014105902777777773,126.12087673611107,0)" xlink:href="#ah"/></g><path fill="#333" d="M1209-1016c0 219-100 334-260 407l315 595V0H942L669-533H430V0H130v-1456h541c318-3 538 141 538 440zm-300 24c-1-144-85-221-238-221H430v437h242c144 2 238-77 237-216" id="am"/><path fill="#333" d="M529-185c94 0 168-33 168-114 0-35-18-63-53-83s-91-39-168-55C219-491 90-600 90-765c0-208 203-337 432-337 246 0 451 124 453 349H686c-2-91-62-143-165-143-86 0-151 41-153 117 0 32 16 57 46 77 63 43 257 69 335 100 151 60 229 153 229 291C978-13 554 93 282-28 162-81 60-190 56-344h274c5 106 86 159 199 159" id="an"/><path fill="#333" d="M355-556c-2 203 30 338 206 343 102 3 181-63 182-161h271C1001-128 821 17 566 20 242 24 66-212 66-554c0-320 184-548 498-548 262 0 451 167 450 423H743c-1-108-75-193-184-189-162 6-202 123-204 312" id="ao"/><path fill="#333" d="M750-685c-1-124-48-182-173-182-85 0-146 33-184 98V0H104v-1536h289v572c77-92 173-138 289-138 235 0 357 136 357 409V0H750v-685" id="ap"/><path fill="#333" d="M202 125H-13l536-1581h215" id="aq"/><path fill="#333" d="M750-692c-1-124-48-174-173-175-81 0-142 35-183 104V0H105v-1082h272l9 125c77-97 181-145 311-145 244 0 342 151 342 403V0H750v-692" id="ar"/><g id="s"><use transform="matrix(0.008680555555555556,0,0,0.008680555555555556,0,0)" xlink:href="#am"/><use transform="matrix(0.008680555555555556,0,0,0.008680555555555556,11.345486111111112,0)" xlink:href="#D"/><use transform="matrix(0.008680555555555556,0,0,0.008680555555555556,20.954861111111114,0)" xlink:href="#an"/><use transform="matrix(0.008680555555555556,0,0,0.008680555555555556,30.09548611111111,0)" xlink:href="#D"/><use transform="matrix(0.008680555555555556,0,0,0.008680555555555556,39.704861111111114,0)" xlink:href="#E"/><use transform="matrix(0.008680555555555556,0,0,0.008680555555555556,49.236111111111114,0)" xlink:href="#C"/><use transform="matrix(0.008680555555555556,0,0,0.008680555555555556,55.55555555555556,0)" xlink:href="#ao"/><use transform="matrix(0.008680555555555556,0,0,0.008680555555555556,64.82638888888889,0)" xlink:href="#ap"/><use transform="matrix(0.008680555555555556,0,0,0.008680555555555556,74.77430555555556,0)" xlink:href="#D"/><use transform="matrix(0.008680555555555556,0,0,0.008680555555555556,84.38368055555556,0)" xlink:href="#C"/><use transform="matrix(0.008680555555555556,0,0,0.008680555555555556,90.86805555555556,0)" xlink:href="#aq"/><use transform="matrix(0.008680555555555556,0,0,0.008680555555555556,97.50868055555556,0)" xlink:href="#Q"/><use transform="matrix(0.008680555555555556,0,0,0.008680555555555556,107.45659722222223,0)" xlink:href="#ar"/><use transform="matrix(0.008680555555555556,0,0,0.008680555555555556,117.41319444444444,0)" xlink:href="#O"/></g><path fill="#333" d="M663-1102c295 0 422 250 422 571 0 300-141 549-420 551-109 0-198-38-265-114v510H111v-1498h268l10 106c70-84 161-126 274-126zm133 550c0-175-53-315-209-315-91 0-153 35-187 104v443c35 71 98 107 189 107 138 0 207-113 207-339" id="as"/><path fill="#333" d="M515-409l200-673h310L590 168c-66 202-236 321-472 250V199c127 7 198-15 230-107l34-89L3-1082h311" id="at"/><g id="t"><use transform="matrix(0.008680555555555556,0,0,0.008680555555555556,0,0)" xlink:href="#as"/><use transform="matrix(0.008680555555555556,0,0,0.008680555555555556,10.008680555555555,0)" xlink:href="#E"/><use transform="matrix(0.008680555555555556,0,0,0.008680555555555556,19.40972222222222,0)" xlink:href="#at"/><use transform="matrix(0.008680555555555556,0,0,0.008680555555555556,28.333333333333332,0)" xlink:href="#an"/></g></defs></g></svg>