<svg xmlns="http://www.w3.org/2000/svg" xmlns:xlink="http://www.w3.org/1999/xlink" xmlns:lucid="lucid" width="1002" height="551"><g transform="translate(-2427 -3934)" lucid:page-tab-id="0_0"><path d="M0 1259.2h3676.8v7619.2H0z" fill="#fff"/><path d="M3124.84 4302.58h-22.72v-3h22.72zm274.47-71.04l2.72 2.72.98 3.6v57.42l-.98 3.6-2.7 2.73-3.62.98h-64.27v-3h63.87l2.45-.66 1.6-1.6.65-2.44v-56.6l-.66-2.46-1.6-1.6-2.44-.65H3363v-3h32.7z" fill="#5e5e5e"/><path d="M3363.04 4233.57h-1.64l.1-1.47-.02-1.08-.05-.45h1.6z" fill="#5e5e5e"/><path d="M3100.62 4305.72l-14.26-4.64 14.26-4.63z" fill="#fff"/><path d="M3102.12 4307.78l-20.62-6.7 20.62-6.7zm-10.9-6.7l7.9 2.57v-5.14zM3124.84 4302.58h-22.72v-3h22.72zm274.47-138.94l2.72 2.72.98 3.6v125.32l-.98 3.6-2.7 2.73-3.62.98h-64.27v-3h63.87l2.45-.66 1.6-1.6.65-2.44v-124.52l-.66-2.45-1.6-1.57-2.44-.67H3363v-3h32.7z" fill="#5e5e5e"/><path d="M3363.04 4165.66h-1.64l.1-1.46-.02-1.1-.05-.44h1.6z" fill="#5e5e5e"/><path d="M3100.62 4305.72l-14.26-4.64 14.26-4.63z" fill="#fff"/><path d="M3102.12 4307.78l-20.62-6.7 20.62-6.7zm-10.9-6.7l7.9 2.57v-5.14zM3124.84 4302.58h-22.72v-3h22.72zm274.47-206.84l2.72 2.72.98 3.6v193.22l-.98 3.6-2.7 2.73-3.62.98h-64.27v-3h63.87l2.45-.66 1.6-1.6.65-2.44v-192.42l-.66-2.45-1.6-1.57-2.44-.67H3363v-3h32.7z" fill="#5e5e5e"/><path d="M3363.04 4097.76h-1.64l.1-1.46-.02-1.1-.05-.44h1.6z" fill="#5e5e5e"/><path d="M3100.62 4305.72l-14.26-4.64 14.26-4.63z" fill="#fff"/><path d="M3102.12 4307.78l-20.62-6.7 20.62-6.7zm-10.9-6.7l7.9 2.57v-5.14z" fill="#5e5e5e"/><use xlink:href="#a" transform="matrix(1,0,0,1,3124.8403661077427,4290.666666105507) translate(0 16.493055555555557)"/><use xlink:href="#b" transform="matrix(1,0,0,1,3124.8403661077427,4290.666666105507) translate(43.23784722222222 16.493055555555557)"/><use xlink:href="#c" transform="matrix(1,0,0,1,3124.8403661077427,4290.666666105507) translate(99.85243055555556 16.493055555555557)"/><use xlink:href="#d" transform="matrix(1,0,0,1,3124.8403661077427,4290.666666105507) translate(149.04513888888889 16.493055555555557)"/><use xlink:href="#e" transform="matrix(1,0,0,1,3124.8403661077427,4290.666666105507) translate(169.27083333333331 16.493055555555557)"/><path d="M2714.1 4429.3H2683v-3h31.1zm147.56-114.57h-73.57l-2.46.67-1.58 1.58-.67 2.45v95.4h-3v-95.8l.97-3.6 2.72-2.72 3.6-.97h73.96z" fill="#5e5e5e"/><path d="M2683.04 4429.3h-1.62l.08-1.5-.07-1.5h1.6z" fill="#5e5e5e"/><path d="M2877.43 4313.23l-14.27 4.64v-9.27z" fill="#fff"/><path d="M2882.28 4313.23l-20.62 6.7v-13.4zm-17.62 2.58l7.92-2.57-7.92-2.57z" fill="#5e5e5e"/><use xlink:href="#f" transform="matrix(1,0,0,1,2714.08869320512,4414.839767399777) translate(0 16.493055555555557)"/><use xlink:href="#g" transform="matrix(1,0,0,1,2714.08869320512,4414.839767399777) translate(50.407986111111114 16.493055555555557)"/><path d="M2636 4400.94c24.3 0 44 12.02 44 26.86 0 14.83-19.7 26.86-44 26.86h-132c-24.3 0-44-12.03-44-26.86 0-14.84 19.7-26.86 44-26.86z" stroke="#5e5e5e" stroke-width="3" fill="#c1e4f7"/><use xlink:href="#h" transform="matrix(1,0,0,1,2465,4405.935586618558) translate(32.691089409722245 32.30121527777777)"/><path d="M2479.18 4268.03c.85-3.2 4.23-5.8 7.54-5.8H2674c3.3 0 5.3 2.6 4.45 5.8l-17.63 66.1c-.85 3.2-4.23 5.8-7.54 5.8H2466c-3.3 0-5.3-2.6-4.45-5.8z" stroke="#5e5e5e" stroke-width="3" fill="#c7e8ac"/><use xlink:href="#i" transform="matrix(1,0,0,1,2465,4267.229166105507) translate(49.731236979166674 26.801215277777768)"/><use xlink:href="#j" transform="matrix(1,0,0,1,2465,4267.229166105507) translate(57.60819010416668 60.65538194444443)"/><path d="M2571.5 4397.94h-3v-5.15h3zm0-25.98h-3v-9.9h3z" fill="#5e5e5e"/><path d="M2571.5 4399.44h-3v-1.54h3z" fill="#5e5e5e"/><path d="M2574.64 4360.56h-9.28l4.64-14.27z" fill="#fff"/><path d="M2576.7 4362.06h-13.4l6.7-20.62zm-9.27-3h5.14l-2.57-7.9z" fill="#5e5e5e"/><use xlink:href="#k" transform="matrix(1,0,0,1,2543.6458333333335,4371.956133353479) translate(0 16.493055555555557)"/><path d="M3060.16 4274.22c10.96 0 19.84 12.03 19.84 26.86 0 14.84-8.88 26.86-19.84 26.86h-158.72c-10.96 0-19.84-12.02-19.84-26.86 0-14.83 8.88-26.86 19.84-26.86z" stroke="#5e5e5e" stroke-width="3" fill="#ffbbb1"/><path d="M3060.16 4327.94c-10.96 0-19.84-12.02-19.84-26.86 0-14.83 8.88-26.86 19.84-26.86" stroke="#5e5e5e" stroke-width="3" fill="none"/><use xlink:href="#l" transform="matrix(1,0,0,1,2886.6000000000004,4279.2225311127095) translate(44.90581597222223 32.30121527777777)"/><path d="M2674.93 4302.58h-2.24v-3h2.23zm184.55 0h-75.3v-3h75.3z" fill="#5e5e5e"/><path d="M2672.73 4302.58h-1.94l.8-3h1.13z" fill="#5e5e5e"/><path d="M2875.24 4301.08l-14.26 4.64v-9.27z" fill="#fff"/><path d="M2880.1 4301.08l-20.62 6.7v-13.4zm-17.62 2.57l7.9-2.57-7.9-2.57z" fill="#5e5e5e"/><use xlink:href="#m" transform="matrix(1,0,0,1,2674.930521739889,4290.666666105507) translate(0 16.493055555555557)"/><path d="M3080 4449.3c0 2.95-44.4 5.36-99.2 5.36-54.8 0-99.2-2.4-99.2-5.37v-43c0-2.96 44.4-5.36 99.2-5.36 54.8 0 99.2 2.4 99.2 5.37z" stroke="#5e5e5e" stroke-width="3" fill="#ffeca9"/><path d="M3080 4406.3c0 2.97-44.4 5.38-99.2 5.38-54.8 0-99.2-2.4-99.2-5.37" stroke="#5e5e5e" stroke-width="3" fill="none"/><use xlink:href="#n" transform="matrix(1,0,0,1,2886.6000000000004,4416.679907282343) translate(24.175021701388914 26.801215277777768)"/><path d="M2982.3 4378.82h-3v-11.7h3zm0-32.55h-3v-15.33h3z" fill="#5e5e5e"/><path d="M2982.3 4330.98h-3v-1.54h3z" fill="#5e5e5e"/><path d="M2980.8 4394.58l-4.64-14.26h9.28z" fill="#fff"/><path d="M2980.8 4399.44l-6.7-20.62h13.4zm-2.57-17.62l2.57 7.9 2.57-7.9z" fill="#5e5e5e"/><use xlink:href="#o" transform="matrix(1,0,0,1,2935.4050347222224,4346.27412121081) translate(0 16.493055555555557)"/><path d="M2714.1 4429.3h-11.98v-3h11.97zm145.38 0h-9.78v-3h9.78z" fill="#5e5e5e"/><path d="M2700.62 4432.43l-14.26-4.63 14.26-4.64z" fill="#fff"/><path d="M2702.12 4434.5l-20.62-6.7 20.62-6.7zm-10.9-6.7l7.9 2.57v-5.14z" fill="#5e5e5e"/><path d="M2875.25 4427.8l-14.27 4.63v-9.27z" fill="#fff"/><path d="M2880.1 4427.8l-20.62 6.7v-13.4zm-17.62 2.57l7.9-2.57-7.9-2.57z" fill="#5e5e5e"/><path d="M2475.18 4144.3c.86-3.2 4.23-5.8 7.55-5.8H2674c3.3 0 5.3 2.6 4.45 5.8l-13.63 51.13c-.86 3.2-4.23 5.8-7.55 5.8H2466c-3.3 0-5.3-2.6-4.45-5.8z" stroke="#5e5e5e" stroke-width="3" fill="#c7e8ac"/><use xlink:href="#p" transform="matrix(1,0,0,1,2465,4143.500000424243) translate(32.38075954861113 36.73871527777777)"/><path d="M2571.5 4259.23h-3v-2.15h3zm0-22.98h-3v-12.9h3z" fill="#5e5e5e"/><path d="M2571.5 4260.73h-3v-1.54h3z" fill="#5e5e5e"/><path d="M2574.64 4221.85h-9.28l4.64-14.26z" fill="#fff"/><path d="M2576.7 4223.35h-13.4l6.7-20.62zm-9.27-3h5.14l-2.57-7.9z" fill="#5e5e5e"/><use xlink:href="#q" transform="matrix(1,0,0,1,2548.910590277778,4236.251083482267) translate(0 16.493055555555557)"/><path d="M2779.4 4281.57l.66 2.45 1.58 1.6 2.45.65h77.88v3h-78.28l-3.6-.98-2.73-2.73-.98-3.6v-101.7h3zm-104.7-110.2v-3h3.44v3z" fill="#5e5e5e"/><path d="M2674.73 4171.37h-1.94l.8-3h1.13z" fill="#5e5e5e"/><path d="M2877.75 4287.77l-14.27 4.63v-9.27z" fill="#fff"/><path d="M2882.6 4287.77l-20.62 6.7v-13.4zm-17.62 2.57l7.9-2.57-7.9-2.57z" fill="#5e5e5e"/><use xlink:href="#m" transform="matrix(1,0,0,1,2678.1392211967036,4159.448873120247) translate(0 16.493055555555557)"/><path d="M2699.77 4005.8c.85-3.2 4.23-5.8 7.54-5.8H2914c3.3 0 5.3 2.6 4.45 5.8l-18.22 68.33c-.85 3.2-4.23 5.8-7.54 5.8H2686c-3.3 0-5.3-2.6-4.45-5.8z" stroke="#5e5e5e" stroke-width="3" fill="#99d5ca"/><use xlink:href="#r" transform="matrix(1,0,0,1,2685,4005) translate(25.953893229166688 26.801215277777768)"/><use xlink:href="#s" transform="matrix(1,0,0,1,2685,4005) translate(91.53223524305557 26.801215277777768)"/><use xlink:href="#t" transform="matrix(1,0,0,1,2685,4005) translate(69.39963975694445 60.65538194444443)"/><path d="M3154.46 4429.3H3083v-3h71.46zm244.85-265.66l2.72 2.72.98 3.6V4422l-.98 3.6-2.7 2.72-3.62.98h-112.72v-3h112.32l2.45-.67 1.6-1.58.65-2.45v-251.24l-.66-2.45-1.6-1.57-2.44-.67h-13.18v-3h13.58z" fill="#5e5e5e"/><path d="M3083.04 4429.3h-1.54v-3h1.54z" fill="#5e5e5e"/><path d="M3380.62 4168.8l-14.27-4.64 14.27-4.63z" fill="#fff"/><path d="M3382.12 4170.86l-20.62-6.7 20.62-6.7zm-10.9-6.7l7.9 2.57v-5.14z" fill="#5e5e5e"/><path d="M3324 4068.33c19.88 0 36 12.5 36 27.93s-16.12 27.93-36 27.93h-108c-19.88 0-36-12.5-36-27.94 0-15.42 16.12-27.93 36-27.93z" stroke="#5e5e5e" stroke-width="3" fill="#b2d6ef"/><use xlink:href="#u" transform="matrix(1,0,0,1,3185,4073.3338617298114) translate(15.314787326388918 32.55121527777777)"/><use xlink:href="#v" transform="matrix(1,0,0,1,3185,4073.3338617298114) translate(138.47342447916665 32.55121527777777)"/><path d="M3324 4136.23c19.88 0 36 12.5 36 27.93s-16.12 27.94-36 27.94h-108c-19.88 0-36-12.5-36-27.94 0-15.42 16.12-27.93 36-27.93z" stroke="#5e5e5e" stroke-width="3" fill="#b2d6ef"/><use xlink:href="#u" transform="matrix(1,0,0,1,3185,4141.229799453506) translate(15.314787326388918 32.55121527777777)"/><use xlink:href="#w" transform="matrix(1,0,0,1,3185,4141.229799453506) translate(138.47342447916665 32.55121527777777)"/><path d="M3324 4204.13c19.88 0 36 12.5 36 27.94 0 15.42-16.12 27.93-36 27.93h-108c-19.88 0-36-12.5-36-27.93s16.12-27.94 36-27.94z" stroke="#5e5e5e" stroke-width="3" fill="#b2d6ef"/><use xlink:href="#u" transform="matrix(1,0,0,1,3185,4209.132366976855) translate(15.314787326388918 32.55121527777777)"/><use xlink:href="#x" transform="matrix(1,0,0,1,3185,4209.132366976855) translate(138.47342447916665 32.55121527777777)"/><path d="M3154.46 4429.3H3083v-3h71.46zm244.85-197.76l2.72 2.72.98 3.6V4422l-.98 3.6-2.7 2.72-3.62.98h-112.72v-3h112.32l2.45-.67 1.6-1.58.65-2.45v-183.33l-.66-2.45-1.6-1.6-2.44-.65h-13.18v-3h13.58z" fill="#5e5e5e"/><path d="M3083.04 4429.3h-1.54v-3h1.54z" fill="#5e5e5e"/><path d="M3380.62 4236.7l-14.27-4.63 14.27-4.64z" fill="#fff"/><path d="M3382.12 4238.77l-20.62-6.7 20.62-6.7zm-10.9-6.7l7.9 2.57v-5.14z" fill="#5e5e5e"/><path d="M3154.46 4429.3h-52.34v-3h52.34zm244.85-333.56l2.72 2.72.98 3.6V4422l-.98 3.6-2.7 2.72-3.62.98h-112.72v-3h112.32l2.45-.67 1.6-1.58.65-2.45v-319.14l-.66-2.45-1.6-1.57-2.44-.67h-13.18v-3h13.58z" fill="#5e5e5e"/><path d="M3100.62 4432.43l-14.27-4.63 14.27-4.64z" fill="#fff"/><path d="M3102.12 4434.5l-20.62-6.7 20.62-6.7zm-10.9-6.7l7.9 2.57v-5.14z" fill="#5e5e5e"/><path d="M3380.62 4100.9l-14.27-4.64 14.27-4.63z" fill="#fff"/><path d="M3382.12 4102.96l-20.62-6.7 20.62-6.7zm-10.9-6.7l7.9 2.58v-5.15z" fill="#5e5e5e"/><use xlink:href="#y" transform="matrix(1,0,0,1,3154.4647897062614,4417.379721611355) translate(0 16.493055555555557)"/><use xlink:href="#z" transform="matrix(1,0,0,1,3154.4647897062614,4417.379721611355) translate(61.04166666666668 16.493055555555557)"/><path d="M2632.58 4110.7h-56.38l-2.45.67-1.6 1.6-.65 2.44v20.1h-3V4115l.98-3.6 2.7-2.7 3.62-1h56.78zm168.92-7.3l-.98 3.62-2.7 2.72-3.62.97H2707v-3h86.8l2.45-.65 1.6-1.6.65-2.44v-.96h3z" fill="#5e5e5e"/><path d="M2571.5 4137h-3v-1.54h3z" fill="#5e5e5e"/><path d="M2804.64 4100.54h-9.28l4.64-14.26z" fill="#fff"/><path d="M2806.7 4102.04h-13.4l6.7-20.62zm-9.27-3h5.14l-2.57-7.9z" fill="#5e5e5e"/><use xlink:href="#A" transform="matrix(1,0,0,1,2632.5840387439193,4098.795454545455) translate(0 16.493055555555557)"/><path d="M2801.5 4103.8l.66 2.45 1.6 1.6 2.44.65h238v3h-238.4l-3.6-.98-2.72-2.7-.98-3.62v-2.16h3zm376.07-6.15l-.48.2-.1.2v6.15l-.98 3.6-2.7 2.72-3.62.98h-58.93v-3h58.53l2.45-.66 1.6-1.6.65-2.44v-6.33l.8-1.9 1.63-.7z" fill="#5e5e5e"/><path d="M3178.5 4096.23l.02 1.08.05.46h-1.6v-3h1.63z" fill="#5e5e5e"/><path d="M2804.64 4100.54h-9.28l4.64-14.26z" fill="#fff"/><path d="M2806.7 4102.04h-13.4l6.7-20.62zm-9.27-3h5.14l-2.57-7.9z" fill="#5e5e5e"/><use xlink:href="#B" transform="matrix(1,0,0,1,3044.212670299994,4099.583333333333) translate(0 16.493055555555557)"/><path d="M3169.7 4108.5l3.6.98 2.72 2.7.98 3.62v46.57l.1.2.47.2-1.14 2.78-1.64-.68-.8-1.9v-46.77l-.66-2.45-1.6-1.6-2.44-.65h-58.53v-3zm-367.54-2.25l1.6 1.6 2.44.65h238v3h-238.4l-3.6-.98-2.72-2.7-.98-3.62v-2.16h3v1.76z" fill="#5e5e5e"/><path d="M3178.5 4164.13l.02 1.08.05.46h-1.6v-3h1.63z" fill="#5e5e5e"/><path d="M2804.64 4100.54h-9.28l4.64-14.26z" fill="#fff"/><path d="M2806.7 4102.04h-13.4l6.7-20.62zm-9.27-3h5.14l-2.57-7.9zM3169.7 4108.5l3.6.98 2.72 2.7.98 3.62v114.47l.1.2.47.2-1.14 2.78-1.64-.68-.8-1.9V4116.2l-.66-2.45-1.6-1.6-2.44-.65h-58.53v-3zm-367.54-2.25l1.6 1.6 2.44.65h238v3h-238.4l-3.6-.98-2.72-2.7-.98-3.62v-2.16h3v1.76z" fill="#5e5e5e"/><path d="M3178.5 4232.03l.02 1.1.05.44h-1.6v-3h1.63z" fill="#5e5e5e"/><path d="M2804.64 4100.54h-9.28l4.64-14.26z" fill="#fff"/><path d="M2806.7 4102.04h-13.4l6.7-20.62zm-9.27-3h5.14l-2.57-7.9zM2981.16 4271.22h-3v-25.78h3zM2801.5 4103.8l.66 2.45 1.6 1.6 2.44.65h167.66l3.6.98 2.72 2.7.98 3.62v75.43h-3v-75.03l-.66-2.45-1.6-1.6-2.44-.65H2805.8l-3.6-.98-2.72-2.7-.98-3.62v-2.16h3z" fill="#5e5e5e"/><path d="M2981.16 4272.72h-3v-1.54h3z" fill="#5e5e5e"/><path d="M2804.64 4100.54h-9.28l4.64-14.26z" fill="#fff"/><path d="M2806.7 4102.04h-13.4l6.7-20.62zm-9.27-3h5.14l-2.57-7.9z" fill="#5e5e5e"/><use xlink:href="#C" transform="matrix(1,0,0,1,2840.791618675572,4191.229742520657) translate(0 16.493055555555557)"/><use xlink:href="#D" transform="matrix(1,0,0,1,2840.791618675572,4191.229742520657) translate(85.80729166666667 16.493055555555557)"/><use xlink:href="#E" transform="matrix(1,0,0,1,2840.791618675572,4191.229742520657) translate(157.82986111111111 16.493055555555557)"/><use xlink:href="#F" transform="matrix(1,0,0,1,2840.791618675572,4191.229742520657) translate(178.68055555555554 16.493055555555557)"/><use xlink:href="#G" transform="matrix(1,0,0,1,2840.791618675572,4191.229742520657) translate(235.078125 16.493055555555557)"/><use xlink:href="#H" transform="matrix(1,0,0,1,2906.42095895335,4224.603318534281) translate(0 16.493055555555557)"/><use xlink:href="#I" transform="matrix(1,0,0,1,2906.42095895335,4224.603318534281) translate(77.734375 16.493055555555557)"/><use xlink:href="#J" transform="matrix(1,0,0,1,2853.6518617311276,4208.2313755842015) translate(0 16.493055555555557)"/><use xlink:href="#K" transform="matrix(1,0,0,1,2853.6518617311276,4208.2313755842015) translate(33.932291666666664 16.493055555555557)"/><use xlink:href="#L" transform="matrix(1,0,0,1,2853.6518617311276,4208.2313755842015) translate(91.55381944444444 16.493055555555557)"/><use xlink:href="#M" transform="matrix(1,0,0,1,2853.6518617311276,4208.2313755842015) translate(125.48611111111111 16.493055555555557)"/><use xlink:href="#N" transform="matrix(1,0,0,1,2853.6518617311276,4208.2313755842015) translate(216.92708333333334 16.493055555555557)"/><path d="M3002.7 3969.48l2.72 2.7.98 3.62v28.48h-3v-28.08l-.66-2.45-1.6-1.6-2.44-.65h-113.23v-3h113.63zM2801.5 3997h-3v-2.97h3z" fill="#5e5e5e"/><path d="M2801.5 3998.5h-3v-1.54h3z" fill="#5e5e5e"/><path d="M3004.9 4020.05l-4.64-14.27h9.28z" fill="#fff"/><path d="M3004.9 4024.9l-6.7-20.62h13.4zm-2.57-17.62l2.57 7.9 2.57-7.9z" fill="#5e5e5e"/><path d="M2929.8 4032.4c0-3.3 2.7-6 6-6h123.18c3.3 0 6 2.7 6 6v39.5c-22.58-7.6-36.63-7.6-45.15-7.6-13.52 0-31.5 7.6-45.02 7.6-8.37 0-22.56 0-45-7.6z" stroke="#5e5e5e" stroke-width="3" fill="#f9d2de"/><path d="M2937.3 4036.4c0-3.3 2.7-6 6-6h123.2c3.3 0 6 2.7 6 6v39.5c-22.6-7.6-36.64-7.6-45.16-7.6-13.52 0-31.5 7.6-45.02 7.6-8.38 0-22.57 0-45-7.6z" stroke="#5e5e5e" stroke-width="3" fill="#f9d2de"/><path d="M2944.82 4040.43c0-3.32 2.7-6 6-6H3074c3.3 0 6 2.68 6 6v39.5c-22.58-7.6-36.63-7.6-45.15-7.6-13.52 0-31.5 7.6-45.02 7.6-8.38 0-22.57 0-45-7.6z" stroke="#5e5e5e" stroke-width="3" fill="#f9d2de"/><g><use xlink:href="#O" transform="matrix(1,0,0,1,2949.82,4039.4283498866607) translate(2.922960069444457 26.801215277777768)"/><use xlink:href="#v" transform="matrix(1,0,0,1,2949.82,4039.4283498866607) translate(106.8552517361111 26.801215277777768)"/></g><path d="M2500 4031.23c0-3.32 2.7-6 6-6h123.18c3.3 0 6 2.68 6 6v41.5c-22.58-7.94-36.63-7.94-45.15-7.94-13.52 0-31.5 7.92-45.02 7.92-8.37 0-22.56 0-45-7.93z" stroke="#5e5e5e" stroke-width="3" fill="#d1bcd2"/><path d="M2507.5 4035.42c0-3.32 2.7-6 6-6h123.2c3.3 0 6 2.68 6 6v41.5c-22.6-7.94-36.64-7.94-45.16-7.94-13.52 0-31.5 7.93-45.02 7.93-8.38 0-22.57 0-45-7.92z" stroke="#5e5e5e" stroke-width="3" fill="#d1bcd2"/><path d="M2515.02 4039.6c0-3.3 2.7-6 6-6h123.18c3.3 0 6 2.7 6 6v41.5c-22.58-7.93-36.63-7.93-45.15-7.93-13.52 0-31.5 7.93-45.02 7.93-8.38 0-22.57 0-45-7.93z" stroke="#5e5e5e" stroke-width="3" fill="#d1bcd2"/><g><use xlink:href="#P" transform="matrix(1,0,0,1,2520.02,4038.6082811381525) translate(34.16048177083334 26.801215277777768)"/></g><path d="M2705 3971.5h-123.7l-2.45.66-1.6 1.6-.65 2.44v26.9h-3v-27.3l.98-3.6 2.7-2.72 3.62-.98H2705zm96.5 25.5h-3v-2.97h3z" fill="#5e5e5e"/><path d="M2801.5 3998.5h-3v-1.54h3z" fill="#5e5e5e"/><path d="M2575.1 4018.87l-4.64-14.26h9.28z" fill="#fff"/><path d="M2575.1 4023.73l-6.7-20.62h13.4zm-2.57-17.62l2.57 7.92 2.57-7.9z" fill="#5e5e5e"/><g><use xlink:href="#Q" transform="matrix(1,0,0,1,2705.000896713803,3959.5833333333335) translate(0 16.493055555555557)"/><use xlink:href="#R" transform="matrix(1,0,0,1,2705.000896713803,3959.5833333333335) translate(49.88715277777778 16.493055555555557)"/><use xlink:href="#S" transform="matrix(1,0,0,1,2705.000896713803,3959.5833333333335) translate(166.61458333333334 16.493055555555557)"/></g><g><use xlink:href="#T" transform="matrix(1,0,0,1,2673.042534721841,3973.196921534497) translate(0 16.493055555555557)"/><use xlink:href="#U" transform="matrix(1,0,0,1,2673.042534721841,3973.196921534497) translate(67.22222222222221 16.493055555555557)"/><use xlink:href="#V" transform="matrix(1,0,0,1,2673.042534721841,3973.196921534497) translate(86.31944444444443 16.493055555555557)"/><use xlink:href="#W" transform="matrix(1,0,0,1,2673.042534721841,3973.196921534497) translate(155.8506944444444 16.493055555555557)"/></g><defs><path fill="#333" d="M658-217c127 0 227-49 227-165 0-57-21-98-60-130-79-64-370-142-463-196-162-95-248-210-248-361 0-280 246-403 537-407 213-3 383 84 467 216 45 69 68 147 68 234H886c0-139-96-211-240-211-129 0-232 55-232 169 0 47 24 87 72 119s117 62 210 90c171 51 295 115 373 191s117 171 117 284c-2 272-237 411-528 404C331 13 78-135 69-458h301c0 161 96 241 288 241" id="X"/><path fill="#333" d="M552-1102c254-4 435 134 435 383v469c1 103 15 180 43 233V0H738c-13-26-23-58-29-97C639-19 548 20 436 20 238 20 64-113 68-304c5-258 212-357 496-357h133c11-137-29-227-160-227-90 0-156 45-156 131H92c15-231 213-342 460-345zM357-325c0 76 61 124 142 124 88 0 168-45 198-105v-186H589c-152 2-232 51-232 167" id="Y"/><path fill="#333" d="M516-353l201-729h302L654 0H378L13-1082h302" id="Z"/><path fill="#333" d="M1031-175C952-60 797 20 609 20 287 20 60-206 72-543c12-330 180-559 505-559 309 0 482 214 477 537v118H365c15 134 115 234 263 234 111 0 198-40 261-121zM770-644c5-139-62-226-194-224-130 1-191 97-208 224h402" id="aa"/><g id="a"><use transform="matrix(0.008680555555555556,0,0,0.008680555555555556,0,0)" xlink:href="#X"/><use transform="matrix(0.008680555555555556,0,0,0.008680555555555556,10.928819444444445,0)" xlink:href="#Y"/><use transform="matrix(0.008680555555555556,0,0,0.008680555555555556,20.32986111111111,0)" xlink:href="#Z"/><use transform="matrix(0.008680555555555556,0,0,0.008680555555555556,29.20138888888889,0)" xlink:href="#aa"/></g><path fill="#333" d="M719-811c-143-24-279 1-319 103V0H111v-1082h273l8 129c74-124 180-175 331-136" id="ab"/><path fill="#333" d="M416 0H126v-1082h290V0zM271-1212c-92 0-162-61-162-150s68-149 162-149c93 0 162 60 162 149s-70 150-162 150" id="ac"/><path fill="#333" d="M1052-393l142-689h279L1197 0H955L750-681 545 0H304L28-1082h279l141 688 198-688h209" id="ad"/><g id="b"><use transform="matrix(0.008680555555555556,0,0,0.008680555555555556,0,0)" xlink:href="#ab"/><use transform="matrix(0.008680555555555556,0,0,0.008680555555555556,6.319444444444445,0)" xlink:href="#aa"/><use transform="matrix(0.008680555555555556,0,0,0.008680555555555556,15.815972222222221,0)" xlink:href="#Z"/><use transform="matrix(0.008680555555555556,0,0,0.008680555555555556,24.800347222222225,0)" xlink:href="#ac"/><use transform="matrix(0.008680555555555556,0,0,0.008680555555555556,29.51388888888889,0)" xlink:href="#aa"/><use transform="matrix(0.008680555555555556,0,0,0.008680555555555556,39.123263888888886,0)" xlink:href="#ad"/></g><path fill="#333" d="M750-692c-1-124-48-174-173-175-81 0-142 35-183 104V0H105v-1082h272l9 125c77-97 181-145 311-145 244 0 342 151 342 403V0H750v-692" id="ae"/><path fill="#333" d="M579 20C257 20 58-214 66-551c8-331 182-551 511-551 324 0 514 231 514 572 0 319-198 550-512 550zm-2-888c-169 0-222 141-222 338 0 181 61 317 224 317 170 0 223-137 223-338 0-178-64-317-225-317" id="af"/><path fill="#333" d="M457-330c2 83 25 111 111 112 32 0 60-2 85-7V-6c-57 17-115 26-175 26-203 0-310-102-310-307v-583H10v-212h158v-266h289v266h185v212H457v540" id="ag"/><path fill="#333" d="M529-185c94 0 168-33 168-114 0-35-18-63-53-83s-91-39-168-55C219-491 90-600 90-765c0-208 203-337 432-337 246 0 451 124 453 349H686c-2-91-62-143-165-143-86 0-151 41-153 117 0 32 16 57 46 77 63 43 257 69 335 100 151 60 229 153 229 291C978-13 554 93 282-28 162-81 60-190 56-344h274c5 106 86 159 199 159" id="ah"/><g id="c"><use transform="matrix(0.008680555555555556,0,0,0.008680555555555556,0,0)" xlink:href="#ae"/><use transform="matrix(0.008680555555555556,0,0,0.008680555555555556,9.956597222222223,0)" xlink:href="#af"/><use transform="matrix(0.008680555555555556,0,0,0.008680555555555556,20.008680555555557,0)" xlink:href="#ag"/><use transform="matrix(0.008680555555555556,0,0,0.008680555555555556,26.015625,0)" xlink:href="#aa"/><use transform="matrix(0.008680555555555556,0,0,0.008680555555555556,35.625,0)" xlink:href="#ah"/></g><g id="d"><use transform="matrix(0.008680555555555556,0,0,0.008680555555555556,0,0)" xlink:href="#ag"/><use transform="matrix(0.008680555555555556,0,0,0.008680555555555556,5.746527777777778,0)" xlink:href="#af"/></g><path fill="#333" d="M449 0H149v-1456h300V0" id="ai"/><path fill="#333" d="M1245-974c0 302-233 466-552 461H430V0H130v-1456h568c323 5 547 167 547 482zm-303 2c1-143-93-241-237-241H430v457h268c151 1 244-71 244-216" id="aj"/><path fill="#333" d="M1006-595H430V0H130v-1456h948v243H430v376h576v242" id="ak"/><g id="e"><use transform="matrix(0.008680555555555556,0,0,0.008680555555555556,0,0)" xlink:href="#ai"/><use transform="matrix(0.008680555555555556,0,0,0.008680555555555556,5.182291666666667,0)" xlink:href="#aj"/><use transform="matrix(0.008680555555555556,0,0,0.008680555555555556,16.649305555555557,0)" xlink:href="#ak"/><use transform="matrix(0.008680555555555556,0,0,0.008680555555555556,26.388888888888893,0)" xlink:href="#X"/></g><path fill="#333" d="M687-225c189-1 272-84 286-260h300c-19 311-251 505-586 505C296 20 86-277 86-686c0-466 174-782 605-790 340-6 557 198 584 514H975c-15-183-92-268-284-268-100 0-173 38-225 108-63 84-76 264-76 443 0 157 24 272 72 345s122 109 225 109" id="al"/><path fill="#333" d="M416 0H126v-1536h290V0" id="am"/><path fill="#333" d="M741-689c-2-124-40-177-163-178-82 0-141 34-178 102V0H111v-1082h271l9 121c77-94 180-141 311-141 139 0 235 55 287 165 76-110 184-165 325-165 249 0 348 151 348 411V0h-290v-690c-2-123-39-176-163-177-87 0-147 41-180 124l1 743H741v-689" id="an"/><g id="f"><use transform="matrix(0.008680555555555556,0,0,0.008680555555555556,0,0)" xlink:href="#al"/><use transform="matrix(0.008680555555555556,0,0,0.008680555555555556,11.631944444444445,0)" xlink:href="#am"/><use transform="matrix(0.008680555555555556,0,0,0.008680555555555556,16.34548611111111,0)" xlink:href="#Y"/><use transform="matrix(0.008680555555555556,0,0,0.008680555555555556,25.87673611111111,0)" xlink:href="#ac"/><use transform="matrix(0.008680555555555556,0,0,0.008680555555555556,30.59027777777778,0)" xlink:href="#an"/></g><path fill="#333" d="M1248-1138c106 220 104 603 2 820-91 195-274 338-542 338C281 20 86-300 86-759c0-291 115-515 296-629 182-114 467-115 648 0 94 60 166 141 218 250zM940-344c111-153 110-617 0-765-57-77-133-119-234-119s-177 41-233 118c-64 88-83 240-83 415 0 149 27 264 82 346s133 123 236 123c101 0 176-40 232-118" id="ao"/><path fill="#333" d="M750-685c-1-124-48-182-173-182-85 0-146 33-184 98V0H104v-1536h289v572c77-92 173-138 289-138 235 0 357 136 357 409V0H750v-685" id="ap"/><path fill="#333" d="M663-1102c295 0 422 250 422 571 0 300-141 549-420 551-109 0-198-38-265-114v510H111v-1498h268l10 106c70-84 161-126 274-126zm133 550c0-175-53-315-209-315-91 0-153 35-187 104v443c35 71 98 107 189 107 138 0 207-113 207-339" id="aq"/><g id="g"><use transform="matrix(0.008680555555555556,0,0,0.008680555555555556,0,0)" xlink:href="#ao"/><use transform="matrix(0.008680555555555556,0,0,0.008680555555555556,12.274305555555555,0)" xlink:href="#ad"/><use transform="matrix(0.008680555555555556,0,0,0.008680555555555556,25.338541666666668,0)" xlink:href="#ae"/><use transform="matrix(0.008680555555555556,0,0,0.008680555555555556,35.29513888888889,0)" xlink:href="#aa"/><use transform="matrix(0.008680555555555556,0,0,0.008680555555555556,44.90451388888889,0)" xlink:href="#ab"/><use transform="matrix(0.008680555555555556,0,0,0.008680555555555556,51.38888888888889,0)" xlink:href="#ah"/><use transform="matrix(0.008680555555555556,0,0,0.008680555555555556,60.52951388888889,0)" xlink:href="#ap"/><use transform="matrix(0.008680555555555556,0,0,0.008680555555555556,70.47743055555556,0)" xlink:href="#ac"/><use transform="matrix(0.008680555555555556,0,0,0.008680555555555556,75.19097222222223,0)" xlink:href="#aq"/></g><path fill="#333" d="M1161-1018c0 201-122 330-278 388l342 618V0h-206L703-589H361V0H168v-1456h482c310-2 511 139 511 438zm-193 0c0-187-120-280-313-280H361v552h295c179 3 313-101 312-272" id="ar"/><path fill="#333" d="M599-131c141 0 220-65 285-146l113 88C906-50 770 20 589 20 281 21 93-214 93-545c0-223 93-397 233-485 74-48 154-72 240-72 300 2 449 218 445 537v77H278c0 197 129 357 321 357zm227-509c-3-180-88-310-260-310-170 0-264 140-282 310h542" id="as"/><path fill="#333" d="M538-131c121 0 232-49 232-156 0-50-20-88-56-117-73-60-334-92-420-143-92-55-162-110-162-238 0-190 192-317 400-317 223 0 414 129 413 338H759c0-108-110-186-227-186-119 0-215 53-215 159 0 45 18 78 53 101 76 52 331 90 416 139 98 57 169 115 169 251C955-92 760 20 538 20c-176 0-314-68-386-174-38-55-57-115-57-179h185c6 129 116 202 258 202" id="at"/><path fill="#333" d="M561-1102c238-4 403 126 403 351v498c0 99 13 178 38 237V0H808c-11-21-19-59-26-114C696-25 593 20 474 20c-199 0-368-130-365-320 4-251 214-359 490-356h180v-85c-1-135-86-212-229-212-115 0-232 67-233 171H131c20-205 206-316 430-320zM294-326c0 117 90 185 207 185 122 0 239-75 278-162v-222H634c-227 0-340 66-340 199" id="au"/><path fill="#333" d="M663-916c-163-27-288 18-338 148V0H140v-1082h180l3 125c61-97 147-145 258-145 36 0 63 5 82 14v172" id="av"/><path fill="#333" d="M277-555c0 244 77 420 297 424 127 2 249-93 255-210h175C980-127 805 20 574 20 258 20 81-222 92-562c11-319 164-533 481-540 237-5 426 165 431 392H829c-7-133-115-242-256-240-209 4-296 166-296 395" id="aw"/><path fill="#333" d="M589-945c-131 0-219 81-264 174V0H140v-1536h185v585c82-101 189-151 320-151 229 0 346 129 346 387V0H806v-716c-2-153-65-229-217-229" id="ax"/><g id="h"><use transform="matrix(0.014105902777777773,0,0,0.014105902777777773,0,0)" xlink:href="#ar"/><use transform="matrix(0.014105902777777773,0,0,0.014105902777777773,17.78754340277777,0)" xlink:href="#as"/><use transform="matrix(0.014105902777777773,0,0,0.014105902777777773,33.09244791666666,0)" xlink:href="#at"/><use transform="matrix(0.014105902777777773,0,0,0.014105902777777773,47.988281249999986,0)" xlink:href="#as"/><use transform="matrix(0.014105902777777773,0,0,0.014105902777777773,63.293185763888864,0)" xlink:href="#au"/><use transform="matrix(0.014105902777777773,0,0,0.014105902777777773,79.00716145833331,0)" xlink:href="#av"/><use transform="matrix(0.014105902777777773,0,0,0.014105902777777773,88.51453993055554,0)" xlink:href="#aw"/><use transform="matrix(0.014105902777777773,0,0,0.014105902777777773,103.63606770833331,0)" xlink:href="#ax"/><use transform="matrix(0.014105902777777773,0,0,0.014105902777777773,119.54752604166664,0)" xlink:href="#as"/><use transform="matrix(0.014105902777777773,0,0,0.014105902777777773,134.85243055555551,0)" xlink:href="#av"/></g><g id="i"><use transform="matrix(0.014105902777777773,0,0,0.014105902777777773,0,0)" xlink:href="#ar"/><use transform="matrix(0.014105902777777773,0,0,0.014105902777777773,17.78754340277777,0)" xlink:href="#as"/><use transform="matrix(0.014105902777777773,0,0,0.014105902777777773,33.09244791666666,0)" xlink:href="#at"/><use transform="matrix(0.014105902777777773,0,0,0.014105902777777773,47.988281249999986,0)" xlink:href="#as"/><use transform="matrix(0.014105902777777773,0,0,0.014105902777777773,63.293185763888864,0)" xlink:href="#au"/><use transform="matrix(0.014105902777777773,0,0,0.014105902777777773,79.00716145833331,0)" xlink:href="#av"/><use transform="matrix(0.014105902777777773,0,0,0.014105902777777773,88.51453993055554,0)" xlink:href="#aw"/><use transform="matrix(0.014105902777777773,0,0,0.014105902777777773,103.63606770833331,0)" xlink:href="#ax"/></g><path fill="#333" d="M703-1476c426 0 599 333 586 795-11 408-187 701-584 701-422 0-587-333-587-793 0-282 106-507 280-617 89-56 190-86 305-86zm2 1333c312 0 393-279 393-632 0-308-116-536-395-536-269 0-394 232-394 523v107c-4 298 123 538 396 538" id="ay"/><path fill="#333" d="M491 20c-241-1-355-148-355-398v-704h185v699c0 164 67 246 200 246 141 0 235-53 282-158v-787h185V0H812l-4-107C736-22 630 20 491 20" id="az"/><path fill="#333" d="M456 20C285 20 205-92 206-268v-671H9v-143h197v-262h185v262h202v143H391v671c-9 125 92 149 207 118V0c-49 13-96 20-142 20" id="aA"/><path fill="#333" d="M632-1102c291 0 422 251 422 573 0 297-141 548-419 549-131 0-235-42-310-125v521H140v-1498h169l9 120c75-93 180-140 314-140zm-53 971c207 0 290-180 290-419 0-218-92-395-292-395-112 0-196 50-252 149v517c55 99 140 148 254 148" id="aB"/><g id="j"><use transform="matrix(0.014105902777777773,0,0,0.014105902777777773,0,0)" xlink:href="#ay"/><use transform="matrix(0.014105902777777773,0,0,0.014105902777777773,19.861111111111104,0)" xlink:href="#az"/><use transform="matrix(0.014105902777777773,0,0,0.014105902777777773,35.78667534722221,0)" xlink:href="#aA"/><use transform="matrix(0.014105902777777773,0,0,0.014105902777777773,45.223524305555536,0)" xlink:href="#aB"/><use transform="matrix(0.014105902777777773,0,0,0.014105902777777773,61.4312065972222,0)" xlink:href="#az"/><use transform="matrix(0.014105902777777773,0,0,0.014105902777777773,77.3567708333333,0)" xlink:href="#aA"/></g><g id="k"><use transform="matrix(0.008680555555555556,0,0,0.008680555555555556,0,0)" xlink:href="#al"/><use transform="matrix(0.008680555555555556,0,0,0.008680555555555556,11.631944444444445,0)" xlink:href="#ab"/><use transform="matrix(0.008680555555555556,0,0,0.008680555555555556,17.95138888888889,0)" xlink:href="#aa"/><use transform="matrix(0.008680555555555556,0,0,0.008680555555555556,27.56076388888889,0)" xlink:href="#Y"/><use transform="matrix(0.008680555555555556,0,0,0.008680555555555556,37.092013888888886,0)" xlink:href="#ag"/><use transform="matrix(0.008680555555555556,0,0,0.008680555555555556,43.09895833333333,0)" xlink:href="#aa"/></g><path fill="#333" d="M375 0H183v-1456h192V0" id="aC"/><path fill="#333" d="M1216-1011c-1 297-202 441-512 441H361V0H169v-1456h537c297-6 510 164 510 445zm-192 2c1-178-126-288-307-289H361v571h345c196 1 318-92 318-282" id="aD"/><path fill="#333" d="M972-643H361V0H169v-1456h902v158H361v498h611v157" id="aE"/><path fill="#333" d="M631-137c179 0 314-70 314-231 0-71-25-127-75-166s-141-77-272-115c-165-47-285-106-360-175s-112-154-112-255c0-245 231-397 495-397 206 0 369 89 449 218 43 68 65 142 65 223H942c0-184-129-283-321-283-172 0-299 76-301 236 0 59 26 109 76 150s135 78 256 113c205 59 345 116 436 256 35 53 50 119 50 193-2 256-231 398-507 390C333 12 90-129 80-422h193c0 187 160 285 358 285" id="aF"/><g id="l"><use transform="matrix(0.014105902777777773,0,0,0.014105902777777773,0,0)" xlink:href="#aC"/><use transform="matrix(0.014105902777777773,0,0,0.014105902777777773,7.85698784722222,0)" xlink:href="#aD"/><use transform="matrix(0.014105902777777773,0,0,0.014105902777777773,26.0818142361111,0)" xlink:href="#aE"/><use transform="matrix(0.014105902777777773,0,0,0.014105902777777773,42.04969618055554,0)" xlink:href="#aF"/></g><path fill="#333" d="M202 125H-13l536-1581h215" id="aG"/><path fill="#333" d="M463 20c-241-1-359-147-359-393v-709h289v699c0 113 51 169 154 169 98 0 165-34 202-102v-766h290V0H767l-8-110C688-23 589 20 463 20" id="aH"/><path fill="#333" d="M663-1102c295 0 423 246 423 571 0 313-131 551-421 551-117 0-211-45-281-135L371 0H111v-1536h289v551c67-78 154-117 263-117zm-71 889c164 0 209-139 205-339-3-189-44-315-207-315-92 0-155 38-190 113v427c35 76 99 114 192 114" id="aI"/><g id="m"><use transform="matrix(0.008680555555555556,0,0,0.008680555555555556,0,0)" xlink:href="#X"/><use transform="matrix(0.008680555555555556,0,0,0.008680555555555556,10.928819444444445,0)" xlink:href="#ag"/><use transform="matrix(0.008680555555555556,0,0,0.008680555555555556,16.67534722222222,0)" xlink:href="#af"/><use transform="matrix(0.008680555555555556,0,0,0.008680555555555556,26.727430555555557,0)" xlink:href="#ab"/><use transform="matrix(0.008680555555555556,0,0,0.008680555555555556,33.046875,0)" xlink:href="#aa"/><use transform="matrix(0.008680555555555556,0,0,0.008680555555555556,42.65625,0)" xlink:href="#aG"/><use transform="matrix(0.008680555555555556,0,0,0.008680555555555556,49.296875,0)" xlink:href="#aj"/><use transform="matrix(0.008680555555555556,0,0,0.008680555555555556,60.763888888888886,0)" xlink:href="#aH"/><use transform="matrix(0.008680555555555556,0,0,0.008680555555555556,70.71180555555556,0)" xlink:href="#aI"/><use transform="matrix(0.008680555555555556,0,0,0.008680555555555556,80.72048611111111,0)" xlink:href="#am"/><use transform="matrix(0.008680555555555556,0,0,0.008680555555555556,85.43402777777779,0)" xlink:href="#ac"/><use transform="matrix(0.008680555555555556,0,0,0.008680555555555556,90.14756944444447,0)" xlink:href="#ah"/><use transform="matrix(0.008680555555555556,0,0,0.008680555555555556,99.28819444444447,0)" xlink:href="#ap"/></g><path fill="#333" d="M1160-420C1159-145 963 0 674 0H169v-1456h476c294-1 476 112 476 388 0 153-99 253-216 302 146 38 255 167 255 346zM678-157c171 2 289-95 289-261 0-175-95-263-286-263H361v524h317zm250-912c-2-172-104-229-283-229H361v463h290c157 3 278-84 277-234" id="aJ"/><path fill="#333" d="M341 0H156v-1536h185V0" id="aK"/><path fill="#333" d="M584 20C278 26 81-227 91-551c10-320 175-545 491-551 308-5 503 247 494 573-9 322-175 543-492 549zm-2-970c-208 0-305 185-305 421 0 216 106 398 307 398 211 0 307-186 307-420 0-214-109-399-309-399" id="aL"/><path fill="#333" d="M442-501L326-380V0H141v-1536h185v929c135-169 291-317 436-475h225L566-630 1036 0H819" id="aM"/><path fill="#333" d="M341 0H156v-1082h185V0zm-91-1264c-68 0-108-42-109-105 0-62 41-107 109-107s110 44 110 107-42 105-110 105" id="aN"/><path fill="#333" d="M589-945c-131 0-219 81-264 174V0H140v-1082h175l6 136c83-104 191-156 324-156 229 0 346 129 346 387V0H806v-716c-2-153-65-229-217-229" id="aO"/><g id="n"><use transform="matrix(0.014105902777777773,0,0,0.014105902777777773,0,0)" xlink:href="#aJ"/><use transform="matrix(0.014105902777777773,0,0,0.014105902777777773,17.98502604166666,0)" xlink:href="#aK"/><use transform="matrix(0.014105902777777773,0,0,0.014105902777777773,24.995659722222214,0)" xlink:href="#aL"/><use transform="matrix(0.014105902777777773,0,0,0.014105902777777773,41.47135416666666,0)" xlink:href="#aw"/><use transform="matrix(0.014105902777777773,0,0,0.014105902777777773,56.59288194444443,0)" xlink:href="#aM"/><use transform="matrix(0.014105902777777773,0,0,0.014105902777777773,70.9526909722222,0)" xlink:href="#aw"/><use transform="matrix(0.014105902777777773,0,0,0.014105902777777773,86.07421874999997,0)" xlink:href="#ax"/><use transform="matrix(0.014105902777777773,0,0,0.014105902777777773,101.9856770833333,0)" xlink:href="#au"/><use transform="matrix(0.014105902777777773,0,0,0.014105902777777773,117.69965277777774,0)" xlink:href="#aN"/><use transform="matrix(0.014105902777777773,0,0,0.014105902777777773,124.71028645833329,0)" xlink:href="#aO"/></g><path fill="#333" d="M1226-1213H780V0H480v-1213H40v-243h1186v243" id="aP"/><g id="o"><use transform="matrix(0.008680555555555556,0,0,0.008680555555555556,0,0)" xlink:href="#aP"/><use transform="matrix(0.008680555555555556,0,0,0.008680555555555556,10.99826388888889,0)" xlink:href="#ac"/><use transform="matrix(0.008680555555555556,0,0,0.008680555555555556,15.711805555555557,0)" xlink:href="#an"/><use transform="matrix(0.008680555555555556,0,0,0.008680555555555556,31.102430555555557,0)" xlink:href="#aa"/><use transform="matrix(0.008680555555555556,0,0,0.008680555555555556,40.71180555555556,0)" xlink:href="#ah"/><use transform="matrix(0.008680555555555556,0,0,0.008680555555555556,49.85243055555556,0)" xlink:href="#ag"/><use transform="matrix(0.008680555555555556,0,0,0.008680555555555556,55.859375,0)" xlink:href="#Y"/><use transform="matrix(0.008680555555555556,0,0,0.008680555555555556,65.390625,0)" xlink:href="#an"/><use transform="matrix(0.008680555555555556,0,0,0.008680555555555556,80.78125,0)" xlink:href="#aq"/></g><path fill="#333" d="M417-1456L893-268l476-1188h249V0h-192c-4-403 4-794 18-1179L966 0H819L342-1176c15 384 23 773 19 1176H169v-1456h248" id="aQ"/><g id="p"><use transform="matrix(0.014105902777777773,0,0,0.014105902777777773,0,0)" xlink:href="#aQ"/><use transform="matrix(0.014105902777777773,0,0,0.014105902777777773,25.221354166666657,0)" xlink:href="#au"/><use transform="matrix(0.014105902777777773,0,0,0.014105902777777773,40.9353298611111,0)" xlink:href="#aO"/><use transform="matrix(0.014105902777777773,0,0,0.014105902777777773,56.874999999999986,0)" xlink:href="#az"/><use transform="matrix(0.014105902777777773,0,0,0.014105902777777773,72.80056423611109,0)" xlink:href="#at"/><use transform="matrix(0.014105902777777773,0,0,0.014105902777777773,87.69639756944441,0)" xlink:href="#aw"/><use transform="matrix(0.014105902777777773,0,0,0.014105902777777773,102.81792534722219,0)" xlink:href="#av"/><use transform="matrix(0.014105902777777773,0,0,0.014105902777777773,112.59331597222219,0)" xlink:href="#aN"/><use transform="matrix(0.014105902777777773,0,0,0.014105902777777773,119.60394965277773,0)" xlink:href="#aB"/><use transform="matrix(0.014105902777777773,0,0,0.014105902777777773,135.8116319444444,0)" xlink:href="#aA"/></g><path fill="#333" d="M1264-420l196-1036h299L1436 0h-302L897-974 660 0H358L35-1456h299L531-422l240-1034h254" id="aR"/><g id="q"><use transform="matrix(0.008680555555555556,0,0,0.008680555555555556,0,0)" xlink:href="#aR"/><use transform="matrix(0.008680555555555556,0,0,0.008680555555555556,15.364583333333334,0)" xlink:href="#ab"/><use transform="matrix(0.008680555555555556,0,0,0.008680555555555556,21.848958333333336,0)" xlink:href="#ac"/><use transform="matrix(0.008680555555555556,0,0,0.008680555555555556,26.562500000000004,0)" xlink:href="#ag"/><use transform="matrix(0.008680555555555556,0,0,0.008680555555555556,32.56944444444445,0)" xlink:href="#aa"/></g><g id="r"><use transform="matrix(0.014105902777777773,0,0,0.014105902777777773,0,0)" xlink:href="#aD"/><use transform="matrix(0.014105902777777773,0,0,0.014105902777777773,18.04144965277777,0)" xlink:href="#as"/><use transform="matrix(0.014105902777777773,0,0,0.014105902777777773,33.34635416666666,0)" xlink:href="#as"/><use transform="matrix(0.014105902777777773,0,0,0.014105902777777773,48.65125868055554,0)" xlink:href="#av"/></g><path fill="#333" d="M497-251l268-831h189L566 0H425L33-1082h189" id="aS"/><path fill="#333" d="M1098-255l208-827h185L1176 0h-150L763-820 507 0H357L43-1082h184l213 810 252-810h149" id="aT"/><path fill="#333" d="M520 20C244 20 95-247 95-550c0-298 151-550 427-552 127 0 227 43 301 130v-564h185V0H838l-9-116C755-25 652 20 520 20zm48-965c-210 0-288 177-288 416 0 218 87 392 286 392 117 0 203-53 257-158v-497c-55-102-140-153-255-153" id="aU"/><g id="s"><use transform="matrix(0.014105902777777773,0,0,0.014105902777777773,0,0)" xlink:href="#ar"/><use transform="matrix(0.014105902777777773,0,0,0.014105902777777773,17.78754340277777,0)" xlink:href="#as"/><use transform="matrix(0.014105902777777773,0,0,0.014105902777777773,32.90907118055554,0)" xlink:href="#aS"/><use transform="matrix(0.014105902777777773,0,0,0.014105902777777773,46.90212673611109,0)" xlink:href="#aN"/><use transform="matrix(0.014105902777777773,0,0,0.014105902777777773,53.91276041666664,0)" xlink:href="#as"/><use transform="matrix(0.014105902777777773,0,0,0.014105902777777773,69.21766493055553,0)" xlink:href="#aT"/><use transform="matrix(0.014105902777777773,0,0,0.014105902777777773,90.92664930555551,0)" xlink:href="#as"/><use transform="matrix(0.014105902777777773,0,0,0.014105902777777773,106.2315538194444,0)" xlink:href="#aU"/></g><path fill="#333" d="M973-380H363L226 0H28l556-1456h168L1309 0h-197zM421-538h495l-248-681" id="aV"/><g id="t"><use transform="matrix(0.014105902777777773,0,0,0.014105902777777773,0,0)" xlink:href="#aV"/><use transform="matrix(0.014105902777777773,0,0,0.014105902777777773,18.845486111111104,0)" xlink:href="#av"/><use transform="matrix(0.014105902777777773,0,0,0.014105902777777773,29.32617187499999,0)" xlink:href="#aA"/><use transform="matrix(0.014105902777777773,0,0,0.014105902777777773,38.76302083333332,0)" xlink:href="#aN"/><use transform="matrix(0.014105902777777773,0,0,0.014105902777777773,45.77365451388887,0)" xlink:href="#aw"/><use transform="matrix(0.014105902777777773,0,0,0.014105902777777773,60.89518229166664,0)" xlink:href="#aK"/><use transform="matrix(0.014105902777777773,0,0,0.014105902777777773,67.9058159722222,0)" xlink:href="#as"/></g><g id="u"><use transform="matrix(0.014105902777777773,0,0,0.014105902777777773,0,0)" xlink:href="#ar"/><use transform="matrix(0.014105902777777773,0,0,0.014105902777777773,17.78754340277777,0)" xlink:href="#as"/><use transform="matrix(0.014105902777777773,0,0,0.014105902777777773,32.90907118055554,0)" xlink:href="#aS"/><use transform="matrix(0.014105902777777773,0,0,0.014105902777777773,46.90212673611109,0)" xlink:href="#aN"/><use transform="matrix(0.014105902777777773,0,0,0.014105902777777773,53.91276041666664,0)" xlink:href="#as"/><use transform="matrix(0.014105902777777773,0,0,0.014105902777777773,69.21766493055553,0)" xlink:href="#aT"/><use transform="matrix(0.014105902777777773,0,0,0.014105902777777773,90.92664930555551,0)" xlink:href="#as"/><use transform="matrix(0.014105902777777773,0,0,0.014105902777777773,106.2315538194444,0)" xlink:href="#av"/></g><path fill="#333" d="M729 0H543v-1233l-373 137v-168l530-199h29V0" id="aW"/><use transform="matrix(0.014105902777777773,0,0,0.014105902777777773,0,0)" xlink:href="#aW" id="v"/><path fill="#333" d="M569-1476c255 0 440 146 439 390 0 143-91 314-274 512L344-151h731V0H121v-133l504-560c75-85 125-155 155-207 105-184 6-424-211-424-183 0-293 113-291 297H93c-3-270 199-449 476-449" id="aX"/><use transform="matrix(0.014105902777777773,0,0,0.014105902777777773,0,0)" xlink:href="#aX" id="w"/><path fill="#333" d="M832-402c-1-179-119-264-303-265H390v-151h139c164 0 281-91 281-250 0-171-85-256-255-256-154 0-265 99-263 250H107c-4-235 205-402 448-402 266 0 444 150 440 412-2 148-109 272-229 317 147 45 249 158 251 341 3 262-197 426-461 426C299 20 91-135 94-384h186c-2 156 116 253 276 253 176 0 277-96 276-271" id="aY"/><use transform="matrix(0.014105902777777773,0,0,0.014105902777777773,0,0)" xlink:href="#aY" id="x"/><path fill="#333" d="M1209-1016c0 219-100 334-260 407l315 595V0H942L669-533H430V0H130v-1456h541c318-3 538 141 538 440zm-300 24c-1-144-85-221-238-221H430v437h242c144 2 238-77 237-216" id="aZ"/><path fill="#333" d="M355-556c-2 203 30 338 206 343 102 3 181-63 182-161h271C1001-128 821 17 566 20 242 24 66-212 66-554c0-320 184-548 498-548 262 0 451 167 450 423H743c-1-108-75-193-184-189-162 6-202 123-204 312" id="ba"/><path fill="#333" d="M488 20C204 20 66-234 66-549c0-305 140-551 424-553 105 0 192 39 261 118v-552h290V0H780l-14-115C694-25 601 20 488 20zM355-528c0 176 51 314 207 314 89 0 152-38 189-113v-427c-36-75-98-113-187-113-139 0-209 113-209 339" id="bb"/><g id="y"><use transform="matrix(0.008680555555555556,0,0,0.008680555555555556,0,0)" xlink:href="#aZ"/><use transform="matrix(0.008680555555555556,0,0,0.008680555555555556,11.345486111111112,0)" xlink:href="#aa"/><use transform="matrix(0.008680555555555556,0,0,0.008680555555555556,20.954861111111114,0)" xlink:href="#ba"/><use transform="matrix(0.008680555555555556,0,0,0.008680555555555556,30.22569444444445,0)" xlink:href="#af"/><use transform="matrix(0.008680555555555556,0,0,0.008680555555555556,40.277777777777786,0)" xlink:href="#ab"/><use transform="matrix(0.008680555555555556,0,0,0.008680555555555556,46.597222222222236,0)" xlink:href="#bb"/></g><g id="z"><use transform="matrix(0.008680555555555556,0,0,0.008680555555555556,0,0)" xlink:href="#bb"/><use transform="matrix(0.008680555555555556,0,0,0.008680555555555556,10.01736111111111,0)" xlink:href="#aa"/><use transform="matrix(0.008680555555555556,0,0,0.008680555555555556,19.62673611111111,0)" xlink:href="#ba"/><use transform="matrix(0.008680555555555556,0,0,0.008680555555555556,28.897569444444443,0)" xlink:href="#ac"/><use transform="matrix(0.008680555555555556,0,0,0.008680555555555556,33.61111111111111,0)" xlink:href="#ah"/><use transform="matrix(0.008680555555555556,0,0,0.008680555555555556,42.75173611111111,0)" xlink:href="#ac"/><use transform="matrix(0.008680555555555556,0,0,0.008680555555555556,47.46527777777777,0)" xlink:href="#af"/><use transform="matrix(0.008680555555555556,0,0,0.008680555555555556,57.51736111111111,0)" xlink:href="#ae"/></g><path fill="#333" d="M1212-428C1211-131 1004 0 696 0H130v-1456h510c318-1 539 108 539 399 0 155-89 264-208 308 141 33 242 151 241 321zM687-241c132 2 225-65 225-190 0-133-69-203-207-203H430v393h257zm192-786c0-145-86-186-239-186H430v367h222c151-3 227-63 227-181" id="bc"/><g id="A"><use transform="matrix(0.008680555555555556,0,0,0.008680555555555556,0,0)" xlink:href="#bc"/><use transform="matrix(0.008680555555555556,0,0,0.008680555555555556,11.345486111111112,0)" xlink:href="#aa"/><use transform="matrix(0.008680555555555556,0,0,0.008680555555555556,20.954861111111114,0)" xlink:href="#ba"/><use transform="matrix(0.008680555555555556,0,0,0.008680555555555556,30.22569444444445,0)" xlink:href="#af"/><use transform="matrix(0.008680555555555556,0,0,0.008680555555555556,40.277777777777786,0)" xlink:href="#an"/><use transform="matrix(0.008680555555555556,0,0,0.008680555555555556,55.668402777777786,0)" xlink:href="#aa"/><use transform="matrix(0.008680555555555556,0,0,0.008680555555555556,65.27777777777779,0)" xlink:href="#ah"/></g><path fill="#333" d="M952-300H426L326 0H7l542-1456h278L1372 0h-319zM507-543h364l-183-545" id="bd"/><g id="B"><use transform="matrix(0.008680555555555556,0,0,0.008680555555555556,0,0)" xlink:href="#bd"/><use transform="matrix(0.008680555555555556,0,0,0.008680555555555556,11.961805555555555,0)" xlink:href="#aq"/><use transform="matrix(0.008680555555555556,0,0,0.008680555555555556,21.97048611111111,0)" xlink:href="#aq"/><use transform="matrix(0.008680555555555556,0,0,0.008680555555555556,31.979166666666664,0)" xlink:href="#ab"/><use transform="matrix(0.008680555555555556,0,0,0.008680555555555556,38.15104166666666,0)" xlink:href="#af"/><use transform="matrix(0.008680555555555556,0,0,0.008680555555555556,48.072916666666664,0)" xlink:href="#Z"/><use transform="matrix(0.008680555555555556,0,0,0.008680555555555556,56.944444444444436,0)" xlink:href="#aa"/></g><g id="C"><use transform="matrix(0.008680555555555556,0,0,0.008680555555555556,0,0)" xlink:href="#al"/><use transform="matrix(0.008680555555555556,0,0,0.008680555555555556,11.631944444444445,0)" xlink:href="#af"/><use transform="matrix(0.008680555555555556,0,0,0.008680555555555556,21.68402777777778,0)" xlink:href="#an"/><use transform="matrix(0.008680555555555556,0,0,0.008680555555555556,37.07465277777778,0)" xlink:href="#aI"/><use transform="matrix(0.008680555555555556,0,0,0.008680555555555556,47.083333333333336,0)" xlink:href="#ac"/><use transform="matrix(0.008680555555555556,0,0,0.008680555555555556,51.796875,0)" xlink:href="#ae"/><use transform="matrix(0.008680555555555556,0,0,0.008680555555555556,61.75347222222222,0)" xlink:href="#aa"/><use transform="matrix(0.008680555555555556,0,0,0.008680555555555556,71.36284722222223,0)" xlink:href="#bb"/></g><path fill="#333" d="M504-434L400-330V0H111v-1536h289v851c106-137 222-264 333-397h347L689-631 1114 0H782" id="be"/><path fill="#333" d="M505 20C221 18 69-239 69-549c0-302 153-553 438-553 119 0 211 41 277 122l12-102h262V-36c-8 305-208 458-520 462-160 1-335-76-403-170L263 80c72 81 159 121 262 121 172 1 260-107 243-294C701-18 614 20 505 20zm76-887c-165 0-223 147-223 339 0 172 66 314 221 314 88 0 151-33 189-99v-455c-39-66-101-99-187-99" id="bf"/><g id="D"><use transform="matrix(0.008680555555555556,0,0,0.008680555555555556,0,0)" xlink:href="#aq"/><use transform="matrix(0.008680555555555556,0,0,0.008680555555555556,10.008680555555555,0)" xlink:href="#Y"/><use transform="matrix(0.008680555555555556,0,0,0.008680555555555556,19.539930555555557,0)" xlink:href="#ba"/><use transform="matrix(0.008680555555555556,0,0,0.008680555555555556,28.810763888888893,0)" xlink:href="#be"/><use transform="matrix(0.008680555555555556,0,0,0.008680555555555556,38.30729166666667,0)" xlink:href="#Y"/><use transform="matrix(0.008680555555555556,0,0,0.008680555555555556,47.83854166666667,0)" xlink:href="#bf"/><use transform="matrix(0.008680555555555556,0,0,0.008680555555555556,57.986111111111114,0)" xlink:href="#aa"/></g><path fill="#333" d="M190-1174c-11-296 244-440 544-363l-3 224c-24-6-53-9-88-9-109 0-163 51-163 153v87h215v212H480V0H190v-870H29v-212h161v-92" id="bg"/><g id="E"><use transform="matrix(0.008680555555555556,0,0,0.008680555555555556,0,0)" xlink:href="#af"/><use transform="matrix(0.008680555555555556,0,0,0.008680555555555556,10.052083333333334,0)" xlink:href="#bg"/></g><g id="F"><use transform="matrix(0.008680555555555556,0,0,0.008680555555555556,0,0)" xlink:href="#Y"/><use transform="matrix(0.008680555555555556,0,0,0.008680555555555556,9.53125,0)" xlink:href="#aH"/><use transform="matrix(0.008680555555555556,0,0,0.008680555555555556,19.479166666666668,0)" xlink:href="#ag"/><use transform="matrix(0.008680555555555556,0,0,0.008680555555555556,25.486111111111118,0)" xlink:href="#ap"/><use transform="matrix(0.008680555555555556,0,0,0.008680555555555556,35.434027777777786,0)" xlink:href="#af"/><use transform="matrix(0.008680555555555556,0,0,0.008680555555555556,45.48611111111112,0)" xlink:href="#ab"/></g><g id="G"><use transform="matrix(0.008680555555555556,0,0,0.008680555555555556,0,0)" xlink:href="#aq"/><use transform="matrix(0.008680555555555556,0,0,0.008680555555555556,10.008680555555555,0)" xlink:href="#ab"/><use transform="matrix(0.008680555555555556,0,0,0.008680555555555556,16.180555555555557,0)" xlink:href="#af"/><use transform="matrix(0.008680555555555556,0,0,0.008680555555555556,26.232638888888893,0)" xlink:href="#af"/><use transform="matrix(0.008680555555555556,0,0,0.008680555555555556,36.28472222222223,0)" xlink:href="#bg"/></g><g id="H"><use transform="matrix(0.008680555555555556,0,0,0.008680555555555556,0,0)" xlink:href="#aZ"/><use transform="matrix(0.008680555555555556,0,0,0.008680555555555556,11.345486111111112,0)" xlink:href="#aa"/><use transform="matrix(0.008680555555555556,0,0,0.008680555555555556,20.842013888888893,0)" xlink:href="#Z"/><use transform="matrix(0.008680555555555556,0,0,0.008680555555555556,29.826388888888893,0)" xlink:href="#ac"/><use transform="matrix(0.008680555555555556,0,0,0.008680555555555556,34.53993055555556,0)" xlink:href="#aa"/><use transform="matrix(0.008680555555555556,0,0,0.008680555555555556,44.14930555555556,0)" xlink:href="#ad"/><use transform="matrix(0.008680555555555556,0,0,0.008680555555555556,57.21354166666667,0)" xlink:href="#aa"/><use transform="matrix(0.008680555555555556,0,0,0.008680555555555556,66.82291666666667,0)" xlink:href="#ab"/></g><g id="I"><use transform="matrix(0.008680555555555556,0,0,0.008680555555555556,0,0)" xlink:href="#Y"/><use transform="matrix(0.008680555555555556,0,0,0.008680555555555556,9.53125,0)" xlink:href="#aq"/><use transform="matrix(0.008680555555555556,0,0,0.008680555555555556,19.539930555555557,0)" xlink:href="#aq"/><use transform="matrix(0.008680555555555556,0,0,0.008680555555555556,29.54861111111111,0)" xlink:href="#ab"/><use transform="matrix(0.008680555555555556,0,0,0.008680555555555556,35.720486111111114,0)" xlink:href="#af"/><use transform="matrix(0.008680555555555556,0,0,0.008680555555555556,45.642361111111114,0)" xlink:href="#Z"/><use transform="matrix(0.008680555555555556,0,0,0.008680555555555556,54.49652777777778,0)" xlink:href="#Y"/><use transform="matrix(0.008680555555555556,0,0,0.008680555555555556,64.02777777777777,0)" xlink:href="#am"/></g><g id="J"><use transform="matrix(0.008680555555555556,0,0,0.008680555555555556,0,0)" xlink:href="#Y"/><use transform="matrix(0.008680555555555556,0,0,0.008680555555555556,9.53125,0)" xlink:href="#ae"/><use transform="matrix(0.008680555555555556,0,0,0.008680555555555556,19.48784722222222,0)" xlink:href="#bb"/></g><g id="K"><use transform="matrix(0.008680555555555556,0,0,0.008680555555555556,0,0)" xlink:href="#bd"/><use transform="matrix(0.008680555555555556,0,0,0.008680555555555556,11.961805555555555,0)" xlink:href="#ab"/><use transform="matrix(0.008680555555555556,0,0,0.008680555555555556,18.880208333333336,0)" xlink:href="#ag"/><use transform="matrix(0.008680555555555556,0,0,0.008680555555555556,24.88715277777778,0)" xlink:href="#ac"/><use transform="matrix(0.008680555555555556,0,0,0.008680555555555556,29.600694444444446,0)" xlink:href="#ba"/><use transform="matrix(0.008680555555555556,0,0,0.008680555555555556,38.87152777777778,0)" xlink:href="#am"/><use transform="matrix(0.008680555555555556,0,0,0.008680555555555556,43.58506944444444,0)" xlink:href="#aa"/></g><g id="L"><use transform="matrix(0.008680555555555556,0,0,0.008680555555555556,0,0)" xlink:href="#Y"/><use transform="matrix(0.008680555555555556,0,0,0.008680555555555556,9.53125,0)" xlink:href="#ae"/><use transform="matrix(0.008680555555555556,0,0,0.008680555555555556,19.48784722222222,0)" xlink:href="#bb"/></g><g id="M"><use transform="matrix(0.008680555555555556,0,0,0.008680555555555556,0,0)" xlink:href="#Y"/><use transform="matrix(0.008680555555555556,0,0,0.008680555555555556,9.53125,0)" xlink:href="#ah"/><use transform="matrix(0.008680555555555556,0,0,0.008680555555555556,18.671875,0)" xlink:href="#ah"/><use transform="matrix(0.008680555555555556,0,0,0.008680555555555556,27.8125,0)" xlink:href="#af"/><use transform="matrix(0.008680555555555556,0,0,0.008680555555555556,37.864583333333336,0)" xlink:href="#ba"/><use transform="matrix(0.008680555555555556,0,0,0.008680555555555556,47.13541666666667,0)" xlink:href="#ac"/><use transform="matrix(0.008680555555555556,0,0,0.008680555555555556,51.848958333333336,0)" xlink:href="#Y"/><use transform="matrix(0.008680555555555556,0,0,0.008680555555555556,61.380208333333336,0)" xlink:href="#ag"/><use transform="matrix(0.008680555555555556,0,0,0.008680555555555556,67.38715277777779,0)" xlink:href="#aa"/><use transform="matrix(0.008680555555555556,0,0,0.008680555555555556,76.99652777777779,0)" xlink:href="#bb"/></g><g id="N"><use transform="matrix(0.008680555555555556,0,0,0.008680555555555556,0,0)" xlink:href="#bb"/><use transform="matrix(0.008680555555555556,0,0,0.008680555555555556,10.01736111111111,0)" xlink:href="#Y"/><use transform="matrix(0.008680555555555556,0,0,0.008680555555555556,19.54861111111111,0)" xlink:href="#ag"/><use transform="matrix(0.008680555555555556,0,0,0.008680555555555556,25.555555555555557,0)" xlink:href="#Y"/></g><path fill="#333" d="M512-137c164 0 267-115 267-285v-1034h193v1031c4 276-186 445-460 445C234 20 52-130 53-402h192c0 167 97 265 267 265" id="bh"/><g id="O"><use transform="matrix(0.014105902777777773,0,0,0.014105902777777773,0,0)" xlink:href="#bh"/><use transform="matrix(0.014105902777777773,0,0,0.014105902777777773,15.939670138888884,0)" xlink:href="#aL"/><use transform="matrix(0.014105902777777773,0,0,0.014105902777777773,32.41536458333332,0)" xlink:href="#az"/><use transform="matrix(0.014105902777777773,0,0,0.014105902777777773,48.34092881944443,0)" xlink:href="#av"/><use transform="matrix(0.014105902777777773,0,0,0.014105902777777773,58.11631944444442,0)" xlink:href="#aO"/><use transform="matrix(0.014105902777777773,0,0,0.014105902777777773,74.05598958333331,0)" xlink:href="#au"/><use transform="matrix(0.014105902777777773,0,0,0.014105902777777773,89.76996527777776,0)" xlink:href="#aK"/></g><path fill="#333" d="M521 20C240 20 96-239 96-550c0-303 147-552 427-552 132 0 235 47 309 140l9-120h169V-26c4 277-183 454-459 452-165-1-334-81-400-187l96-111c79 98 176 147 291 147 180 1 288-109 286-290v-93C750-23 649 20 521 20zm48-965c-209 0-287 178-287 416 0 217 86 392 285 392 117 0 202-53 257-159v-494c-57-103-142-155-255-155" id="bi"/><g id="P"><use transform="matrix(0.014105902777777773,0,0,0.014105902777777773,0,0)" xlink:href="#aJ"/><use transform="matrix(0.014105902777777773,0,0,0.014105902777777773,17.98502604166666,0)" xlink:href="#aK"/><use transform="matrix(0.014105902777777773,0,0,0.014105902777777773,24.995659722222214,0)" xlink:href="#aL"/><use transform="matrix(0.014105902777777773,0,0,0.014105902777777773,41.47135416666666,0)" xlink:href="#bi"/></g><g id="Q"><use transform="matrix(0.008680555555555556,0,0,0.008680555555555556,0,0)" xlink:href="#X"/><use transform="matrix(0.008680555555555556,0,0,0.008680555555555556,10.928819444444445,0)" xlink:href="#Y"/><use transform="matrix(0.008680555555555556,0,0,0.008680555555555556,20.460069444444443,0)" xlink:href="#an"/><use transform="matrix(0.008680555555555556,0,0,0.008680555555555556,35.85069444444444,0)" xlink:href="#aa"/></g><g id="R"><use transform="matrix(0.008680555555555556,0,0,0.008680555555555556,0,0)" xlink:href="#bg"/><use transform="matrix(0.008680555555555556,0,0,0.008680555555555556,6.371527777777778,0)" xlink:href="#ac"/><use transform="matrix(0.008680555555555556,0,0,0.008680555555555556,11.085069444444445,0)" xlink:href="#am"/><use transform="matrix(0.008680555555555556,0,0,0.008680555555555556,15.79861111111111,0)" xlink:href="#aa"/><use transform="matrix(0.008680555555555556,0,0,0.008680555555555556,25.40798611111111,0)" xlink:href="#aG"/><use transform="matrix(0.008680555555555556,0,0,0.008680555555555556,32.048611111111114,0)" xlink:href="#bb"/><use transform="matrix(0.008680555555555556,0,0,0.008680555555555556,42.06597222222223,0)" xlink:href="#af"/><use transform="matrix(0.008680555555555556,0,0,0.008680555555555556,52.118055555555564,0)" xlink:href="#ba"/><use transform="matrix(0.008680555555555556,0,0,0.008680555555555556,61.3888888888889,0)" xlink:href="#aH"/><use transform="matrix(0.008680555555555556,0,0,0.008680555555555556,71.33680555555557,0)" xlink:href="#an"/><use transform="matrix(0.008680555555555556,0,0,0.008680555555555556,86.72743055555557,0)" xlink:href="#aa"/><use transform="matrix(0.008680555555555556,0,0,0.008680555555555556,96.33680555555557,0)" xlink:href="#ae"/><use transform="matrix(0.008680555555555556,0,0,0.008680555555555556,106.2934027777778,0)" xlink:href="#ag"/></g><g id="S"><use transform="matrix(0.008680555555555556,0,0,0.008680555555555556,0,0)" xlink:href="#ac"/><use transform="matrix(0.008680555555555556,0,0,0.008680555555555556,4.713541666666667,0)" xlink:href="#ah"/></g><path fill="#333" d="M523-759l182-323h309L706-552 1027 0H717L524-340 332 0H21l321-552-307-530h310" id="bj"/><g id="T"><use transform="matrix(0.008680555555555556,0,0,0.008680555555555556,0,0)" xlink:href="#ac"/><use transform="matrix(0.008680555555555556,0,0,0.008680555555555556,4.713541666666667,0)" xlink:href="#ae"/><use transform="matrix(0.008680555555555556,0,0,0.008680555555555556,14.67013888888889,0)" xlink:href="#bb"/><use transform="matrix(0.008680555555555556,0,0,0.008680555555555556,24.6875,0)" xlink:href="#aa"/><use transform="matrix(0.008680555555555556,0,0,0.008680555555555556,34.296875,0)" xlink:href="#bj"/><use transform="matrix(0.008680555555555556,0,0,0.008680555555555556,43.16840277777777,0)" xlink:href="#aa"/><use transform="matrix(0.008680555555555556,0,0,0.008680555555555556,52.77777777777777,0)" xlink:href="#bb"/></g><g id="U"><use transform="matrix(0.008680555555555556,0,0,0.008680555555555556,0,0)" xlink:href="#ac"/><use transform="matrix(0.008680555555555556,0,0,0.008680555555555556,4.713541666666667,0)" xlink:href="#ae"/></g><g id="V"><use transform="matrix(0.008680555555555556,0,0,0.008680555555555556,0,0)" xlink:href="#an"/><use transform="matrix(0.008680555555555556,0,0,0.008680555555555556,15.390625,0)" xlink:href="#aH"/><use transform="matrix(0.008680555555555556,0,0,0.008680555555555556,25.338541666666668,0)" xlink:href="#am"/><use transform="matrix(0.008680555555555556,0,0,0.008680555555555556,30.052083333333336,0)" xlink:href="#ag"/><use transform="matrix(0.008680555555555556,0,0,0.008680555555555556,36.05902777777778,0)" xlink:href="#ac"/><use transform="matrix(0.008680555555555556,0,0,0.008680555555555556,40.77256944444444,0)" xlink:href="#aq"/><use transform="matrix(0.008680555555555556,0,0,0.008680555555555556,50.78125,0)" xlink:href="#am"/><use transform="matrix(0.008680555555555556,0,0,0.008680555555555556,55.494791666666664,0)" xlink:href="#aa"/></g><g id="W"><use transform="matrix(0.008680555555555556,0,0,0.008680555555555556,0,0)" xlink:href="#aq"/><use transform="matrix(0.008680555555555556,0,0,0.008680555555555556,10.008680555555555,0)" xlink:href="#aH"/><use transform="matrix(0.008680555555555556,0,0,0.008680555555555556,19.95659722222222,0)" xlink:href="#aI"/><use transform="matrix(0.008680555555555556,0,0,0.008680555555555556,29.96527777777778,0)" xlink:href="#am"/><use transform="matrix(0.008680555555555556,0,0,0.008680555555555556,34.67881944444444,0)" xlink:href="#ac"/><use transform="matrix(0.008680555555555556,0,0,0.008680555555555556,39.39236111111111,0)" xlink:href="#ba"/><use transform="matrix(0.008680555555555556,0,0,0.008680555555555556,48.66319444444445,0)" xlink:href="#Y"/><use transform="matrix(0.008680555555555556,0,0,0.008680555555555556,58.194444444444436,0)" xlink:href="#ag"/><use transform="matrix(0.008680555555555556,0,0,0.008680555555555556,64.20138888888889,0)" xlink:href="#ac"/><use transform="matrix(0.008680555555555556,0,0,0.008680555555555556,68.91493055555556,0)" xlink:href="#af"/><use transform="matrix(0.008680555555555556,0,0,0.008680555555555556,78.96701388888889,0)" xlink:href="#ae"/><use transform="matrix(0.008680555555555556,0,0,0.008680555555555556,88.92361111111111,0)" xlink:href="#ah"/></g></defs></g></svg>