<?xml version="1.0" encoding="UTF-8" standalone="no"?>
<svg
   xmlns:dc="http://purl.org/dc/elements/1.1/"
   xmlns:cc="http://creativecommons.org/ns#"
   xmlns:rdf="http://www.w3.org/1999/02/22-rdf-syntax-ns#"
   xmlns:svg="http://www.w3.org/2000/svg"
   xmlns="http://www.w3.org/2000/svg"
   xmlns:sodipodi="http://sodipodi.sourceforge.net/DTD/sodipodi-0.dtd"
   xmlns:inkscape="http://www.inkscape.org/namespaces/inkscape"
   version="1.1"
   id="Layer_1"
   x="0px"
   y="0px"
   viewBox="0 0 467 305"
   xml:space="preserve"
   sodipodi:docname="space-07.svg"
   width="467"
   height="305"
   inkscape:version="1.0.1 (3bc2e813f5, 2020-09-07)"><metadata
   id="metadata109"><rdf:RDF><cc:Work
       rdf:about=""><dc:format>image/svg+xml</dc:format><dc:type
         rdf:resource="http://purl.org/dc/dcmitype/StillImage" /><dc:title></dc:title></cc:Work></rdf:RDF></metadata><defs
   id="defs107" /><sodipodi:namedview
   pagecolor="#ffffff"
   bordercolor="#666666"
   borderopacity="1"
   objecttolerance="10"
   gridtolerance="10"
   guidetolerance="10"
   inkscape:pageopacity="0"
   inkscape:pageshadow="2"
   inkscape:window-width="1920"
   inkscape:window-height="1009"
   id="namedview105"
   showgrid="false"
   inkscape:zoom="0.71386719"
   inkscape:cx="-45.655743"
   inkscape:cy="69.706398"
   inkscape:window-x="1920"
   inkscape:window-y="27"
   inkscape:window-maximized="1"
   inkscape:current-layer="Layer_1" />
<style
   type="text/css"
   id="style2">
	.st0{fill:#FFD878;}
	.st1{fill:none;stroke:#F2AC3B;stroke-width:10.5777;stroke-linecap:round;stroke-miterlimit:10;}
	.st2{fill:#BCBCBC;}
	.st3{fill:#191A23;}
	.st4{opacity:0.1;}
	.st5{fill:#0D68A0;}
	.st6{fill:none;stroke:#191A23;stroke-width:10.5777;stroke-linecap:round;stroke-miterlimit:10;}
	.st7{fill:#DBDBDB;}
	.st8{fill:#9FC628;}
	.st9{fill:none;stroke:#191A23;stroke-width:10.5777;stroke-linecap:round;stroke-miterlimit:10;stroke-dasharray:0,29.9467;}
	.st10{fill:#52BFD1;}
	.st11{opacity:0.2;fill:#FFFFFF;}
</style>
<g
   id="g102"
   transform="translate(-18,-104)">
	<g
   id="g6">
		<polygon
   class="st0"
   points="315.5,269.69 188.12,269.69 162.52,405.35 341.09,405.35 "
   id="polygon4" />
	</g>
	<line
   class="st1"
   x1="189.7"
   y1="355.19"
   x2="195.48"
   y2="324.57001"
   id="line8" />
	<line
   class="st1"
   x1="317.10001"
   y1="378.26999"
   x2="308.17001"
   y2="330.92001"
   id="line10" />
	<line
   class="st1"
   x1="184.44"
   y1="383.10001"
   x2="185.53999"
   y2="377.22"
   id="line12" />
	<g
   id="g20">
		<path
   class="st2"
   d="m 252,319.75 c -55.92,0 -101.41,-45.49 -101.41,-101.41 v -5.29 h 202.83 v 5.29 C 353.41,274.25 307.91,319.75 252,319.75 Z"
   id="path14" />
		<g
   id="g18">
			<path
   class="st3"
   d="m 348.12,218.33 c 0,53.09 -43.04,96.12 -96.12,96.12 -53.09,0 -96.12,-43.04 -96.12,-96.12 H 348.12 M 358.7,207.76 H 348.12 155.87 145.29 v 10.58 c 0,58.84 47.87,106.7 106.7,106.7 58.84,0 106.7,-47.87 106.7,-106.7 v -10.58 z"
   id="path16" />
		</g>
	</g>
	<g
   class="st4"
   id="g24">
		<path
   class="st3"
   d="m 252,302.94 c -49.19,0 -89.74,-36.95 -95.43,-84.61 h -0.69 c 0,53.09 43.04,96.12 96.12,96.12 53.09,0 96.12,-43.04 96.12,-96.12 h -0.69 c -5.69,47.66 -46.25,84.61 -95.43,84.61 z"
   id="path22" />
	</g>
	<g
   class="st4"
   id="g28">
		<path
   class="st3"
   d="m 181.91,284.11 h 140.17 c 16.15,-17.2 26.04,-40.33 26.04,-65.78 H 155.87 c 0,25.45 9.9,48.59 26.04,65.78 z"
   id="path26" />
	</g>
	<g
   id="g34">
		<path
   class="st5"
   d="m 169.57,201.26 -0.05,-5.96 c 0,-45.48 37,-82.48 82.48,-82.48 45.48,0 82.48,37 82.48,82.48 l -0.05,5.96 z"
   id="path30" />
		<path
   class="st3"
   d="m 252,118.11 c 42.63,0 77.19,34.56 77.19,77.19 0,0.22 -0.01,0.45 -0.01,0.67 H 174.81 c 0,-0.22 -0.01,-0.45 -0.01,-0.67 0.01,-42.63 34.56,-77.19 77.2,-77.19 m 0,-10.58 c -48.39,0 -87.77,39.37 -87.77,87.77 0,0.19 0,0.38 0.01,0.58 v 0.19 l 0.09,10.49 h 10.49 154.36 10.49 l 0.09,-10.49 v -0.19 c 0,-0.19 0.01,-0.38 0.01,-0.57 -0.01,-48.4 -39.38,-87.78 -87.77,-87.78 z"
   id="path32" />
	</g>
	<path
   class="st6"
   d="m 198.86,157.54 c 4.69,-6.88 10.56,-12.86 17.29,-17.68"
   id="path36" />
	<g
   class="st4"
   id="g40">
		<path
   class="st3"
   d="m 252,118.11 c -1.94,0 -3.86,0.07 -5.76,0.21 39.94,2.95 71.43,36.28 71.43,76.98 0,0.22 -0.01,0.45 -0.01,0.67 h 11.52 c 0,-0.22 0.01,-0.45 0.01,-0.67 -0.01,-42.63 -34.56,-77.19 -77.19,-77.19 z"
   id="path38" />
	</g>
	<g
   id="g48">
		<path
   class="st7"
   d="m 46.5,272.91 c -8.78,0 -16.01,-5.46 -18.41,-13.91 -2.4,-8.45 0.88,-16.89 8.34,-21.51 l 0.21,-0.13 140.38,-69.53 2.08,0.7 c 21.43,7.26 46.57,11.1 72.7,11.1 26.13,0 51.26,-3.84 72.7,-11.1 l 2.08,-0.7 140.38,69.53 0.21,0.13 c 7.47,4.62 10.75,13.06 8.34,21.51 -2.41,8.45 -9.62,13.91 -18.41,13.91 z"
   id="path42" />
		<g
   id="g46">
			<path
   class="st3"
   d="M 326.2,173.55 464.39,242 c 11.86,7.33 6.67,25.62 -7.28,25.62 H 46.5 c -13.95,0 -19.14,-18.29 -7.28,-25.62 l 138.19,-68.45 c 21.19,7.18 46.8,11.38 74.39,11.38 27.6,-0.01 53.21,-4.2 74.4,-11.38 m 0.76,-11.43 -4.16,1.41 c -20.89,7.08 -45.44,10.82 -71,10.82 -25.56,0 -50.11,-3.74 -71,-10.82 l -4.16,-1.41 -3.93,1.95 -138.18,68.45 -0.44,0.22 -0.43,0.26 c -9.39,5.8 -13.67,16.83 -10.65,27.45 3.02,10.62 12.46,17.75 23.49,17.75 h 410.6 c 11.04,0 20.48,-7.13 23.49,-17.75 3.02,-10.62 -1.26,-21.65 -10.65,-27.45 l -0.42,-0.26 -0.44,-0.22 -138.19,-68.45 z"
   id="path44" />
		</g>
	</g>
	<g
   id="g56">
		<path
   class="st8"
   d="m 251.81,215.96 c -40.21,0 -78.76,-7.76 -108.53,-21.84 l -9.88,-4.67 43.63,-21.61 2.08,0.7 c 21.43,7.26 46.57,11.1 72.7,11.1 26.13,0 51.26,-3.84 72.7,-11.1 l 2.08,-0.7 43.64,21.61 -9.88,4.67 c -29.79,14.09 -68.33,21.84 -108.54,21.84 z"
   id="path50" />
		<g
   id="g54">
			<path
   class="st3"
   d="m 326.2,173.55 31.88,15.79 c -29.12,13.77 -66.71,21.34 -106.27,21.34 -39.56,0 -77.15,-7.56 -106.27,-21.34 l 31.88,-15.79 c 21.19,7.18 46.8,11.37 74.39,11.37 27.59,0 53.2,-4.19 74.39,-11.37 m 0.76,-11.43 -4.16,1.41 c -20.89,7.08 -45.44,10.82 -71,10.82 -25.56,0 -50.11,-3.74 -71,-10.82 l -4.16,-1.41 -3.93,1.95 -31.88,15.79 -19.58,9.7 19.75,9.34 c 30.47,14.41 69.82,22.35 110.8,22.35 40.98,0 80.32,-7.94 110.8,-22.35 l 19.75,-9.34 -19.58,-9.7 -31.88,-15.79 z"
   id="path52" />
		</g>
	</g>
	<g
   id="g66">
		<g
   id="g64">
			<line
   class="st6"
   x1="340.37"
   y1="182.13"
   x2="340.37"
   y2="182.13"
   id="line58" />
			<path
   class="st9"
   d="m 311.5,190.04 c -18.36,3.82 -38.53,5.94 -59.7,5.94 -26.76,0 -51.93,-3.38 -73.87,-9.32"
   id="path60" />
			<line
   class="st6"
   x1="163.62"
   y1="182.25999"
   x2="163.62"
   y2="182.25999"
   id="line62" />
		</g>
	</g>
	<g
   id="g70">
		<path
   class="st10"
   d="m 39.22,241.99 c -11.86,7.33 -6.67,25.62 7.28,25.62 h 410.6 c 13.95,0 19.14,-18.29 7.28,-25.62 l -4.81,-2.38 H 44.03 Z"
   id="path68" />
	</g>
	<g
   class="st4"
   id="g74">
		<path
   class="st3"
   d="m 33.02,256.9 c 1.35,5.78 6.23,10.72 13.48,10.72 h 410.6 c 7.25,0 12.13,-4.94 13.48,-10.72 z"
   id="path72" />
	</g>
	<g
   class="st4"
   id="g84">
		<g
   id="g78">
			<path
   class="st3"
   d="m 269.08,184.92 c 23.1,0 44.8,-2.95 63.69,-8.12 l -6.57,-3.25 c -18.96,6.42 -41.46,10.45 -65.76,11.23 2.86,0.09 5.74,0.14 8.64,0.14 z"
   id="path76" />
		</g>
		<g
   id="g82">
			<path
   class="st3"
   d="M 56.5,241.99 188.12,176.8 c -3.67,-1.01 -7.25,-2.09 -10.7,-3.25 l -138.2,68.44 c -11.86,7.33 -6.67,25.62 7.28,25.62 H 63.77 C 49.83,267.62 44.64,249.33 56.5,241.99 Z"
   id="path80" />
		</g>
	</g>
	<g
   class="st4"
   id="g94">
		<g
   id="g88">
			<path
   class="st3"
   d="m 234.53,184.92 c 2.9,0 5.78,-0.06 8.64,-0.15 -24.29,-0.78 -46.8,-4.81 -65.76,-11.23 l -6.57,3.25 c 18.89,5.18 40.59,8.13 63.69,8.13 z"
   id="path86" />
		</g>
		<g
   id="g92">
			<path
   class="st3"
   d="M 464.39,241.99 326.2,173.55 c -3.45,1.17 -7.03,2.25 -10.7,3.25 l 131.62,65.19 c 11.86,7.33 6.67,25.62 -7.28,25.62 h 17.27 c 13.95,0.01 19.14,-18.28 7.28,-25.62 z"
   id="path90" />
		</g>
	</g>
	<ellipse
   class="st11"
   cx="251.81"
   cy="133.95"
   rx="24.469999"
   ry="10.69"
   id="ellipse96" />
	<line
   class="st1"
   x1="251.81"
   y1="339.42999"
   x2="251.81"
   y2="357.13"
   id="line98" />
	<line
   class="st1"
   x1="251.81"
   y1="379.35999"
   x2="251.81"
   y2="386.13"
   id="line100" />
</g>
</svg>
