<?xml version="1.0" encoding="UTF-8" standalone="no"?>
<svg
   xmlns:dc="http://purl.org/dc/elements/1.1/"
   xmlns:cc="http://creativecommons.org/ns#"
   xmlns:rdf="http://www.w3.org/1999/02/22-rdf-syntax-ns#"
   xmlns:svg="http://www.w3.org/2000/svg"
   xmlns="http://www.w3.org/2000/svg"
   xmlns:xlink="http://www.w3.org/1999/xlink"
   xmlns:sodipodi="http://sodipodi.sourceforge.net/DTD/sodipodi-0.dtd"
   xmlns:inkscape="http://www.inkscape.org/namespaces/inkscape"
   version="1.1"
   id="Layer_1"
   x="0px"
   y="0px"
   viewBox="0 0 466 320"
   xml:space="preserve"
   sodipodi:docname="planet-2.svg"
   width="466"
   height="320"
   inkscape:version="1.0.1 (3bc2e813f5, 2020-09-07)"><metadata
   id="metadata101"><rdf:RDF><cc:Work
       rdf:about=""><dc:format>image/svg+xml</dc:format><dc:type
         rdf:resource="http://purl.org/dc/dcmitype/StillImage" /><dc:title /></cc:Work></rdf:RDF></metadata><defs
   id="defs99" /><sodipodi:namedview
   pagecolor="#ffffff"
   bordercolor="#666666"
   borderopacity="1"
   objecttolerance="10"
   gridtolerance="10"
   guidetolerance="10"
   inkscape:pageopacity="0"
   inkscape:pageshadow="2"
   inkscape:window-width="1920"
   inkscape:window-height="947"
   id="namedview97"
   showgrid="false"
   inkscape:zoom="1.4277344"
   inkscape:cx="287.20391"
   inkscape:cy="203.75355"
   inkscape:window-x="1920"
   inkscape:window-y="27"
   inkscape:window-maximized="1"
   inkscape:current-layer="Layer_1"
   inkscape:document-rotation="0" />
<style
   type="text/css"
   id="style2">
	.st0{fill:#CAE9FB;}
	.st1{fill:#191A23;}
	.st2{clip-path:url(#SVGID_2_);}
	.st3{fill:none;stroke:#6ECFE5;stroke-width:16.9243;stroke-linecap:round;stroke-miterlimit:10;}
	.st4{fill:#6ECFE5;}
	.st5{opacity:0.1;}
	.st6{opacity:0.2;fill:#FFFFFF;}
	.st7{fill:none;stroke:#191A23;stroke-width:10.5777;stroke-linecap:round;stroke-miterlimit:10;}
	.st8{fill:#0D68A0;}
	.st9{fill:#F2AC3B;}
</style>
<g
   id="g94"
   transform="translate(-20,-80)">
	<g
   id="g10">
		<circle
   class="st0"
   cx="254.07001"
   cy="240.7"
   r="153.03"
   id="circle4" />
		<g
   id="g8">
			<path
   class="st1"
   d="m 254.07,92.96 c 81.59,0 147.74,66.14 147.74,147.74 0,81.6 -66.14,147.74 -147.74,147.74 -81.6,0 -147.74,-66.15 -147.74,-147.74 0,-81.59 66.14,-147.74 147.74,-147.74 m 0,-10.58 c -42.29,0 -82.04,16.47 -111.95,46.37 -29.91,29.9 -46.37,69.66 -46.37,111.95 0,42.29 16.47,82.04 46.37,111.95 29.9,29.9 69.66,46.37 111.95,46.37 42.29,0 82.04,-16.47 111.95,-46.37 29.9,-29.9 46.37,-69.66 46.37,-111.95 0,-42.29 -16.47,-82.04 -46.37,-111.95 C 336.12,98.84 296.36,82.38 254.07,82.38 Z"
   id="path6" />
		</g>
	</g>
	<g
   id="g42">
		<defs
   id="defs13">
			<circle
   id="SVGID_1_"
   cx="254.07001"
   cy="240.7"
   r="147.74001" />
		</defs>
		<clipPath
   id="SVGID_2_">
			<use
   xlink:href="#SVGID_1_"
   style="overflow:visible"
   id="use15"
   x="0"
   y="0"
   width="100%"
   height="100%" />
		</clipPath>
		<g
   class="st2"
   clip-path="url(#SVGID_2_)"
   id="g40">
			<g
   id="g20">
				<path
   class="st3"
   d="m -43.95,390.87 c 0,-126.75 117.22,-229.31 262.08,-229.31"
   id="path18" />
			</g>
			<path
   class="st3"
   d="m 98.39,425.6 c 0,-128.57 81.4,-232.61 182,-232.61"
   id="path22" />
			<path
   class="st3"
   d="M 528.82,252.13 C 506.29,198.66 383.1,199.62 253.41,254.28"
   id="path24" />
			<path
   class="st3"
   d="M 483.2,365.52 C 470.44,315.29 384.52,293.85 291.1,317.58"
   id="path26" />
			<path
   class="st3"
   d="M 113.85,536.34 C 73.32,422.76 124.17,301 227.54,264.1"
   id="path28" />
			<path
   class="st3"
   d="M 244.79,161.57 C 305.81,173 372.78,88.36 394.53,-27.68"
   id="path30" />
			<path
   class="st3"
   d="m 375.5,71.42 c 0,66.17 -26.12,119.71 -58.41,119.71"
   id="path32" />
			<path
   class="st3"
   d="M 67.66,449.49 C 58.31,406.22 143.62,351.15 258.38,326.36"
   id="path34" />
			<path
   class="st3"
   d="m 181.85,408.12 c 0,-33.74 95.71,-61.04 213.99,-61.04"
   id="path36" />
			<path
   class="st3"
   d="m 320.98,-26.56 c 0,97.51 -107.75,176.41 -240.91,176.41"
   id="path38" />
		</g>
	</g>
	<circle
   class="st4"
   cx="155.53"
   cy="208.62"
   r="8.46"
   id="circle44" />
	<circle
   class="st4"
   cx="366.45001"
   cy="265.57999"
   r="8.46"
   id="circle46" />
	<circle
   class="st4"
   cx="221.44"
   cy="305.12"
   r="8.46"
   id="circle48" />
	<g
   class="st5"
   id="g52">
		<path
   class="st1"
   d="m 336.88,118.34 c 16.02,23.62 25.38,52.12 25.38,82.81 0,81.59 -66.14,147.74 -147.74,147.74 -30.69,0 -59.19,-9.36 -82.81,-25.38 26.57,39.18 71.46,64.93 122.36,64.93 81.59,0 147.74,-66.14 147.74,-147.74 0,-50.91 -25.75,-95.79 -64.93,-122.36 z"
   id="path50" />
	</g>
	<circle
   class="st4"
   cx="260.98999"
   cy="133.75"
   r="8.46"
   id="circle54" />
	
		<ellipse
   transform="matrix(0.7071,-0.7071,0.7071,0.7071,-75.1933,184.3968)"
   class="st6"
   cx="184.99001"
   cy="182.96001"
   rx="57.84"
   ry="50.169998"
   id="ellipse56" />
	<path
   class="st7"
   d="m 423.29,232.78 c 33.17,17.15 51.91,34.36 48.89,48.05 -6.43,29.19 -109.3,31.35 -229.76,4.81 C 121.96,259.1 29.52,213.93 35.95,184.74 c 3.07,-13.92 28.07,-21.7 66.46,-23.14"
   id="path58"
   style="stroke:#000000;stroke-width:24.478;stroke-miterlimit:10;stroke-dasharray:none;stroke-opacity:1" />
	<g
   class="st5"
   id="g62">
		<circle
   class="st1"
   cx="157.27"
   cy="267.66"
   r="26.709999"
   id="circle60" />
	</g>
	<g
   id="g76">
		<g
   id="g70">
			<path
   class="st8"
   d="m 150.68,283.84 c -14.01,0 -25.4,-11.4 -25.4,-25.4 0,-14 11.4,-25.4 25.4,-25.4 14.01,0 25.4,11.4 25.4,25.4 0,14 -11.39,25.4 -25.4,25.4 z"
   id="path64" />
			<g
   id="g68">
				<path
   class="st1"
   d="m 150.68,238.32 c 11.11,0 20.11,9.01 20.11,20.11 0,11.11 -9.01,20.11 -20.11,20.11 -11.1,0 -20.11,-9.01 -20.11,-20.11 -0.01,-11.11 9,-20.11 20.11,-20.11 m 0,-10.58 c -16.92,0 -30.69,13.77 -30.69,30.69 0,16.92 13.77,30.69 30.69,30.69 16.92,0 30.69,-13.77 30.69,-30.69 0,-16.92 -13.77,-30.69 -30.69,-30.69 z"
   id="path66" />
			</g>
		</g>
		<g
   class="st5"
   id="g74">
			<path
   class="st1"
   d="m 163.01,242.57 c 2.65,3.41 4.25,7.68 4.25,12.33 0,11.11 -9.01,20.11 -20.11,20.11 -4.65,0 -8.93,-1.6 -12.33,-4.25 3.68,4.73 9.41,7.78 15.87,7.78 11.11,0 20.11,-9.01 20.11,-20.11 -0.01,-6.45 -3.06,-12.18 -7.79,-15.86 z"
   id="path72" />
		</g>
	</g>
	<path
   class="st7"
   d="m 378.58,187.69 c -6.12,2.89 -12.94,4.5 -20.14,4.5 -11.34,0 -21.76,-4.01 -29.92,-10.69 -8.27,-6.76 -14.21,-16.27 -16.44,-27.11"
   id="path78" />
	<path
   class="st7"
   d="m 313.21,130.96 c 5.96,-19.32 23.98,-33.41 45.23,-33.41 26.09,0 47.32,21.23 47.32,47.32 0,5.77 -1.04,11.3 -2.94,16.41"
   id="path80"
   style="stroke:#000200;stroke-opacity:1" />
	<g
   id="g88">
		<path
   class="st9"
   d="m 358.44,173.76 c -15.93,0 -28.88,-12.96 -28.88,-28.88 0,-15.92 12.96,-28.88 28.88,-28.88 15.92,0 28.88,12.96 28.88,28.88 0,15.92 -12.95,28.88 -28.88,28.88 z"
   id="path82" />
		<g
   id="g86">
			<path
   class="st1"
   d="m 358.44,121.28 c 13.03,0 23.59,10.56 23.59,23.59 0,13.03 -10.56,23.59 -23.59,23.59 -13.03,0 -23.59,-10.56 -23.59,-23.59 0,-13.03 10.56,-23.59 23.59,-23.59 m 0,-10.58 c -18.84,0 -34.17,15.33 -34.17,34.17 0,18.84 15.33,34.17 34.17,34.17 18.84,0 34.17,-15.33 34.17,-34.17 0,-18.84 -15.33,-34.17 -34.17,-34.17 z"
   id="path84" />
		</g>
	</g>
	<g
   class="st5"
   id="g92">
		<path
   class="st1"
   d="m 373.01,126.34 c 3.16,4.01 5.06,9.07 5.06,14.57 0,13.03 -10.56,23.59 -23.59,23.59 -5.51,0 -10.56,-1.9 -14.57,-5.06 4.32,5.48 11.01,9.02 18.53,9.02 13.03,0 23.59,-10.56 23.59,-23.59 0,-7.52 -3.53,-14.21 -9.02,-18.53 z"
   id="path90" />
	</g>
</g>
</svg>
