<?xml version="1.0" encoding="utf-8"?>
<!-- Generator: Adobe Illustrator 23.0.2, SVG Export Plug-In . SVG Version: 6.00 Build 0)  -->
<svg version="1.1" id="Layer_1" xmlns="http://www.w3.org/2000/svg" xmlns:xlink="http://www.w3.org/1999/xlink" x="0px" y="0px"
	 viewBox="0 0 512 512" style="enable-background:new 0 0 512 512;" xml:space="preserve">
<style type="text/css">
	.st0{fill:#DBDBDB;}
	.st1{fill:#191A23;}
	.st2{fill:#C47C7C;}
	.st3{fill:#6ECFE5;}
	.st4{opacity:0.1;}
	.st5{fill:#8E8E8E;}
	.st6{fill:#353535;}
	.st7{opacity:0.2;fill:#FFFFFF;}
	.st8{fill:#BCBCBC;}
	.st9{fill:none;stroke:#191A23;stroke-width:10.5777;stroke-miterlimit:10;}
	.st10{fill:#3996C4;}
	.st11{fill:#D12F2F;}
	.st12{fill:#FFD878;}
</style>
<g>
	<g>
		<g>
			<rect x="261.06" y="292.71" class="st0" width="21.47" height="189.03"/>
			<path class="st1" d="M277.24,298v178.45h-10.89V298H277.24 M287.82,287.43h-10.58h-10.89h-10.58V298v178.45v10.58h10.58h10.89
				h10.58v-10.58V298V287.43L287.82,287.43z"/>
		</g>
		<g>
			<polygon class="st0" points="358.8,481.74 288.24,303.71 308.2,295.8 381.89,481.74 			"/>
			<path class="st1" d="M305.23,302.67l68.88,173.79h-11.71l-67.29-169.77L305.23,302.67 M311.17,288.94l-9.83,3.9l-10.12,4.01
				l-9.83,3.9l3.9,9.83l67.29,169.77l2.65,6.68h7.19h11.71h15.57l-5.74-14.48l-68.88-173.79L311.17,288.94L311.17,288.94z"/>
		</g>
		<g>
			<polygon class="st0" points="161.7,481.74 235.4,295.8 255.36,303.71 184.79,481.74 			"/>
			<path class="st1" d="M238.37,302.67l10.12,4.01L181.2,476.45h-11.71L238.37,302.67 M232.43,288.94l-3.9,9.83l-68.88,173.79
				l-5.74,14.48h15.57h11.71h7.19l2.65-6.68l67.29-169.77l3.9-9.83l-9.83-3.9l-10.12-4.01L232.43,288.94L232.43,288.94z"/>
		</g>
	</g>
	<g>
		<rect x="260.15" y="216.02" class="st2" width="21.84" height="71.59"/>
		<path class="st1" d="M279.35,218.66v66.32h-16.57v-66.32H279.35 M284.63,213.38h-5.27h-16.57h-5.27v5.27v66.32v5.27h5.27h16.57
			h5.27v-5.27v-66.32V213.38L284.63,213.38z"/>
	</g>
	<g>
		<g>
			<path class="st3" d="M414.41,183.15c-21.32,0-40.1-12.84-47.84-32.71c-10.27-26.37,2.83-56.18,29.21-66.45
				c5.98-2.33,12.24-3.51,18.61-3.51c21.32,0,40.1,12.84,47.84,32.71c10.27,26.37-2.83,56.18-29.21,66.45
				C427.03,181.97,420.77,183.15,414.41,183.15z"/>
			<g>
				<path class="st1" d="M414.38,85.77c18.43,0,35.82,11.14,42.91,29.34c9.22,23.69-2.5,50.37-26.2,59.6
					c-5.49,2.14-11.14,3.15-16.69,3.15c-18.43,0-35.82-11.14-42.91-29.34c-9.22-23.69,2.5-50.37,26.2-59.6
					C403.18,86.79,408.83,85.77,414.38,85.77 M414.39,75.19v10.58V75.19c-7.03,0-13.94,1.3-20.53,3.87
					c-14.09,5.49-25.2,16.13-31.29,29.97c-6.08,13.84-6.41,29.23-0.93,43.32c4.22,10.84,11.54,19.98,21.16,26.44
					c9.39,6.31,20.32,9.64,31.6,9.64c7.03,0,13.93-1.3,20.53-3.87c14.09-5.49,25.2-16.13,31.29-29.97
					c6.08-13.84,6.41-29.23,0.93-43.32c-4.22-10.84-11.54-19.98-21.16-26.44C436.59,78.53,425.67,75.19,414.39,75.19L414.39,75.19z"
					/>
			</g>
		</g>
		<g class="st4">
			<path class="st1" d="M425.84,87.24c7.81,5.07,14.16,12.54,17.79,21.87c9.22,23.69-2.5,50.37-26.2,59.6
				c-9.34,3.63-19.13,4-28.15,1.68c12,7.8,27.45,9.91,41.8,4.32c23.69-9.22,35.42-35.91,26.2-59.6
				C451.7,100.76,439.7,90.81,425.84,87.24z"/>
		</g>
		<g>
			
				<rect x="41.4" y="231.92" transform="matrix(0.9319 -0.3628 0.3628 0.9319 -85.1409 54.0487)" class="st5" width="119.87" height="43.57"/>
			<path class="st1" d="M146.27,218.51l11.97,30.75L56.39,288.9l-11.97-30.75L146.27,218.51 M152.29,204.81l-9.86,3.84L40.58,248.3
				l-9.86,3.84l3.84,9.86l11.97,30.75l3.84,9.86l9.86-3.84l101.84-39.65l9.86-3.84l-3.84-9.86l-11.97-30.75L152.29,204.81
				L152.29,204.81z"/>
		</g>
		<g>
			
				<rect x="44.6" y="249" transform="matrix(0.9319 -0.3628 0.3628 0.9319 -94.3315 39.2966)" class="st6" width="25.7" height="43.57"/>
			<g>
				<path class="st1" d="M58.51,252.67l11.97,30.75l-14.09,5.49l-11.97-30.75L58.51,252.67 M64.53,238.98l-9.86,3.84l-14.09,5.49
					l-9.86,3.84l3.84,9.86l11.97,30.75l3.84,9.86l9.86-3.84l14.09-5.49l9.86-3.84l-3.84-9.86l-11.97-30.75L64.53,238.98
					L64.53,238.98z"/>
			</g>
		</g>
		
			<rect x="43.06" y="238.92" transform="matrix(0.9319 -0.3628 0.3628 0.9319 -82.3882 51.1391)" class="st7" width="103.79" height="12"/>
		<g>
			
				<rect x="144.29" y="184.48" transform="matrix(0.9319 -0.3628 0.3628 0.9319 -66.8355 83.4526)" class="st8" width="88.94" height="70.38"/>
			<path class="st1" d="M214.42,177.59l21.7,55.73l-73.02,28.43l-21.7-55.73L214.42,177.59 M220.44,163.89l-9.86,3.84l-73.02,28.43
				l-9.86,3.84l3.84,9.86l21.7,55.73l3.84,9.86l9.86-3.84l73.02-28.43l9.86-3.84l-3.84-9.86l-21.7-55.73L220.44,163.89
				L220.44,163.89z"/>
		</g>
		<g class="st4">
			
				<rect x="204.71" y="179.81" transform="matrix(0.9319 -0.3628 0.3628 0.9319 -61.4788 92.0509)" class="st1" width="19.25" height="59.8"/>
		</g>
		
			<rect x="141.24" y="191.73" transform="matrix(0.9319 -0.3628 0.3628 0.9319 -59.7704 78.5931)" class="st7" width="76.25" height="13.4"/>
		<g>
			
				<rect x="339.37" y="75.94" transform="matrix(0.9319 -0.3628 0.3628 0.9319 -7.8884 135.5854)" class="st5" width="35.32" height="25.7"/>
			<g>
				<path class="st1" d="M365.82,77.26l5.49,14.09l-23.06,8.98l-5.49-14.09L365.82,77.26 M371.84,63.57l-9.86,3.84l-23.06,8.98
					l-9.86,3.84l3.84,9.86l5.49,14.09l3.84,9.86l9.86-3.84l23.06-8.98l9.86-3.84l-3.84-9.86l-5.49-14.09L371.84,63.57L371.84,63.57z
					"/>
			</g>
		</g>
		<g>
			
				<rect x="216.12" y="139.38" transform="matrix(0.9319 -0.3628 0.3628 0.9319 -48.125 113.4987)" class="st0" width="123.99" height="91"/>
			<path class="st1" d="M316.37,126.83l29.18,74.94l-105.69,41.15l-29.18-74.94L316.37,126.83 M322.39,113.14l-9.86,3.84
				l-105.69,41.15l-9.86,3.84l3.84,9.86L230,246.76l3.84,9.86l9.86-3.84l105.69-41.15l9.86-3.84l-3.84-9.86l-29.18-74.94
				L322.39,113.14L322.39,113.14z"/>
		</g>
		
			<rect x="209.44" y="146.91" transform="matrix(0.9319 -0.3628 0.3628 0.9319 -37.7859 107.06)" class="st7" width="113.41" height="14.43"/>
		<g>
			
				<rect x="322.25" y="90.63" transform="matrix(0.9319 -0.3628 0.3628 0.9319 -27.2697 146.9924)" class="st0" width="110.93" height="110.93"/>
			<path class="st1" d="M406.27,81.14l36.41,93.52l-93.52,36.41l-36.41-93.52L406.27,81.14 M412.29,67.44l-9.86,3.84l-93.52,36.41
				l-9.86,3.84l3.84,9.86l36.41,93.52l3.84,9.86l9.86-3.84l93.52-36.41l9.86-3.84l-3.84-9.86L416.13,77.3L412.29,67.44L412.29,67.44
				z"/>
		</g>
		<g class="st4">
			
				<rect x="307.24" y="129.58" transform="matrix(0.9319 -0.3628 0.3628 0.9319 -40.0108 126.5289)" class="st1" width="19.25" height="80.42"/>
		</g>
		
			<rect x="312.45" y="98.75" transform="matrix(0.9319 -0.3628 0.3628 0.9319 -14.2383 138.8773)" class="st7" width="100.35" height="17.18"/>
		<line class="st9" x1="326.2" y1="112.31" x2="362.61" y2="205.82"/>
		<g class="st4">
			
				<rect x="342.06" y="173.27" transform="matrix(0.9319 -0.3628 0.3628 0.9319 -39.8164 154.8037)" class="st1" width="100.35" height="20.28"/>
		</g>
		<g class="st4">
			
				<rect x="233.44" y="208.74" transform="matrix(0.9319 -0.3628 0.3628 0.9319 -58.8925 119.0066)" class="st1" width="107.92" height="15.12"/>
		</g>
		<g class="st4">
			
				<rect x="158.19" y="235.58" transform="matrix(0.9319 -0.3628 0.3628 0.9319 -74.6402 87.115)" class="st1" width="72.86" height="13.4"/>
		</g>
		<g class="st4">
			
				<rect x="51.17" y="261.11" transform="matrix(0.9319 -0.3628 0.3628 0.9319 -89.3931 55.5008)" class="st1" width="103.79" height="9.28"/>
		</g>
		<g>
			
				<rect x="301.47" y="49.21" transform="matrix(0.9319 -0.3628 0.3628 0.9319 0.0764 130.1226)" class="st5" width="90" height="31.3"/>
			<path class="st1" d="M379.72,40.79l7.52,19.31l-74.01,28.82l-7.52-19.31L379.72,40.79 M385.74,27.1l-9.86,3.84l-74.01,28.82
				l-9.86,3.84l3.84,9.86l7.52,19.31l3.84,9.86l9.86-3.84l74.01-28.82l9.86-3.84l-3.84-9.86l-7.52-19.31L385.74,27.1L385.74,27.1z"
				/>
		</g>
		<g>
			
				<rect x="296.67" y="63.93" transform="matrix(0.9319 -0.3628 0.3628 0.9319 -7.8397 117.4128)" class="st6" width="23.98" height="31.3"/>
			<g>
				<path class="st1" d="M311.15,67.49l7.52,19.31l-12.49,4.86l-7.52-19.31L311.15,67.49 M317.17,53.8l-9.86,3.84l-12.49,4.86
					l-9.86,3.84l3.84,9.86l7.52,19.31l3.84,9.86l9.86-3.84l12.49-4.86l9.86-3.84l-3.84-9.86l-7.52-19.31L317.17,53.8L317.17,53.8z"
					/>
			</g>
		</g>
		<g class="st4">
			
				<rect x="301.63" y="67.47" transform="matrix(0.9319 -0.3628 0.3628 0.9319 -1.8669 131.8454)" class="st1" width="96.92" height="6.85"/>
		</g>
		<g>
			
				<rect x="377.85" y="33" transform="matrix(0.9319 -0.3628 0.3628 0.9319 8.7884 144.1004)" class="st10" width="20.51" height="31.3"/>
			<g>
				<path class="st1" d="M388.97,37.19l7.52,19.31l-9.25,3.6l-7.52-19.31L388.97,37.19 M394.99,23.5l-9.86,3.84l-9.25,3.6
					l-9.86,3.84l3.84,9.86l7.52,19.31l3.84,9.86l9.86-3.84l9.25-3.6l9.86-3.84l-3.84-9.86l-7.52-19.31L394.99,23.5L394.99,23.5z"/>
			</g>
		</g>
		
			<rect x="296.59" y="54.54" transform="matrix(0.9319 -0.3628 0.3628 0.9319 2.4858 129.1351)" class="st7" width="96.92" height="6.82"/>
	</g>
	<g>
		<path class="st11" d="M271.07,255.68c-14.52,0-26.33-11.81-26.33-26.33c0-14.52,11.81-26.33,26.33-26.33
			c14.52,0,26.33,11.81,26.33,26.33C297.4,243.86,285.59,255.68,271.07,255.68z"/>
		<path class="st1" d="M271.07,208.3c11.62,0,21.04,9.42,21.04,21.04s-9.42,21.04-21.04,21.04c-11.62,0-21.04-9.42-21.04-21.04
			S259.45,208.3,271.07,208.3 M271.07,197.72c-17.44,0-31.62,14.18-31.62,31.62c0,17.44,14.18,31.62,31.62,31.62
			c17.44,0,31.62-14.18,31.62-31.62C302.69,211.91,288.5,197.72,271.07,197.72L271.07,197.72z"/>
	</g>
	<g class="st4">
		<path class="st1" d="M271.07,241.7c-10.13,0-18.59-7.16-20.59-16.7c-0.29,1.4-0.45,2.85-0.45,4.34c0,11.62,9.42,21.04,21.04,21.04
			s21.04-9.42,21.04-21.04c0-1.49-0.16-2.94-0.45-4.34C289.66,234.54,281.2,241.7,271.07,241.7z"/>
	</g>
	<g>
		<rect x="232.79" y="279.68" class="st12" width="76.56" height="29.94"/>
		<g>
			<path class="st1" d="M304.06,284.97v19.36h-65.99v-19.36H304.06 M314.64,274.39h-10.58h-65.99H227.5v10.58v19.36v10.58h10.58
				h65.99h10.58v-10.58v-19.36V274.39L314.64,274.39z"/>
		</g>
	</g>
	<g class="st4">
		<rect x="262.79" y="269.24" class="st1" width="16.56" height="10.47"/>
	</g>
	<g class="st4">
		<rect x="238.08" y="294.65" class="st1" width="65.99" height="9.68"/>
	</g>
</g>
</svg>
