<svg
  id="Layer_1"
  enable-background="new 0 0 512 512"
  height="512"
  viewBox="0 0 512 512"
  width="512"
  xmlns="http://www.w3.org/2000/svg"
  class="inline w-5 h-5 mr-1 align-middle md:w-6 md:h-6"
>
  <g>
    <path
      d="m371.256 206.777 34.465-19.899c8.315 7.348 19.227 11.821 31.169 11.821 25.989 0 47.134-21.145 47.134-47.134s-21.145-47.133-47.134-47.133-47.133 21.144-47.133 47.133c0 3.2.324 6.326.935 9.348l-34.475 19.904c5.995 7.973 11.06 16.68 15.039 25.96z"
      fill="currentColor"
    />
    <path
      d="m140.744 305.223-34.465 19.899c-8.315-7.348-19.227-11.822-31.169-11.822-25.989 0-47.134 21.145-47.134 47.134s21.145 47.133 47.134 47.133 47.133-21.144 47.133-47.133c0-3.2-.324-6.326-.934-9.348l34.475-19.904c-5.996-7.972-11.061-16.679-15.04-25.959z"
      fill="currentColor"
    />
    <path
      d="m122.242 151.566c0-25.989-21.144-47.133-47.133-47.133s-47.134 21.144-47.134 47.133 21.145 47.134 47.134 47.134c11.943 0 22.855-4.473 31.169-11.821l34.465 19.899c3.978-9.28 9.044-17.987 15.039-25.958l-34.475-19.904c.611-3.024.935-6.15.935-9.35z"
      fill="currentColor"
    />
    <path
      d="m271 420.195v-39.763c-4.92.589-9.924.901-15 .901s-10.08-.312-15-.901v39.763c-18.655 6.281-32.134 23.926-32.134 44.671 0 25.989 21.145 47.134 47.134 47.134s47.134-21.145 47.134-47.134c0-20.745-13.479-38.39-32.134-44.671z"
      fill="currentColor"
    />
    <path
      d="m436.891 313.3c-11.943 0-22.854 4.473-31.169 11.821l-34.465-19.899c-3.978 9.28-9.044 17.987-15.039 25.958l34.475 19.904c-.611 3.023-.935 6.148-.935 9.348 0 25.989 21.144 47.133 47.133 47.133s47.134-21.144 47.134-47.133-21.145-47.132-47.134-47.132z"
      fill="currentColor"
    />
    <path
      d="m241 91.805v39.763c4.92-.589 9.924-.901 15-.901s10.08.312 15 .901v-39.763c18.655-6.281 32.133-23.926 32.133-44.671 0-25.989-21.145-47.134-47.134-47.134s-47.133 21.145-47.133 47.134c0 20.746 13.479 38.391 32.134 44.671z"
      fill="currentColor"
    />
    <circle cx="256" cy="256" r="95.333" fill="currentColor" />
  </g>
</svg>
