<?xml version="1.0" encoding="UTF-8" standalone="no"?>
<svg
   xmlns:dc="http://purl.org/dc/elements/1.1/"
   xmlns:cc="http://creativecommons.org/ns#"
   xmlns:rdf="http://www.w3.org/1999/02/22-rdf-syntax-ns#"
   xmlns:svg="http://www.w3.org/2000/svg"
   xmlns="http://www.w3.org/2000/svg"
   xmlns:xlink="http://www.w3.org/1999/xlink"
   xmlns:sodipodi="http://sodipodi.sourceforge.net/DTD/sodipodi-0.dtd"
   xmlns:inkscape="http://www.inkscape.org/namespaces/inkscape"
   version="1.1"
   id="Layer_1"
   x="0px"
   y="0px"
   viewBox="0 0 462 325"
   xml:space="preserve"
   sodipodi:docname="space-06.svg"
   width="462"
   height="325"
   inkscape:version="1.0.1 (3bc2e813f5, 2020-09-07)"><metadata
   id="metadata139"><rdf:RDF><cc:Work
       rdf:about=""><dc:format>image/svg+xml</dc:format><dc:type
         rdf:resource="http://purl.org/dc/dcmitype/StillImage" /><dc:title></dc:title></cc:Work></rdf:RDF></metadata><defs
   id="defs137" /><sodipodi:namedview
   pagecolor="#ffffff"
   bordercolor="#666666"
   borderopacity="1"
   objecttolerance="10"
   gridtolerance="10"
   guidetolerance="10"
   inkscape:pageopacity="0"
   inkscape:pageshadow="2"
   inkscape:window-width="1920"
   inkscape:window-height="1009"
   id="namedview135"
   showgrid="false"
   inkscape:zoom="1.4277344"
   inkscape:cx="257.40082"
   inkscape:cy="256"
   inkscape:window-x="1920"
   inkscape:window-y="27"
   inkscape:window-maximized="1"
   inkscape:current-layer="Layer_1" />
<style
   type="text/css"
   id="style2">
	.st0{fill:#EDB4C4;}
	.st1{fill:#191A23;}
	.st2{fill:none;stroke:#191A23;stroke-width:10.5777;stroke-linecap:round;stroke-miterlimit:10;}
	.st3{clip-path:url(#SVGID_2_);}
	.st4{fill:#E589AB;}
	.st5{opacity:0.1;}
	.st6{fill:#F25F5F;}
	.st7{fill:none;stroke:#D12F2F;stroke-width:10.5777;stroke-linecap:round;stroke-miterlimit:10;}
	.st8{opacity:0.2;fill:#FFFFFF;}
	.st9{fill:#EA8928;}
</style>
<g
   id="g132"
   transform="translate(-20,-92)">
	<g
   id="g10">
		<circle
   class="st0"
   cx="251.97"
   cy="241.34"
   r="141.67"
   id="circle4" />
		<g
   id="g8">
			<path
   class="st1"
   d="m 251.97,104.96 c 75.32,0 136.38,61.06 136.38,136.38 0,75.32 -61.06,136.38 -136.38,136.38 -75.32,0 -136.38,-61.06 -136.38,-136.38 0,-75.32 61.06,-136.38 136.38,-136.38 m 0,-10.57 c -39.25,0 -76.16,15.29 -103.91,43.04 -27.76,27.76 -43.04,64.66 -43.04,103.91 0,39.25 15.29,76.16 43.04,103.91 27.76,27.76 64.66,43.04 103.91,43.04 39.25,0 76.16,-15.29 103.91,-43.04 27.76,-27.76 43.04,-64.66 43.04,-103.91 0,-39.25 -15.29,-76.16 -43.04,-103.91 C 328.12,109.67 291.22,94.39 251.97,94.39 Z"
   id="path6" />
		</g>
	</g>
	<path
   class="st2"
   d="m 431.92,270.22 c -2.56,14.31 -6.96,28 -12.93,40.81"
   id="path12" />
	<path
   class="st2"
   d="m 324.18,405.87 c -4.11,1.68 -8.31,3.2 -12.58,4.55"
   id="path14" />
	<path
   class="st2"
   d="m 369.11,378.58 c -8.68,7.36 -18.11,13.85 -28.17,19.33"
   id="path16" />
	<g
   id="g62">
		<defs
   id="defs19">
			<circle
   id="SVGID_1_"
   cx="251.97"
   cy="241.34"
   r="136.38" />
		</defs>
		<clipPath
   id="SVGID_2_">
			<use
   xlink:href="#SVGID_1_"
   style="overflow:visible"
   id="use21"
   x="0"
   y="0"
   width="100%"
   height="100%" />
		</clipPath>
		<g
   class="st3"
   clip-path="url(#SVGID_2_)"
   id="g60">
			<g
   id="g26">
				<path
   class="st4"
   d="M 228.69,165.9 H 83.58 v -33.3 h 145.11 c 9.2,0 16.65,7.45 16.65,16.65 v 0 c 0,9.19 -7.46,16.65 -16.65,16.65 z"
   id="path24" />
			</g>
			<g
   id="g30">
				<path
   class="st4"
   d="M 192.18,226.74 H 95.75 v -33.3 h 96.43 c 9.2,0 16.65,7.45 16.65,16.65 v 0 c 0,9.19 -7.45,16.65 -16.65,16.65 z"
   id="path28" />
			</g>
			<g
   id="g34">
				<path
   class="st4"
   d="M 167.84,287.58 H 71.41 v -33.3 h 96.43 c 9.2,0 16.65,7.45 16.65,16.65 v 0 c 0,9.2 -7.45,16.65 -16.65,16.65 z"
   id="path32" />
			</g>
			<g
   id="g38">
				<path
   class="st4"
   d="M 265.19,348.43 H 120.08 v -33.3 h 145.11 c 9.2,0 16.65,7.45 16.65,16.65 v 0 c 0,9.19 -7.45,16.65 -16.65,16.65 z"
   id="path36" />
			</g>
			<g
   id="g42">
				<path
   class="st4"
   d="m 307.09,201.19 h 84.26 v -33.3 h -84.26 c -9.2,0 -16.65,7.45 -16.65,16.65 v 0 c 0,9.19 7.46,16.65 16.65,16.65 z"
   id="path40" />
			</g>
			<g
   id="g46">
				<path
   class="st4"
   d="m 282.76,140.34 h 84.26 v -33.3 h -84.26 c -9.2,0 -16.65,7.45 -16.65,16.65 v 0 c 0,9.2 7.45,16.65 16.65,16.65 z"
   id="path44" />
			</g>
			<g
   id="g50">
				<path
   class="st4"
   d="M 270.59,262.03 H 415.7 v -33.3 H 270.59 c -9.2,0 -16.65,7.45 -16.65,16.65 v 0 c 0,9.19 7.45,16.65 16.65,16.65 z"
   id="path48" />
			</g>
			<g
   id="g54">
				<path
   class="st4"
   d="m 331.43,322.87 h 72.1 v -33.3 h -72.1 c -9.2,0 -16.65,7.45 -16.65,16.65 v 0 c 0,9.2 7.46,16.65 16.65,16.65 z"
   id="path52" />
			</g>
			<g
   id="g58">
				<path
   class="st4"
   d="m 319.26,383.71 h 72.1 v -33.3 h -72.1 c -9.2,0 -16.65,7.45 -16.65,16.65 v 0 c 0,9.2 7.46,16.65 16.65,16.65 z"
   id="path56" />
			</g>
		</g>
	</g>
	<g
   class="st5"
   id="g66">
		<path
   class="st1"
   d="m 328.41,128.39 c 14.79,21.8 23.43,48.11 23.43,76.44 0,75.32 -61.06,136.38 -136.38,136.38 -28.33,0 -54.64,-8.64 -76.44,-23.43 24.52,36.17 65.96,59.93 112.95,59.93 75.32,0 136.38,-61.06 136.38,-136.38 -0.01,-46.98 -23.77,-88.41 -59.94,-112.94 z"
   id="path64" />
	</g>
	<path
   class="st2"
   d="m 283.15,123.61 c 3.36,0.89 6.66,1.92 9.9,3.09 14.23,5.12 27.24,12.81 38.47,22.52"
   id="path68" />
	<path
   class="st2"
   d="m 348.24,166.85 c 2.68,3.46 5.18,7.06 7.48,10.8"
   id="path70" />
	<g
   id="g108">
		<g
   id="g80">
			<g
   id="g78">
				<path
   class="st6"
   d="m 125.46,352.24 c -52.87,0 -86.84,-13.98 -95.66,-39.37 -5.38,-15.49 -0.6,-34 13.81,-53.53 13.29,-18 34.78,-36.93 62.14,-54.75 l 10.91,-7.11 -2.86,12.7 c -1.74,7.71 -2.83,15.53 -3.26,23.25 l -0.13,2.33 -1.8,1.47 c -22.42,18.36 -33,35.46 -29.02,46.92 3.5,10.07 18.34,16.59 41.79,18.38 1.6,0.12 3.25,0.22 4.92,0.3 2.79,0.13 5.71,0.19 8.68,0.19 35.78,0 83.08,-9.3 129.78,-25.53 50.9,-17.68 96.08,-41.59 123.96,-65.61 1.29,-1.11 2.55,-2.23 3.76,-3.34 17.52,-16.05 25.23,-30.47 21.71,-40.61 -4.01,-11.55 -23.15,-18.42 -52.5,-18.84 l -2.33,-0.03 -1.55,-1.74 c -5.18,-5.83 -10.88,-11.27 -16.94,-16.17 l -10.11,-8.17 12.94,-1.2 c 11,-1.03 21.66,-1.54 31.68,-1.54 52.87,0 86.84,13.98 95.66,39.37 10.18,29.3 -15.47,67.42 -70.37,104.57 -1.64,1.11 -3.31,2.22 -5.01,3.33 -32.55,21.29 -72.39,40.4 -115.19,55.27 -43,14.93 -86.26,24.64 -125.13,28.08 -2,0.18 -3.99,0.34 -5.96,0.48 -8.22,0.6 -16.28,0.9 -23.92,0.9 z"
   id="path72" />
				<g
   id="g76">
					<path
   class="st1"
   d="m 375.39,125.53 c 48.08,0 82.41,12.05 90.67,35.82 9.57,27.56 -18.12,64.47 -68.33,98.45 -1.62,1.1 -3.27,2.19 -4.94,3.28 -31.09,20.33 -70.17,39.46 -114.03,54.7 -44.05,15.3 -86.74,24.53 -123.86,27.81 -1.98,0.17 -3.94,0.33 -5.88,0.47 -8.16,0.59 -16.02,0.89 -23.55,0.89 -48.08,0 -82.41,-12.05 -90.66,-35.81 -9.92,-28.55 20.16,-67.14 73.84,-102.11 -1.76,7.83 -2.93,15.88 -3.38,24.12 -23.72,19.42 -35.68,38.32 -30.67,52.75 4.42,12.74 21.38,20.01 46.38,21.91 1.66,0.13 3.35,0.23 5.08,0.31 2.88,0.13 5.86,0.2 8.92,0.2 35.21,0 82.12,-8.66 131.52,-25.82 53.43,-18.56 98.42,-43.11 125.68,-66.6 1.34,-1.15 2.63,-2.3 3.88,-3.45 18.66,-17.1 27.58,-33.43 23.13,-46.24 -5.05,-14.53 -26.42,-21.95 -57.42,-22.39 -5.39,-6.06 -11.26,-11.66 -17.57,-16.76 10.9,-1.03 21.33,-1.53 31.19,-1.53 m 0,-10.58 c -10.18,0 -21,0.53 -32.17,1.57 l -25.89,2.41 20.22,16.35 c 5.83,4.72 11.32,9.95 16.31,15.57 l 3.1,3.48 4.66,0.07 c 26.2,0.37 44.44,6.23 47.58,15.28 2.7,7.78 -4.88,20.86 -20.29,34.97 -1.17,1.07 -2.4,2.16 -3.64,3.24 -27.39,23.6 -71.95,47.15 -122.24,64.62 -46.17,16.04 -92.84,25.23 -128.05,25.23 -2.89,0 -5.73,-0.06 -8.44,-0.19 -1.61,-0.07 -3.21,-0.17 -4.76,-0.29 -20.61,-1.57 -34.51,-7.11 -37.19,-14.84 -3.12,-8.97 7.38,-24.72 27.38,-41.09 l 3.6,-2.95 0.26,-4.65 c 0.41,-7.42 1.47,-14.95 3.14,-22.37 l 5.72,-25.4 -21.82,14.21 c -27.88,18.16 -49.84,37.54 -63.5,56.04 -10.81,14.64 -22.11,36.65 -14.55,58.4 9.61,27.68 45.36,42.92 100.66,42.92 7.77,0 15.95,-0.31 24.31,-0.91 2,-0.15 4.04,-0.31 6.05,-0.49 39.29,-3.48 83,-13.28 126.4,-28.35 43.21,-15.01 83.45,-34.32 116.35,-55.84 1.71,-1.12 3.42,-2.25 5.08,-3.38 57.03,-38.6 83.42,-78.94 72.4,-110.68 -9.64,-27.69 -45.38,-42.93 -100.68,-42.93 z"
   id="path74" />
				</g>
			</g>
		</g>
		<g
   class="st5"
   id="g94">
			<g
   id="g84">
				<path
   class="st1"
   d="m 97.84,217.19 c -26.86,20.73 -40.76,41.17 -35.43,56.53 1.95,5.61 6.33,10.15 12.76,13.65 -0.21,-0.49 -0.42,-0.98 -0.59,-1.48 -5.34,-15.36 8.57,-35.8 35.43,-56.53 0.67,-8.09 2.01,-16.03 4,-23.78 -5.61,3.52 -10.96,7.09 -16.08,10.69 -0.02,0.31 -0.06,0.61 -0.09,0.92 z"
   id="path82" />
			</g>
			<g
   id="g88">
				<path
   class="st1"
   d="m 355.8,143.81 c 21.81,-0.3 39.37,2.61 50.64,8.75 -6.34,-14.44 -29.7,-21.37 -62.81,-20.92 -1.01,-1.08 -2.04,-2.15 -3.09,-3.2 -0.31,-0.31 -0.64,-0.61 -0.95,-0.92 -0.57,0.06 -1.12,0.11 -1.69,0.17 5.18,3.93 10.14,8.24 14.82,12.92 1.03,1.05 2.06,2.12 3.08,3.2 z"
   id="path86" />
			</g>
			<g
   id="g92">
				<path
   class="st1"
   d="m 466.06,161.35 c -2.65,-7.64 -8.02,-14.05 -15.64,-19.26 1.43,2.24 2.61,4.6 3.47,7.09 9.88,28.45 -19.95,66.87 -73.27,101.74 -31.09,20.33 -70.17,39.46 -114.03,54.7 -44.05,15.3 -86.74,24.53 -123.86,27.81 -46.22,4.09 -83.76,-1.06 -104.47,-15.21 14.79,23.21 58.96,32.48 116.64,27.38 37.11,-3.28 79.81,-12.51 123.86,-27.81 43.87,-15.24 82.94,-34.36 114.03,-54.7 53.32,-34.88 83.15,-73.3 73.27,-101.74 z"
   id="path90" />
			</g>
		</g>
		<path
   class="st7"
   d="m 257.5,309.32 c -5.1,1.61 -10.18,3.14 -15.24,4.58"
   id="path96" />
		<path
   class="st7"
   d="m 451.15,183.5 c -4.8,13.41 -17.83,29.58 -37.66,46.14"
   id="path98" />
		<path
   class="st7"
   d="m 118.38,332.15 c -18.51,-0.5 -34.15,-3.01 -45.97,-7.17"
   id="path100" />
		<path
   class="st7"
   d="m 219.53,319.89 c -20.96,5.04 -41.33,8.6 -60.5,10.56"
   id="path102" />
		<path
   class="st7"
   d="m 388.53,231.45 c -11.65,8.87 -25.24,17.57 -40.3,25.84"
   id="path104" />
		<path
   class="st7"
   d="m 428.9,182.32 c -0.85,3.22 -2.17,6.66 -4.08,10.33"
   id="path106" />
	</g>
	<g
   class="st5"
   id="g114">
		<g
   id="g112">
			<path
   class="st1"
   d="m 290.92,354.29 c 24.39,-8.47 47.31,-18.15 68.19,-28.57 6.62,-8.4 12.27,-17.59 16.8,-27.42 -26.43,14.48 -57.34,28.21 -91.09,39.94 -33.06,11.48 -65.18,19.76 -94.42,24.82 9.4,4.76 19.42,8.47 29.92,10.96 22.66,-4.77 46.42,-11.33 70.6,-19.73 z"
   id="path110" />
		</g>
	</g>
	
		<ellipse
   transform="matrix(0.7071,-0.7071,0.7071,0.7071,-79.773,187.8262)"
   class="st8"
   cx="186.84"
   cy="190.21001"
   rx="53.389999"
   ry="46.310001"
   id="ellipse116" />
	<g
   id="g130">
		<g
   id="g124">
			<path
   class="st9"
   d="m 399.53,372.18 c -13.15,0 -23.86,-10.7 -23.86,-23.86 0,-13.16 10.7,-23.86 23.86,-23.86 13.16,0 23.86,10.7 23.86,23.86 0,13.16 -10.71,23.86 -23.86,23.86 z"
   id="path118" />
			<g
   id="g122">
				<path
   class="st1"
   d="m 399.53,329.76 c 10.25,0 18.57,8.31 18.57,18.57 0,10.25 -8.31,18.57 -18.57,18.57 -10.25,0 -18.57,-8.31 -18.57,-18.57 0,-10.26 8.31,-18.57 18.57,-18.57 m 0,-10.58 c -16.07,0 -29.15,13.07 -29.15,29.15 0,16.08 13.07,29.15 29.15,29.15 16.08,0 29.15,-13.07 29.15,-29.15 0,-16.08 -13.08,-29.15 -29.15,-29.15 z"
   id="path120" />
			</g>
		</g>
		<g
   class="st5"
   id="g128">
			<path
   class="st1"
   d="m 410.91,333.68 c 2.45,3.15 3.92,7.09 3.92,11.38 0,10.25 -8.31,18.57 -18.57,18.57 -4.3,0 -8.24,-1.47 -11.38,-3.92 3.4,4.36 8.69,7.18 14.65,7.18 10.25,0 18.57,-8.31 18.57,-18.57 0,-5.96 -2.82,-11.25 -7.19,-14.64 z"
   id="path126" />
		</g>
	</g>
</g>
</svg>
