<?xml version="1.0" encoding="UTF-8" standalone="no"?>
<svg
   xmlns:dc="http://purl.org/dc/elements/1.1/"
   xmlns:cc="http://creativecommons.org/ns#"
   xmlns:rdf="http://www.w3.org/1999/02/22-rdf-syntax-ns#"
   xmlns:svg="http://www.w3.org/2000/svg"
   xmlns="http://www.w3.org/2000/svg"
   xmlns:sodipodi="http://sodipodi.sourceforge.net/DTD/sodipodi-0.dtd"
   xmlns:inkscape="http://www.inkscape.org/namespaces/inkscape"
   version="1.1"
   id="Layer_1"
   x="0px"
   y="0px"
   viewBox="0 0 469 343"
   xml:space="preserve"
   sodipodi:docname="space-15.svg"
   width="469"
   height="343"
   inkscape:version="1.0.1 (3bc2e813f5, 2020-09-07)"><metadata
   id="metadata217"><rdf:RDF><cc:Work
       rdf:about=""><dc:format>image/svg+xml</dc:format><dc:type
         rdf:resource="http://purl.org/dc/dcmitype/StillImage" /><dc:title></dc:title></cc:Work></rdf:RDF></metadata><defs
   id="defs215" /><sodipodi:namedview
   pagecolor="#ffffff"
   bordercolor="#666666"
   borderopacity="1"
   objecttolerance="10"
   gridtolerance="10"
   guidetolerance="10"
   inkscape:pageopacity="0"
   inkscape:pageshadow="2"
   inkscape:window-width="1920"
   inkscape:window-height="1009"
   id="namedview213"
   showgrid="false"
   inkscape:zoom="0.71386719"
   inkscape:cx="-199.10454"
   inkscape:cy="346.65276"
   inkscape:window-x="1920"
   inkscape:window-y="27"
   inkscape:window-maximized="1"
   inkscape:current-layer="Layer_1" />
<style
   type="text/css"
   id="style2">
	.st0{fill:none;stroke:#191A23;stroke-width:10.5777;stroke-miterlimit:10;}
	.st1{fill:#8E8E8E;}
	.st2{fill:#191A23;}
	.st3{fill:#FFD878;}
	.st4{opacity:0.1;}
	.st5{fill:#DBDBDB;}
	.st6{fill:#F25F5F;}
	.st7{fill:#353535;}
	.st8{fill:#3996C4;}
	.st9{fill:#6ECFE5;}
	.st10{fill:none;stroke:#191A23;stroke-width:10.5777;stroke-linecap:round;stroke-miterlimit:10;}
	.st11{fill:#D12F2F;}
	.st12{fill:none;stroke:#191A23;stroke-width:3.5899;stroke-linecap:round;stroke-miterlimit:10;}
	.st13{opacity:0.2;fill:#FFFFFF;}
</style>
<g
   id="g210"
   transform="translate(-18,-84)">
	<g
   id="g6">
		<line
   class="st0"
   x1="322.10999"
   y1="230.24001"
   x2="373.87"
   y2="179.78"
   id="line4" />
	</g>
	<g
   id="g14">
		<rect
   x="231.02"
   y="152.25"
   class="st1"
   width="27.780001"
   height="52.200001"
   id="rect8" />
		<g
   id="g12">
			<path
   class="st2"
   d="m 253.51,157.54 v 41.63 h -17.2 v -41.63 h 17.2 m 10.58,-10.58 h -10.58 -17.2 -10.58 v 10.58 41.63 10.58 h 10.58 17.2 10.58 v -10.58 -41.63 z"
   id="path10" />
		</g>
	</g>
	<g
   id="g20">
		<path
   class="st3"
   d="m 179.96,235.53 v -19.87 c 0,-12.01 9.77,-21.78 21.78,-21.78 h 63.78 c 12.01,0 21.78,9.77 21.78,21.78 v 19.87 z"
   id="path16" />
		<path
   class="st2"
   d="m 265.53,199.17 c 9.11,0 16.49,7.38 16.49,16.49 v 14.58 h -96.77 v -14.58 c 0,-9.11 7.38,-16.49 16.49,-16.49 h 63.79 m 0,-10.58 h -63.78 c -14.93,0 -27.07,12.14 -27.07,27.07 v 14.58 10.58 h 10.58 96.77 10.58 v -10.58 -14.58 c -0.01,-14.93 -12.16,-27.07 -27.08,-27.07 z"
   id="path18" />
	</g>
	<g
   class="st4"
   id="g24">
		<rect
   x="185.25"
   y="209.98"
   class="st2"
   width="96.769997"
   height="11.8"
   id="rect22" />
	</g>
	<g
   id="g52">
		<g
   id="g32">
			<path
   class="st5"
   d="m 84.48,203.83 c -18.39,0 -35.86,-6.92 -49.17,-19.47 l -4.7,-4.43 116.75,-82.59 2.62,5.91 c 13.73,31.03 3.56,67.8 -24.18,87.42 -12.18,8.61 -26.47,13.16 -41.32,13.16 0,0 0,0 0,0 z"
   id="path26" />
			<g
   id="g30">
				<path
   class="st2"
   d="m 145.14,105.39 c 12.52,28.29 3.83,62.41 -22.4,80.96 -11.64,8.23 -25.01,12.19 -38.26,12.19 -16.61,0 -33.02,-6.22 -45.54,-18.03 l 106.2,-75.12 m 4.44,-16.1 -10.55,7.46 -106.2,75.12 -10.55,7.46 9.4,8.87 c 14.3,13.48 33.05,20.91 52.8,20.91 15.96,0 31.3,-4.89 44.37,-14.13 14.59,-10.32 25.18,-25.48 29.83,-42.71 4.59,-16.99 3.21,-35.16 -3.87,-51.17 z"
   id="path28" />
			</g>
		</g>
		<g
   class="st4"
   id="g36">
			<path
   class="st2"
   d="M 116.72,177.86 C 93.59,194.22 63.6,193.68 41.4,178.77 l -2.47,1.74 c 22.51,21.22 57.57,24.4 83.8,5.84 26.23,-18.55 34.92,-52.67 22.4,-80.96 l -2.47,1.74 c 6.67,25.91 -2.8,54.37 -25.94,70.73 z"
   id="path34" />
		</g>
		<line
   class="st0"
   x1="152.25"
   y1="228.08"
   x2="122.74"
   y2="186.36"
   id="line38" />
		<line
   class="st0"
   x1="90.019997"
   y1="140.10001"
   x2="80.790001"
   y2="127.06"
   id="line40" />
		<g
   id="g46">
			<path
   class="st3"
   d="m 72.4,127.1 c -3.86,0 -7.5,-1.88 -9.73,-5.03 -1.84,-2.6 -2.55,-5.75 -2.02,-8.89 0.53,-3.14 2.26,-5.87 4.86,-7.71 2.02,-1.43 4.4,-2.19 6.87,-2.19 3.86,0 7.5,1.88 9.73,5.03 3.79,5.36 2.52,12.81 -2.84,16.6 -2.02,1.44 -4.39,2.19 -6.87,2.19 z"
   id="path42" />
			<path
   class="st2"
   d="m 72.39,108.58 c 2.08,0 4.12,0.97 5.41,2.8 2.11,2.98 1.4,7.12 -1.58,9.23 -1.16,0.82 -2.5,1.22 -3.82,1.22 -2.08,0 -4.12,-0.97 -5.41,-2.8 -2.11,-2.98 -1.4,-7.12 1.58,-9.23 1.17,-0.83 2.5,-1.22 3.82,-1.22 m 0,-10.58 v 0 c -3.57,0 -7,1.09 -9.93,3.16 -7.74,5.48 -9.58,16.23 -4.11,23.97 3.22,4.55 8.47,7.27 14.05,7.27 3.57,0 7,-1.09 9.93,-3.16 3.75,-2.65 6.24,-6.61 7.02,-11.13 0.78,-4.53 -0.26,-9.09 -2.91,-12.84 C 83.22,100.71 77.97,98 72.39,98 Z"
   id="path44" />
		</g>
		<g
   class="st4"
   id="g50">
			<path
   class="st2"
   d="m 76.81,117.18 c -2.98,2.11 -7.12,1.4 -9.23,-1.58 -0.69,-0.98 -1.07,-2.08 -1.18,-3.19 -0.96,2.08 -0.83,4.6 0.59,6.61 2.11,2.98 6.24,3.69 9.23,1.58 2.01,-1.42 2.98,-3.75 2.76,-6.04 -0.47,1.02 -1.19,1.93 -2.17,2.62 z"
   id="path48" />
		</g>
	</g>
	<g
   id="g58">
		<polygon
   class="st5"
   points="97.92,334.16 97.92,224.95 389.96,224.95 336.17,334.16 "
   id="polygon54" />
		<path
   class="st2"
   d="m 381.46,230.24 -48.58,98.63 H 103.21 v -98.63 h 278.25 m 17,-10.58 h -17 -278.25 -10.58 v 10.58 98.63 10.58 h 10.58 229.68 6.58 l 2.91,-5.9 48.58,-98.63 z"
   id="path56" />
	</g>
	<g
   class="st4"
   id="g62">
		<polygon
   class="st2"
   points="103.21,307.65 103.21,328.87 332.88,328.87 343.33,307.65 "
   id="polygon60" />
	</g>
	<line
   class="st0"
   x1="177.14999"
   y1="300.70999"
   x2="111.26"
   y2="383.28"
   id="line64" />
	<g
   id="g68">
		<polygon
   class="st6"
   points="103.21,245.39 374,245.39 381.46,230.24 103.21,230.24 "
   id="polygon66" />
	</g>
	<g
   id="g88">
		<g
   id="g74">
			<path
   class="st7"
   d="m 111.26,416.66 c -18.4,0 -33.38,-14.97 -33.38,-33.38 0,-18.41 14.97,-33.38 33.38,-33.38 18.41,0 33.38,14.97 33.38,33.38 0,18.4 -14.98,33.38 -33.38,33.38 z"
   id="path70" />
			<path
   class="st2"
   d="m 111.26,355.19 c 15.51,0 28.09,12.58 28.09,28.09 0,15.51 -12.58,28.09 -28.09,28.09 -15.51,0 -28.09,-12.58 -28.09,-28.09 0,-15.52 12.57,-28.09 28.09,-28.09 m 0,-10.58 c -21.32,0 -38.67,17.35 -38.67,38.67 0,21.32 17.35,38.67 38.67,38.67 21.32,0 38.67,-17.35 38.67,-38.67 0,-21.32 -17.35,-38.67 -38.67,-38.67 z"
   id="path72" />
		</g>
		<g
   class="st4"
   id="g78">
			<path
   class="st2"
   d="m 111.26,406.51 c -14.69,0 -26.75,-11.29 -27.98,-25.66 -0.07,0.8 -0.11,1.61 -0.11,2.43 0,15.51 12.58,28.09 28.09,28.09 15.51,0 28.09,-12.58 28.09,-28.09 0,-0.82 -0.04,-1.63 -0.11,-2.43 -1.24,14.37 -13.29,25.66 -27.98,25.66 z"
   id="path76" />
		</g>
		<g
   id="g86">
			<path
   class="st1"
   d="m 111.26,398.13 c -8.19,0 -14.85,-6.66 -14.85,-14.85 0,-8.19 6.66,-14.85 14.85,-14.85 8.19,0 14.85,6.66 14.85,14.85 0,8.18 -6.66,14.85 -14.85,14.85 z"
   id="path80" />
			<g
   id="g84">
				<path
   class="st2"
   d="m 111.26,373.72 c 5.28,0 9.56,4.28 9.56,9.56 0,5.28 -4.28,9.56 -9.56,9.56 -5.28,0 -9.56,-4.28 -9.56,-9.56 0,-5.28 4.28,-9.56 9.56,-9.56 m 0,-10.58 c -11.1,0 -20.14,9.03 -20.14,20.14 0,11.1 9.03,20.14 20.14,20.14 11.11,0 20.14,-9.03 20.14,-20.14 -0.01,-11.11 -9.04,-20.14 -20.14,-20.14 z"
   id="path82" />
			</g>
		</g>
	</g>
	<line
   class="st0"
   x1="243.11"
   y1="383.28"
   x2="288.19"
   y2="335.75"
   id="line90" />
	<line
   class="st0"
   x1="333.32999"
   y1="383.28"
   x2="288.19"
   y2="335.75"
   id="line92" />
	<g
   id="g112">
		<g
   id="g98">
			<path
   class="st7"
   d="m 243.11,416.66 c -18.41,0 -33.38,-14.97 -33.38,-33.38 0,-18.41 14.97,-33.38 33.38,-33.38 18.41,0 33.38,14.97 33.38,33.38 0,18.4 -14.97,33.38 -33.38,33.38 z"
   id="path94" />
			<path
   class="st2"
   d="m 243.11,355.19 c 15.51,0 28.09,12.58 28.09,28.09 0,15.51 -12.58,28.09 -28.09,28.09 -15.51,0 -28.09,-12.58 -28.09,-28.09 0,-15.52 12.58,-28.09 28.09,-28.09 m 0,-10.58 c -21.32,0 -38.67,17.35 -38.67,38.67 0,21.32 17.35,38.67 38.67,38.67 21.32,0 38.67,-17.35 38.67,-38.67 0,-21.32 -17.35,-38.67 -38.67,-38.67 z"
   id="path96" />
		</g>
		<g
   class="st4"
   id="g102">
			<path
   class="st2"
   d="m 243.11,406.51 c -14.69,0 -26.75,-11.29 -27.98,-25.66 -0.07,0.8 -0.11,1.61 -0.11,2.43 0,15.51 12.58,28.09 28.09,28.09 15.51,0 28.09,-12.58 28.09,-28.09 0,-0.82 -0.04,-1.63 -0.11,-2.43 -1.23,14.37 -13.28,25.66 -27.98,25.66 z"
   id="path100" />
		</g>
		<g
   id="g110">
			<path
   class="st1"
   d="m 243.11,398.13 c -8.19,0 -14.85,-6.66 -14.85,-14.85 0,-8.19 6.66,-14.85 14.85,-14.85 8.19,0 14.85,6.66 14.85,14.85 0,8.18 -6.66,14.85 -14.85,14.85 z"
   id="path104" />
			<g
   id="g108">
				<path
   class="st2"
   d="m 243.11,373.72 c 5.28,0 9.56,4.28 9.56,9.56 0,5.28 -4.28,9.56 -9.56,9.56 -5.28,0 -9.56,-4.28 -9.56,-9.56 0,-5.28 4.28,-9.56 9.56,-9.56 m 0,-10.58 c -11.1,0 -20.14,9.03 -20.14,20.14 0,11.1 9.03,20.14 20.14,20.14 11.11,0 20.14,-9.03 20.14,-20.14 0,-11.11 -9.03,-20.14 -20.14,-20.14 z"
   id="path106" />
			</g>
		</g>
	</g>
	<line
   class="st0"
   x1="288.19"
   y1="335.75"
   x2="177.14999"
   y2="300.70999"
   id="line114" />
	<g
   id="g134">
		<g
   id="g120">
			<path
   class="st7"
   d="m 333.33,416.66 c -18.41,0 -33.38,-14.97 -33.38,-33.38 0,-18.41 14.97,-33.38 33.38,-33.38 18.41,0 33.38,14.97 33.38,33.38 0,18.4 -14.98,33.38 -33.38,33.38 z"
   id="path116" />
			<path
   class="st2"
   d="m 333.33,355.19 c 15.51,0 28.09,12.58 28.09,28.09 0,15.51 -12.58,28.09 -28.09,28.09 -15.51,0 -28.09,-12.58 -28.09,-28.09 0,-15.52 12.57,-28.09 28.09,-28.09 m 0,-10.58 c -21.32,0 -38.67,17.35 -38.67,38.67 0,21.32 17.35,38.67 38.67,38.67 21.32,0 38.67,-17.35 38.67,-38.67 0,-21.32 -17.35,-38.67 -38.67,-38.67 z"
   id="path118" />
		</g>
		<g
   class="st4"
   id="g124">
			<path
   class="st2"
   d="m 333.33,406.51 c -14.69,0 -26.75,-11.29 -27.98,-25.66 -0.07,0.8 -0.11,1.61 -0.11,2.43 0,15.51 12.58,28.09 28.09,28.09 15.51,0 28.09,-12.58 28.09,-28.09 0,-0.82 -0.04,-1.63 -0.11,-2.43 -1.24,14.37 -13.29,25.66 -27.98,25.66 z"
   id="path122" />
		</g>
		<g
   id="g132">
			<path
   class="st1"
   d="m 333.33,398.13 c -8.19,0 -14.85,-6.66 -14.85,-14.85 0,-8.19 6.66,-14.85 14.85,-14.85 8.19,0 14.85,6.66 14.85,14.85 0,8.18 -6.67,14.85 -14.85,14.85 z"
   id="path126" />
			<g
   id="g130">
				<path
   class="st2"
   d="m 333.33,373.72 c 5.28,0 9.56,4.28 9.56,9.56 0,5.28 -4.28,9.56 -9.56,9.56 -5.28,0 -9.56,-4.28 -9.56,-9.56 0,-5.28 4.28,-9.56 9.56,-9.56 m 0,-10.58 c -11.1,0 -20.14,9.03 -20.14,20.14 0,11.1 9.03,20.14 20.14,20.14 11.1,0 20.14,-9.03 20.14,-20.14 -0.01,-11.11 -9.04,-20.14 -20.14,-20.14 z"
   id="path128" />
			</g>
		</g>
	</g>
	<g
   id="g150">
		<g
   class="st4"
   id="g138">
			
				<circle
   transform="matrix(0.9436,-0.331,0.331,0.9436,-92.1918,76.0394)"
   class="st2"
   cx="177.14999"
   cy="308.69"
   id="ellipse136"
   r="16.889999" />
		</g>
		<g
   id="g144">
			<path
   class="st8"
   d="m 177.15,321.66 c -10.6,0 -19.22,-8.62 -19.22,-19.22 0,-10.6 8.62,-19.22 19.22,-19.22 10.6,0 19.22,8.62 19.22,19.22 0,10.6 -8.62,19.22 -19.22,19.22 z"
   id="path140" />
			<path
   class="st2"
   d="m 177.15,288.51 c 7.69,0 13.93,6.24 13.93,13.93 0,7.69 -6.24,13.93 -13.93,13.93 -7.69,0 -13.93,-6.24 -13.93,-13.93 0,-7.69 6.24,-13.93 13.93,-13.93 m 0,-10.58 c -13.51,0 -24.51,10.99 -24.51,24.51 0,13.52 10.99,24.51 24.51,24.51 13.52,0 24.51,-10.99 24.51,-24.51 0,-13.52 -10.99,-24.51 -24.51,-24.51 z"
   id="path142" />
		</g>
		<g
   class="st4"
   id="g148">
			<path
   class="st2"
   d="m 177.15,312.9 c -7.11,0 -12.96,-5.32 -13.81,-12.2 -0.07,0.57 -0.12,1.15 -0.12,1.73 0,7.69 6.24,13.93 13.93,13.93 7.69,0 13.93,-6.24 13.93,-13.93 0,-0.59 -0.05,-1.17 -0.12,-1.73 -0.85,6.88 -6.7,12.2 -13.81,12.2 z"
   id="path146" />
		</g>
	</g>
	<g
   id="g162">
		<g
   id="g156">
			<path
   class="st8"
   d="m 288.19,350.74 c -10.6,0 -19.22,-8.62 -19.22,-19.22 0,-10.6 8.62,-19.22 19.22,-19.22 10.6,0 19.22,8.62 19.22,19.22 0,10.6 -8.63,19.22 -19.22,19.22 z"
   id="path152" />
			<path
   class="st2"
   d="m 288.19,317.59 c 7.69,0 13.93,6.24 13.93,13.93 0,7.69 -6.24,13.93 -13.93,13.93 -7.69,0 -13.93,-6.24 -13.93,-13.93 -0.01,-7.69 6.23,-13.93 13.93,-13.93 m 0,-10.58 c -13.51,0 -24.51,10.99 -24.51,24.51 0,13.52 10.99,24.51 24.51,24.51 13.52,0 24.51,-10.99 24.51,-24.51 0,-13.52 -11,-24.51 -24.51,-24.51 z"
   id="path154" />
		</g>
		<g
   class="st4"
   id="g160">
			<path
   class="st2"
   d="m 288.19,341.98 c -7.11,0 -12.96,-5.32 -13.81,-12.2 -0.07,0.57 -0.12,1.15 -0.12,1.73 0,7.69 6.24,13.93 13.93,13.93 7.69,0 13.93,-6.24 13.93,-13.93 0,-0.59 -0.05,-1.17 -0.12,-1.73 -0.86,6.88 -6.71,12.2 -13.81,12.2 z"
   id="path158" />
		</g>
	</g>
	<g
   id="g170">
		<rect
   x="200.45"
   y="107.5"
   class="st5"
   width="88.919998"
   height="60.560001"
   id="rect164" />
		<g
   id="g168">
			<path
   class="st2"
   d="m 283.33,113.54 v 48.49 h -76.84 v -48.49 h 76.84 m 12.08,-12.08 h -12.08 -76.84 -12.08 v 12.08 48.49 12.08 h 12.08 76.84 12.08 v -12.08 -48.49 z"
   id="path166" />
		</g>
	</g>
	<g
   class="st4"
   id="g174">
		<rect
   x="206.49001"
   y="153.33"
   class="st2"
   width="76.839996"
   height="9.3900003"
   id="rect172" />
	</g>
	<g
   id="g182">
		<circle
   class="st9"
   cx="259.34"
   cy="137.78"
   r="13.49"
   id="circle176" />
		<g
   id="g180">
			<path
   class="st2"
   d="m 259.34,129.58 c 4.53,0 8.2,3.67 8.2,8.2 0,4.53 -3.67,8.2 -8.2,8.2 -4.53,0 -8.2,-3.67 -8.2,-8.2 -0.01,-4.53 3.67,-8.2 8.2,-8.2 m 0,-10.58 c -10.35,0 -18.78,8.42 -18.78,18.78 0,10.35 8.42,18.78 18.78,18.78 10.35,0 18.78,-8.42 18.78,-18.78 0,-10.35 -8.43,-18.78 -18.78,-18.78 z"
   id="path178" />
		</g>
	</g>
	<g
   class="st4"
   id="g186">
		<path
   class="st2"
   d="m 259.34,142.73 c -3.97,0 -7.28,-2.83 -8.04,-6.58 -0.11,0.53 -0.16,1.07 -0.16,1.63 0,4.53 3.67,8.2 8.2,8.2 4.53,0 8.2,-3.67 8.2,-8.2 0,-0.56 -0.06,-1.1 -0.16,-1.63 -0.76,3.76 -4.07,6.58 -8.04,6.58 z"
   id="path184" />
	</g>
	<line
   class="st10"
   x1="373.87"
   y1="179.78"
   x2="428.79999"
   y2="179.78"
   id="line188" />
	<g
   id="g194">
		<circle
   class="st11"
   cx="373.87"
   cy="179.78"
   r="20.030001"
   id="circle190" />
		<path
   class="st2"
   d="m 373.87,165.04 c 8.14,0 14.74,6.6 14.74,14.74 0,8.14 -6.6,14.74 -14.74,14.74 -8.14,0 -14.74,-6.6 -14.74,-14.74 0,-8.14 6.6,-14.74 14.74,-14.74 m 0,-10.58 c -13.96,0 -25.31,11.36 -25.31,25.31 0,13.96 11.36,25.31 25.31,25.31 13.95,0 25.31,-11.36 25.31,-25.31 0.01,-13.95 -11.35,-25.31 -25.31,-25.31 z"
   id="path192" />
	</g>
	<g
   class="st4"
   id="g198">
		<path
   class="st2"
   d="m 373.87,190.35 c -7.43,0 -13.56,-5.5 -14.57,-12.65 -0.1,0.68 -0.16,1.37 -0.16,2.08 0,8.14 6.6,14.74 14.74,14.74 8.14,0 14.74,-6.6 14.74,-14.74 0,-0.71 -0.07,-1.4 -0.16,-2.08 -1.03,7.14 -7.16,12.65 -14.59,12.65 z"
   id="path196" />
	</g>
	<polyline
   class="st10"
   points="477.66,162.56 446.01,162.56 429.45,179.19 428.87,179.78 429.45,180.36 446.01,196.99    477.66,196.99  "
   id="polyline200" />
	<path
   class="st12"
   d="M 449.67,185.46"
   id="path202" />
	<g
   class="st4"
   id="g206">
		<rect
   x="236.31"
   y="173.50999"
   class="st2"
   width="17"
   height="7.29"
   id="rect204" />
	</g>
	<ellipse
   class="st13"
   cx="259.34"
   cy="133.28"
   rx="4"
   ry="2.3199999"
   id="ellipse208" />
</g>
</svg>
